G04 #@! TF.GenerationSoftware,KiCad,Pcbnew,(5.0.1-3-g963ef8bb5)*
G04 #@! TF.CreationDate,2021-12-01T04:01:33+09:00*
G04 #@! TF.ProjectId,Jasmin,4A61736D696E2E6B696361645F706362,rev?*
G04 #@! TF.SameCoordinates,Original*
G04 #@! TF.FileFunction,Copper,L2,Bot,Signal*
G04 #@! TF.FilePolarity,Positive*
%FSLAX46Y46*%
G04 Gerber Fmt 4.6, Leading zero omitted, Abs format (unit mm)*
G04 Created by KiCad (PCBNEW (5.0.1-3-g963ef8bb5)) date 2021 December 01, Wednesday 04:01:33*
%MOMM*%
%LPD*%
G01*
G04 APERTURE LIST*
G04 #@! TA.AperFunction,SMDPad,CuDef*
%ADD10R,1.980000X9.900000*%
G04 #@! TD*
G04 #@! TA.AperFunction,Conductor*
%ADD11C,0.100000*%
G04 #@! TD*
G04 #@! TA.AperFunction,ComponentPad*
%ADD12C,2.700000*%
G04 #@! TD*
G04 #@! TA.AperFunction,ComponentPad*
%ADD13O,2.700000X3.300000*%
G04 #@! TD*
G04 #@! TA.AperFunction,ComponentPad*
%ADD14R,1.600000X1.600000*%
G04 #@! TD*
G04 #@! TA.AperFunction,ComponentPad*
%ADD15C,1.600000*%
G04 #@! TD*
G04 #@! TA.AperFunction,ComponentPad*
%ADD16R,1.800000X1.800000*%
G04 #@! TD*
G04 #@! TA.AperFunction,ComponentPad*
%ADD17C,1.800000*%
G04 #@! TD*
G04 #@! TA.AperFunction,ComponentPad*
%ADD18R,1.700000X1.700000*%
G04 #@! TD*
G04 #@! TA.AperFunction,ComponentPad*
%ADD19O,1.700000X1.700000*%
G04 #@! TD*
G04 #@! TA.AperFunction,ComponentPad*
%ADD20C,1.900000*%
G04 #@! TD*
G04 #@! TA.AperFunction,ComponentPad*
%ADD21C,3.300000*%
G04 #@! TD*
G04 #@! TA.AperFunction,ComponentPad*
%ADD22O,1.400000X1.400000*%
G04 #@! TD*
G04 #@! TA.AperFunction,ComponentPad*
%ADD23O,1.500000X4.000000*%
G04 #@! TD*
G04 #@! TA.AperFunction,ComponentPad*
%ADD24O,4.000000X1.500000*%
G04 #@! TD*
G04 #@! TA.AperFunction,ComponentPad*
%ADD25C,2.000000*%
G04 #@! TD*
G04 #@! TA.AperFunction,ComponentPad*
%ADD26C,1.500000*%
G04 #@! TD*
G04 #@! TA.AperFunction,ComponentPad*
%ADD27C,2.510000*%
G04 #@! TD*
G04 #@! TA.AperFunction,ComponentPad*
%ADD28O,2.000000X3.000000*%
G04 #@! TD*
G04 #@! TA.AperFunction,ComponentPad*
%ADD29O,3.000000X2.000000*%
G04 #@! TD*
G04 #@! TA.AperFunction,ViaPad*
%ADD30C,0.400000*%
G04 #@! TD*
G04 #@! TA.AperFunction,ViaPad*
%ADD31C,0.500000*%
G04 #@! TD*
G04 #@! TA.AperFunction,Conductor*
%ADD32C,0.800000*%
G04 #@! TD*
G04 #@! TA.AperFunction,Conductor*
%ADD33C,2.000000*%
G04 #@! TD*
G04 #@! TA.AperFunction,Conductor*
%ADD34C,1.500000*%
G04 #@! TD*
G04 #@! TA.AperFunction,Conductor*
%ADD35C,0.300000*%
G04 #@! TD*
G04 #@! TA.AperFunction,Conductor*
%ADD36C,0.250000*%
G04 #@! TD*
G04 #@! TA.AperFunction,Conductor*
%ADD37C,1.000000*%
G04 #@! TD*
G04 #@! TA.AperFunction,Conductor*
%ADD38C,0.254000*%
G04 #@! TD*
G04 APERTURE END LIST*
D10*
G04 #@! TO.P,J8,b5*
G04 #@! TO.N,GND*
X192560000Y-77470000D03*
G04 #@! TO.P,J8,b6*
G04 #@! TO.N,/SVC*
X188600000Y-77470000D03*
G04 #@! TO.P,J8,b7*
G04 #@! TO.N,N/C*
X184640000Y-77470000D03*
G04 #@! TO.P,J8,b8*
G04 #@! TO.N,/R*
X180680000Y-77470000D03*
G04 #@! TO.P,J8,b9*
G04 #@! TO.N,/B*
X176720000Y-77470000D03*
G04 #@! TO.P,J8,b10*
G04 #@! TO.N,/S+*
X172760000Y-77470000D03*
G04 #@! TO.P,J8,b11*
G04 #@! TO.N,/1P1*
X168800000Y-77470000D03*
G04 #@! TO.P,J8,b12*
G04 #@! TO.N,/1PR*
X164840000Y-77470000D03*
G04 #@! TO.P,J8,b13*
G04 #@! TO.N,/1PL*
X160880000Y-77470000D03*
G04 #@! TO.P,J8,b14*
G04 #@! TO.N,/1PD*
X156920000Y-77470000D03*
G04 #@! TO.P,J8,b15*
G04 #@! TO.N,/1PU*
X152960000Y-77470000D03*
G04 #@! TO.P,J8,b16*
G04 #@! TO.N,/1PS*
X149000000Y-77470000D03*
G04 #@! TO.P,J8,b17*
G04 #@! TO.N,N/C*
X145040000Y-77470000D03*
G04 #@! TO.P,J8,b18*
X141080000Y-77470000D03*
G04 #@! TO.P,J8,b20*
G04 #@! TO.N,/2PD*
X133160000Y-77470000D03*
G04 #@! TO.P,J8,b19*
G04 #@! TO.N,/2PU*
X137120000Y-77470000D03*
G04 #@! TO.P,J8,b21*
G04 #@! TO.N,VCC*
X129200000Y-77470000D03*
G04 #@! TO.P,J8,b22*
X125240000Y-77470000D03*
G04 #@! TO.P,J8,b23*
G04 #@! TO.N,/12V*
X121280000Y-77470000D03*
G04 #@! TO.P,J8,b24*
G04 #@! TO.N,N/C*
X117320000Y-77470000D03*
G04 #@! TO.P,J8,b4*
X196520000Y-77470000D03*
G04 #@! TO.P,J8,b3*
X200480000Y-77470000D03*
G04 #@! TO.P,J8,b2*
G04 #@! TO.N,/2P3*
X204440000Y-77470000D03*
G04 #@! TO.P,J8,b1*
G04 #@! TO.N,/2P5*
X208400000Y-77470000D03*
G04 #@! TO.P,J8,b25*
G04 #@! TO.N,VCC*
X113360000Y-77470000D03*
G04 #@! TO.P,J8,b26*
X109400000Y-77470000D03*
G04 #@! TO.P,J8,b27*
G04 #@! TO.N,GND*
X105440000Y-77470000D03*
G04 #@! TO.P,J8,b28*
X101480000Y-77470000D03*
G04 #@! TD*
D11*
G04 #@! TO.N,N/C*
G04 #@! TO.C,J3*
G36*
X151619503Y-63121204D02*
X151643772Y-63124804D01*
X151667570Y-63130765D01*
X151690670Y-63139030D01*
X151712849Y-63149520D01*
X151733892Y-63162133D01*
X151753598Y-63176748D01*
X151771776Y-63193224D01*
X151788252Y-63211402D01*
X151802867Y-63231108D01*
X151815480Y-63252151D01*
X151825970Y-63274330D01*
X151834235Y-63297430D01*
X151840196Y-63321228D01*
X151843796Y-63345497D01*
X151845000Y-63370001D01*
X151845000Y-66169999D01*
X151843796Y-66194503D01*
X151840196Y-66218772D01*
X151834235Y-66242570D01*
X151825970Y-66265670D01*
X151815480Y-66287849D01*
X151802867Y-66308892D01*
X151788252Y-66328598D01*
X151771776Y-66346776D01*
X151753598Y-66363252D01*
X151733892Y-66377867D01*
X151712849Y-66390480D01*
X151690670Y-66400970D01*
X151667570Y-66409235D01*
X151643772Y-66415196D01*
X151619503Y-66418796D01*
X151594999Y-66420000D01*
X149395001Y-66420000D01*
X149370497Y-66418796D01*
X149346228Y-66415196D01*
X149322430Y-66409235D01*
X149299330Y-66400970D01*
X149277151Y-66390480D01*
X149256108Y-66377867D01*
X149236402Y-66363252D01*
X149218224Y-66346776D01*
X149201748Y-66328598D01*
X149187133Y-66308892D01*
X149174520Y-66287849D01*
X149164030Y-66265670D01*
X149155765Y-66242570D01*
X149149804Y-66218772D01*
X149146204Y-66194503D01*
X149145000Y-66169999D01*
X149145000Y-63370001D01*
X149146204Y-63345497D01*
X149149804Y-63321228D01*
X149155765Y-63297430D01*
X149164030Y-63274330D01*
X149174520Y-63252151D01*
X149187133Y-63231108D01*
X149201748Y-63211402D01*
X149218224Y-63193224D01*
X149236402Y-63176748D01*
X149256108Y-63162133D01*
X149277151Y-63149520D01*
X149299330Y-63139030D01*
X149322430Y-63130765D01*
X149346228Y-63124804D01*
X149370497Y-63121204D01*
X149395001Y-63120000D01*
X151594999Y-63120000D01*
X151619503Y-63121204D01*
X151619503Y-63121204D01*
G37*
D12*
G04 #@! TD*
G04 #@! TO.P,J3,1*
G04 #@! TO.N,N/C*
X150495000Y-64770000D03*
D13*
G04 #@! TO.P,J3,2*
G04 #@! TO.N,N/C*
X146295000Y-64770000D03*
G04 #@! TO.P,J3,3*
G04 #@! TO.N,GND*
X142095000Y-64770000D03*
G04 #@! TO.P,J3,4*
G04 #@! TO.N,VCC*
X137895000Y-64770000D03*
G04 #@! TO.P,J3,5*
G04 #@! TO.N,GND*
X133695000Y-64770000D03*
G04 #@! TO.P,J3,6*
G04 #@! TO.N,VCC*
X129495000Y-64770000D03*
G04 #@! TO.P,J3,7*
G04 #@! TO.N,GND*
X125295000Y-64770000D03*
G04 #@! TO.P,J3,8*
G04 #@! TO.N,N/C*
X121095000Y-64770000D03*
G04 #@! TO.P,J3,9*
X116895000Y-64770000D03*
G04 #@! TO.P,J3,10*
G04 #@! TO.N,/12V*
X112695000Y-64770000D03*
G04 #@! TO.P,J3,11*
X108495000Y-64770000D03*
G04 #@! TO.P,J3,12*
G04 #@! TO.N,N/C*
X104295000Y-64770000D03*
G04 #@! TO.P,J3,13*
X150495000Y-59270000D03*
G04 #@! TO.P,J3,14*
X146295000Y-59270000D03*
G04 #@! TO.P,J3,15*
G04 #@! TO.N,GND*
X142095000Y-59270000D03*
G04 #@! TO.P,J3,16*
G04 #@! TO.N,/PON*
X137895000Y-59270000D03*
G04 #@! TO.P,J3,17*
G04 #@! TO.N,GND*
X133695000Y-59270000D03*
G04 #@! TO.P,J3,18*
X129495000Y-59270000D03*
G04 #@! TO.P,J3,19*
X125295000Y-59270000D03*
G04 #@! TO.P,J3,20*
G04 #@! TO.N,/-5V*
X121095000Y-59270000D03*
G04 #@! TO.P,J3,21*
G04 #@! TO.N,VCC*
X116895000Y-59270000D03*
G04 #@! TO.P,J3,22*
X112695000Y-59270000D03*
G04 #@! TO.P,J3,23*
X108495000Y-59270000D03*
G04 #@! TO.P,J3,24*
G04 #@! TO.N,GND*
X104295000Y-59270000D03*
G04 #@! TD*
D14*
G04 #@! TO.P,C9,1*
G04 #@! TO.N,Net-(C9-Pad1)*
X175006000Y-57658000D03*
D15*
G04 #@! TO.P,C9,2*
G04 #@! TO.N,Net-(C9-Pad2)*
X177506000Y-57658000D03*
G04 #@! TD*
G04 #@! TO.P,C10,2*
G04 #@! TO.N,Net-(C10-Pad2)*
X177506000Y-64008000D03*
D14*
G04 #@! TO.P,C10,1*
G04 #@! TO.N,Net-(C10-Pad1)*
X175006000Y-64008000D03*
G04 #@! TD*
D16*
G04 #@! TO.P,D1,1*
G04 #@! TO.N,Net-(D1-Pad1)*
X187071000Y-64516000D03*
D17*
G04 #@! TO.P,D1,2*
G04 #@! TO.N,VCC*
X189611000Y-64516000D03*
G04 #@! TD*
D18*
G04 #@! TO.P,J1,1*
G04 #@! TO.N,GND*
X208280000Y-54356000D03*
D19*
G04 #@! TO.P,J1,2*
G04 #@! TO.N,/1P4*
X208280000Y-56896000D03*
G04 #@! TO.P,J1,3*
G04 #@! TO.N,/1P5*
X208280000Y-59436000D03*
G04 #@! TO.P,J1,4*
G04 #@! TO.N,/1P6*
X208280000Y-61976000D03*
G04 #@! TO.P,J1,5*
G04 #@! TO.N,/2P4*
X208280000Y-64516000D03*
G04 #@! TO.P,J1,6*
G04 #@! TO.N,/2P5*
X208280000Y-67056000D03*
G04 #@! TO.P,J1,7*
G04 #@! TO.N,/2P6*
X208280000Y-69596000D03*
G04 #@! TD*
D10*
G04 #@! TO.P,J2,b28*
G04 #@! TO.N,GND*
X208400000Y-34290000D03*
G04 #@! TO.P,J2,b27*
G04 #@! TO.N,/2P6*
X204440000Y-34290000D03*
G04 #@! TO.P,J2,b26*
G04 #@! TO.N,/2P5*
X200480000Y-34290000D03*
G04 #@! TO.P,J2,b25*
G04 #@! TO.N,/2P4*
X196520000Y-34290000D03*
G04 #@! TO.P,J2,b1*
G04 #@! TO.N,GND*
X101480000Y-34290000D03*
G04 #@! TO.P,J2,b2*
X105440000Y-34290000D03*
G04 #@! TO.P,J2,b3*
G04 #@! TO.N,VCC*
X109400000Y-34290000D03*
G04 #@! TO.P,J2,b4*
X113360000Y-34290000D03*
G04 #@! TO.P,J2,b24*
G04 #@! TO.N,/2P3*
X192560000Y-34290000D03*
G04 #@! TO.P,J2,b23*
G04 #@! TO.N,/2P2*
X188600000Y-34290000D03*
G04 #@! TO.P,J2,b22*
G04 #@! TO.N,/2P1*
X184640000Y-34290000D03*
G04 #@! TO.P,J2,b21*
G04 #@! TO.N,/2PR*
X180680000Y-34290000D03*
G04 #@! TO.P,J2,b19*
G04 #@! TO.N,/2PD*
X172760000Y-34290000D03*
G04 #@! TO.P,J2,b20*
G04 #@! TO.N,/2PL*
X176720000Y-34290000D03*
G04 #@! TO.P,J2,b18*
G04 #@! TO.N,/2PU*
X168800000Y-34290000D03*
G04 #@! TO.P,J2,b17*
G04 #@! TO.N,/2PS*
X164840000Y-34290000D03*
G04 #@! TO.P,J2,b16*
G04 #@! TO.N,/2PC*
X160880000Y-34290000D03*
G04 #@! TO.P,J2,b15*
G04 #@! TO.N,N/C*
X156920000Y-34290000D03*
G04 #@! TO.P,J2,b14*
G04 #@! TO.N,/SVC*
X152960000Y-34290000D03*
G04 #@! TO.P,J2,b13*
G04 #@! TO.N,/CSYNC*
X149000000Y-34290000D03*
G04 #@! TO.P,J2,b12*
G04 #@! TO.N,/G*
X145040000Y-34290000D03*
G04 #@! TO.P,J2,b11*
G04 #@! TO.N,N/C*
X141080000Y-34290000D03*
G04 #@! TO.P,J2,b10*
G04 #@! TO.N,/S-*
X137120000Y-34290000D03*
G04 #@! TO.P,J2,b9*
G04 #@! TO.N,N/C*
X133160000Y-34290000D03*
G04 #@! TO.P,J2,b8*
X129200000Y-34290000D03*
G04 #@! TO.P,J2,b7*
X125240000Y-34290000D03*
G04 #@! TO.P,J2,b6*
G04 #@! TO.N,/12V*
X121280000Y-34290000D03*
G04 #@! TO.P,J2,b5*
G04 #@! TO.N,/-5V*
X117320000Y-34290000D03*
G04 #@! TD*
D18*
G04 #@! TO.P,J4,1*
G04 #@! TO.N,/TXD*
X200279000Y-53594000D03*
D19*
G04 #@! TO.P,J4,2*
G04 #@! TO.N,GND*
X200279000Y-56134000D03*
G04 #@! TD*
D20*
G04 #@! TO.P,J5,4*
G04 #@! TO.N,GND*
X97960000Y-50490000D03*
G04 #@! TO.P,J5,3*
G04 #@! TO.N,/H1_DP*
X97960000Y-47990000D03*
G04 #@! TO.P,J5,2*
G04 #@! TO.N,/H1_DM*
X97960000Y-45990000D03*
G04 #@! TO.P,J5,1*
G04 #@! TO.N,VCC*
X97960000Y-43490000D03*
D21*
G04 #@! TO.P,J5,SH*
G04 #@! TO.N,N/C*
X95250000Y-53560000D03*
X95250000Y-40420000D03*
G04 #@! TD*
G04 #@! TO.P,J6,SH*
G04 #@! TO.N,N/C*
X95250000Y-58200000D03*
X95250000Y-71340000D03*
D20*
G04 #@! TO.P,J6,1*
G04 #@! TO.N,VCC*
X97960000Y-61270000D03*
G04 #@! TO.P,J6,2*
G04 #@! TO.N,/H2_DM*
X97960000Y-63770000D03*
G04 #@! TO.P,J6,3*
G04 #@! TO.N,/H2_DP*
X97960000Y-65770000D03*
G04 #@! TO.P,J6,4*
G04 #@! TO.N,GND*
X97960000Y-68270000D03*
G04 #@! TD*
D22*
G04 #@! TO.P,J9,2*
G04 #@! TO.N,GND*
X216408000Y-71980000D03*
G04 #@! TO.P,J9,1*
X216408000Y-65180000D03*
G04 #@! TO.P,J9,3*
G04 #@! TO.N,/S_Y*
X214008000Y-65180000D03*
G04 #@! TO.P,J9,4*
G04 #@! TO.N,/S_C*
X213908000Y-71980000D03*
D23*
G04 #@! TO.P,J9,*
G04 #@! TO.N,*
X220208000Y-68580000D03*
D24*
X219408000Y-75330000D03*
X219408000Y-61830000D03*
G04 #@! TD*
D25*
G04 #@! TO.P,RV1,2*
G04 #@! TO.N,Net-(C5-Pad2)*
X159004000Y-47070000D03*
G04 #@! TO.P,RV1,3*
G04 #@! TO.N,GND*
X161504000Y-52070000D03*
G04 #@! TO.P,RV1,1*
G04 #@! TO.N,/R*
X156504000Y-52070000D03*
G04 #@! TD*
G04 #@! TO.P,RV2,1*
G04 #@! TO.N,/G*
X165394000Y-52070000D03*
G04 #@! TO.P,RV2,3*
G04 #@! TO.N,GND*
X170394000Y-52070000D03*
G04 #@! TO.P,RV2,2*
G04 #@! TO.N,Net-(C6-Pad2)*
X167894000Y-47070000D03*
G04 #@! TD*
G04 #@! TO.P,RV3,2*
G04 #@! TO.N,Net-(C7-Pad2)*
X176784000Y-47070000D03*
G04 #@! TO.P,RV3,3*
G04 #@! TO.N,GND*
X179284000Y-52070000D03*
G04 #@! TO.P,RV3,1*
G04 #@! TO.N,/B*
X174284000Y-52070000D03*
G04 #@! TD*
G04 #@! TO.P,SW1,2*
G04 #@! TO.N,GND*
X197104000Y-56824000D03*
G04 #@! TO.P,SW1,1*
G04 #@! TO.N,/BOOT*
X197104000Y-52324000D03*
G04 #@! TO.P,SW1,2*
G04 #@! TO.N,GND*
X203604000Y-56824000D03*
G04 #@! TO.P,SW1,1*
G04 #@! TO.N,/BOOT*
X203604000Y-52324000D03*
G04 #@! TD*
G04 #@! TO.P,SW2,1*
G04 #@! TO.N,/TEST*
X203604000Y-62484000D03*
G04 #@! TO.P,SW2,2*
G04 #@! TO.N,GND*
X203604000Y-66984000D03*
G04 #@! TO.P,SW2,1*
G04 #@! TO.N,/TEST*
X197104000Y-62484000D03*
G04 #@! TO.P,SW2,2*
G04 #@! TO.N,GND*
X197104000Y-66984000D03*
G04 #@! TD*
D26*
G04 #@! TO.P,Y1,1*
G04 #@! TO.N,Net-(C3-Pad1)*
X133604000Y-51562000D03*
G04 #@! TO.P,Y1,2*
G04 #@! TO.N,/SCin*
X138484000Y-51562000D03*
G04 #@! TD*
D14*
G04 #@! TO.P,C13,1*
G04 #@! TO.N,/S-*
X188468000Y-44704000D03*
D15*
G04 #@! TO.P,C13,2*
G04 #@! TO.N,Net-(C13-Pad2)*
X191968000Y-44704000D03*
G04 #@! TD*
G04 #@! TO.P,C14,2*
G04 #@! TO.N,Net-(C14-Pad2)*
X201620000Y-44704000D03*
D14*
G04 #@! TO.P,C14,1*
G04 #@! TO.N,/S+*
X198120000Y-44704000D03*
G04 #@! TD*
D18*
G04 #@! TO.P,SW3,1*
G04 #@! TO.N,N/C*
X139192000Y-44704000D03*
D19*
G04 #@! TO.P,SW3,2*
G04 #@! TO.N,/PON*
X141732000Y-44704000D03*
G04 #@! TO.P,SW3,3*
G04 #@! TO.N,GND*
X144272000Y-44704000D03*
G04 #@! TD*
G04 #@! TO.P,SW4,3*
G04 #@! TO.N,Net-(C13-Pad2)*
X208280000Y-47244000D03*
G04 #@! TO.P,SW4,2*
G04 #@! TO.N,Net-(J10-Pad1)*
X208280000Y-44704000D03*
D18*
G04 #@! TO.P,SW4,1*
G04 #@! TO.N,/VIDEO*
X208280000Y-42164000D03*
G04 #@! TD*
D27*
G04 #@! TO.P,J7,*
G04 #@! TO.N,*
X222225000Y-37240000D03*
X222225000Y-44140000D03*
D28*
G04 #@! TO.P,J7,2*
G04 #@! TO.N,GND*
X220025000Y-40640000D03*
D29*
G04 #@! TO.P,J7,1*
G04 #@! TO.N,Net-(C14-Pad2)*
X213925000Y-40640000D03*
G04 #@! TD*
D27*
G04 #@! TO.P,J10,*
G04 #@! TO.N,*
X222225000Y-49940000D03*
X222225000Y-56840000D03*
D28*
G04 #@! TO.P,J10,2*
G04 #@! TO.N,GND*
X220025000Y-53340000D03*
D29*
G04 #@! TO.P,J10,1*
G04 #@! TO.N,Net-(J10-Pad1)*
X213925000Y-53340000D03*
G04 #@! TD*
D30*
G04 #@! TO.N,GND*
X105664000Y-37592000D03*
D31*
X144045300Y-52283900D03*
X195106300Y-53422700D03*
X188362000Y-55122000D03*
X170394000Y-55552900D03*
X103713700Y-34131200D03*
D30*
X106426000Y-48260000D03*
X106426000Y-51308000D03*
X101600000Y-40894000D03*
X90678000Y-43942000D03*
X90678000Y-48768000D03*
X90678000Y-61468000D03*
X90678000Y-65278000D03*
X105410000Y-71120000D03*
X101480000Y-69596000D03*
D31*
X125730000Y-49530000D03*
X125730000Y-53340000D03*
X130302000Y-53340000D03*
X130302000Y-49530000D03*
X144045300Y-46736000D03*
X163322000Y-52324000D03*
X214884000Y-44704000D03*
X216408000Y-36576000D03*
X210940000Y-36830000D03*
X214884000Y-57142800D03*
X218948000Y-58674000D03*
X143002000Y-68735010D03*
X146558000Y-68720957D03*
D30*
G04 #@! TO.N,/S-*
X174245300Y-75984700D03*
X187114800Y-62333100D03*
X173260400Y-65158400D03*
G04 #@! TO.N,/2PC*
X173758000Y-47822600D03*
G04 #@! TO.N,/2PS*
X178687200Y-47689400D03*
G04 #@! TO.N,/2PU*
X184392300Y-52596600D03*
X142907400Y-42854200D03*
X168800000Y-41592800D03*
G04 #@! TO.N,/2PL*
X186855100Y-53647400D03*
G04 #@! TO.N,/2PD*
X185308100Y-53178400D03*
X137730600Y-42102500D03*
X171739900Y-41067500D03*
G04 #@! TO.N,/2PR*
X189754700Y-52078900D03*
G04 #@! TO.N,/2P1*
X190398400Y-51546100D03*
G04 #@! TO.N,/2P2*
X189710300Y-54311100D03*
G04 #@! TO.N,/2P3*
X192876700Y-58746700D03*
G04 #@! TO.N,/2P4*
X209811200Y-72194700D03*
X198643900Y-64258900D03*
G04 #@! TO.N,/S+*
X178637400Y-42749600D03*
X184890900Y-43529100D03*
X149951200Y-43978700D03*
D31*
G04 #@! TO.N,/VGND*
X147949900Y-41359000D03*
X155985300Y-71919700D03*
X188464600Y-71919700D03*
X190206100Y-76744700D03*
D30*
G04 #@! TO.N,/1PC*
X145947300Y-71686800D03*
X147168600Y-42005700D03*
X165921400Y-39828600D03*
X173224200Y-47233300D03*
G04 #@! TO.N,/1PS*
X147346900Y-46179100D03*
X163392700Y-34290000D03*
X164594800Y-43163500D03*
G04 #@! TO.N,/1PU*
X146676900Y-42468200D03*
G04 #@! TO.N,/1PD*
X181430100Y-49315700D03*
X158137700Y-70034000D03*
X180210078Y-70099660D03*
G04 #@! TO.N,/1PL*
X182030500Y-48881800D03*
X170136762Y-68569609D03*
X180812398Y-69183616D03*
G04 #@! TO.N,/1PR*
X181735500Y-69460100D03*
X182178400Y-48281400D03*
X169080302Y-70040386D03*
G04 #@! TO.N,/1P1*
X186170700Y-49781500D03*
X185733900Y-41694000D03*
X185799300Y-68016022D03*
X170583100Y-68016022D03*
G04 #@! TO.N,/1P2*
X187380500Y-40941500D03*
X187689200Y-49957400D03*
G04 #@! TO.N,/1P3*
X180663200Y-54622000D03*
X181088800Y-47811900D03*
G04 #@! TO.N,/1P4*
X197940500Y-39565300D03*
X200583500Y-50927900D03*
G04 #@! TO.N,/1P6*
X203178900Y-39565300D03*
X200887700Y-48130000D03*
G04 #@! TO.N,/2P6*
X205168000Y-72039300D03*
X205168000Y-39758900D03*
G04 #@! TO.N,/SVC*
X183041500Y-50946900D03*
G04 #@! TO.N,/TEST*
X186499500Y-73811900D03*
X158424100Y-34290000D03*
X183664800Y-53668800D03*
G04 #@! TO.N,/BOOT*
X192094000Y-51181800D03*
X188500100Y-54234300D03*
D31*
G04 #@! TO.N,VCC*
X192036300Y-56783000D03*
X189642200Y-56122000D03*
D30*
X109220000Y-42926000D03*
X113538000Y-42926000D03*
X116586000Y-44704000D03*
G04 #@! TO.N,/SCin*
X138643700Y-54486500D03*
G04 #@! TO.N,Net-(C9-Pad1)*
X166033100Y-60126800D03*
X162617700Y-61781100D03*
G04 #@! TO.N,Net-(C9-Pad2)*
X181711800Y-47814700D03*
G04 #@! TO.N,Net-(C10-Pad2)*
X177749000Y-70651200D03*
G04 #@! TO.N,Net-(C10-Pad1)*
X161027900Y-63095400D03*
G04 #@! TO.N,Net-(C11-Pad1)*
X159374200Y-67535800D03*
X159912200Y-71111000D03*
G04 #@! TO.N,/B*
X150485300Y-38424000D03*
G04 #@! TO.N,/R*
X145947300Y-40572600D03*
X158384669Y-53869793D03*
X169243990Y-53778895D03*
D31*
G04 #@! TO.N,/12V*
X121318800Y-39840300D03*
X119888000Y-77216000D03*
D30*
X119888000Y-74422000D03*
X120160000Y-72390000D03*
X121280000Y-74168000D03*
X123145010Y-40132000D03*
X123045400Y-41566900D03*
D31*
X123145010Y-37338000D03*
G04 #@! TO.N,/-5V*
X115858300Y-34290000D03*
X117320000Y-40740000D03*
X117320000Y-38862000D03*
X116078000Y-39116000D03*
X116748300Y-37338000D03*
D30*
G04 #@! TO.N,/CSYNC*
X160036400Y-59660300D03*
X180523200Y-56622000D03*
X180523200Y-62333100D03*
X177749000Y-62333100D03*
X173567200Y-63740900D03*
X175328500Y-77236600D03*
G04 #@! TO.N,/G*
X178141200Y-73848500D03*
G04 #@! TO.N,/H1_DM*
X164289800Y-61211500D03*
X159882256Y-53079011D03*
G04 #@! TO.N,/H2_DP*
X161256400Y-62315100D03*
X166986400Y-60698300D03*
G04 #@! TO.N,/LED*
X184392400Y-63453700D03*
X184392400Y-53215700D03*
G04 #@! TD*
D32*
G04 #@! TO.N,GND*
X220025000Y-40640000D02*
X220025000Y-38539700D01*
X220025000Y-38539700D02*
X210992700Y-38539700D01*
X210992700Y-38539700D02*
X209692100Y-39840300D01*
X209692100Y-39840300D02*
X208400000Y-39840300D01*
X220025000Y-53340000D02*
X220025000Y-40640000D01*
X208400000Y-34290000D02*
X208400000Y-39840300D01*
X216408000Y-57142800D02*
X218322500Y-57142800D01*
X218322500Y-57142800D02*
X220025000Y-55440300D01*
X209730300Y-54356000D02*
X212517100Y-57142800D01*
X212517100Y-57142800D02*
X214884000Y-57142800D01*
X216408000Y-57142800D02*
X216408000Y-63879700D01*
X220025000Y-53340000D02*
X220025000Y-55440300D01*
X216408000Y-65180000D02*
X216408000Y-63879700D01*
X208280000Y-54356000D02*
X209730300Y-54356000D01*
X203604000Y-56824000D02*
X206072000Y-54356000D01*
X206072000Y-54356000D02*
X208280000Y-54356000D01*
X144045300Y-52283900D02*
X144045300Y-46736000D01*
X144045300Y-46381000D02*
X144272000Y-46154300D01*
X144045300Y-59270000D02*
X144045300Y-52283900D01*
X144272000Y-44704000D02*
X144272000Y-46154300D01*
X142095000Y-59270000D02*
X144045300Y-59270000D01*
X133695000Y-59270000D02*
X131445300Y-59270000D01*
X129495000Y-59270000D02*
X131445300Y-59270000D01*
X100677400Y-50490000D02*
X100677400Y-40642900D01*
X100677400Y-40642900D02*
X101480000Y-39840300D01*
X102344700Y-59270000D02*
X102344700Y-52157300D01*
X102344700Y-52157300D02*
X100677400Y-50490000D01*
X100677400Y-50490000D02*
X97960000Y-50490000D01*
X101480000Y-34290000D02*
X101480000Y-39840300D01*
X104295000Y-59270000D02*
X102344700Y-59270000D01*
X101480000Y-77470000D02*
X101480000Y-71919700D01*
X97960000Y-68270000D02*
X97960000Y-68399700D01*
X97960000Y-68399700D02*
X101480000Y-71919700D01*
X195106300Y-55121600D02*
X188362400Y-55121600D01*
X188362400Y-55121600D02*
X188362000Y-55122000D01*
X195106300Y-55121600D02*
X195106300Y-53422700D01*
X195106300Y-55121600D02*
X195401600Y-55121600D01*
X195401600Y-55121600D02*
X197104000Y-56824000D01*
X170394000Y-55552900D02*
X170394000Y-53670400D01*
X170394000Y-53670400D02*
X177683600Y-53670400D01*
X177683600Y-53670400D02*
X179284000Y-52070000D01*
X170394000Y-52070000D02*
X170394000Y-53670400D01*
X103713700Y-34290000D02*
X101480000Y-34290000D01*
X105440000Y-34290000D02*
X103713700Y-34290000D01*
X103713700Y-34290000D02*
X103713700Y-34131200D01*
X101480000Y-77470000D02*
X105440000Y-77470000D01*
X197104000Y-66984000D02*
X192560000Y-71528000D01*
X192560000Y-71528000D02*
X192560000Y-77470000D01*
X216408000Y-65180000D02*
X216408000Y-71980000D01*
X203604000Y-66984000D02*
X200279000Y-63659000D01*
X200279000Y-63659000D02*
X200279000Y-56134000D01*
D33*
X125295000Y-64770000D02*
X125295000Y-59270000D01*
X125295000Y-59270000D02*
X133695000Y-59270000D01*
X133695000Y-64770000D02*
X133695000Y-59270000D01*
X142095000Y-64770000D02*
X142095000Y-59270000D01*
X144272000Y-57093000D02*
X144272000Y-44704000D01*
X142095000Y-59270000D02*
X144272000Y-57093000D01*
D34*
X170394000Y-55552900D02*
X170394000Y-52070000D01*
X177333999Y-54020001D02*
X172344001Y-54020001D01*
X171393999Y-53069999D02*
X170394000Y-52070000D01*
X172344001Y-54020001D02*
X171393999Y-53069999D01*
X179284000Y-52070000D02*
X177333999Y-54020001D01*
D32*
X144045300Y-46736000D02*
X144045300Y-46381000D01*
X214884000Y-57142800D02*
X216408000Y-57142800D01*
D35*
G04 #@! TO.N,/S-*
X188468000Y-44704000D02*
X188468000Y-53130600D01*
X188468000Y-53130600D02*
X187114800Y-54483800D01*
X187114800Y-54483800D02*
X187114800Y-62333100D01*
X174245300Y-66143300D02*
X174245300Y-75984700D01*
X159332254Y-53343013D02*
X159447400Y-53458159D01*
X146566000Y-40090700D02*
X148540500Y-40090700D01*
X159332254Y-50882454D02*
X159332254Y-53343013D01*
X138460300Y-39590300D02*
X146065600Y-39590300D01*
X172977558Y-65158400D02*
X173260400Y-65158400D01*
X148540500Y-40090700D02*
X159332254Y-50882454D01*
X161556700Y-65158400D02*
X172977558Y-65158400D01*
X159447400Y-53458159D02*
X159447400Y-63049100D01*
X137120000Y-38250000D02*
X138460300Y-39590300D01*
X137120000Y-34290000D02*
X137120000Y-38250000D01*
X173260400Y-65158400D02*
X174245300Y-66143300D01*
X159447400Y-63049100D02*
X161556700Y-65158400D01*
X146065600Y-39590300D02*
X146566000Y-40090700D01*
D36*
G04 #@! TO.N,/2PC*
X160880000Y-34290000D02*
X160880000Y-40237900D01*
X160880000Y-40237900D02*
X166386700Y-45744600D01*
X166386700Y-45744600D02*
X168500600Y-45744600D01*
X168500600Y-45744600D02*
X170578600Y-47822600D01*
X170578600Y-47822600D02*
X173758000Y-47822600D01*
G04 #@! TO.N,/2PS*
X164840000Y-34290000D02*
X166473600Y-35923600D01*
X166473600Y-35923600D02*
X166473600Y-40082300D01*
X166473600Y-40082300D02*
X171893100Y-45501800D01*
X171893100Y-45501800D02*
X177130400Y-45501800D01*
X177130400Y-45501800D02*
X178687200Y-47058600D01*
X178687200Y-47058600D02*
X178687200Y-47689400D01*
G04 #@! TO.N,/2PU*
X168800000Y-41592800D02*
X171808400Y-44601200D01*
X171808400Y-44601200D02*
X180567100Y-44601200D01*
X180567100Y-44601200D02*
X184392300Y-48426400D01*
X184392300Y-48426400D02*
X184392300Y-52596600D01*
X137120000Y-77470000D02*
X137120000Y-72194700D01*
X137120000Y-72194700D02*
X140222500Y-69092200D01*
X140222500Y-69092200D02*
X140222500Y-54814800D01*
X140222500Y-54814800D02*
X142907400Y-52129900D01*
X142907400Y-52129900D02*
X142907400Y-42854200D01*
X168800000Y-34290000D02*
X168800000Y-41592800D01*
G04 #@! TO.N,/2PL*
X186855100Y-53647400D02*
X186855100Y-41951500D01*
X186855100Y-41951500D02*
X185681500Y-40777900D01*
X185681500Y-40777900D02*
X177932600Y-40777900D01*
X177932600Y-40777900D02*
X176720000Y-39565300D01*
X176720000Y-34290000D02*
X176720000Y-39565300D01*
G04 #@! TO.N,/2PD*
X185308100Y-53178400D02*
X185308100Y-48691300D01*
X185308100Y-48691300D02*
X180767600Y-44150800D01*
X180767600Y-44150800D02*
X176863400Y-44150800D01*
X176863400Y-44150800D02*
X172760000Y-40047400D01*
X172760000Y-40047400D02*
X171739900Y-41067500D01*
X172760000Y-34290000D02*
X172760000Y-40047400D01*
X133160000Y-77470000D02*
X133160000Y-72194700D01*
X133160000Y-72194700D02*
X139570400Y-65784300D01*
X139570400Y-65784300D02*
X139570400Y-63758500D01*
X139570400Y-63758500D02*
X136219600Y-60407700D01*
X136219600Y-60407700D02*
X136219600Y-43613500D01*
X136219600Y-43613500D02*
X137730600Y-42102500D01*
G04 #@! TO.N,/2PR*
X189754700Y-52078900D02*
X189754700Y-42551700D01*
X189754700Y-42551700D02*
X187530500Y-40327500D01*
X187530500Y-40327500D02*
X181442200Y-40327500D01*
X181442200Y-40327500D02*
X180680000Y-39565300D01*
X180680000Y-34290000D02*
X180680000Y-39565300D01*
G04 #@! TO.N,/2P1*
X184640000Y-34290000D02*
X184640000Y-39565300D01*
X184640000Y-39565300D02*
X187422600Y-39565300D01*
X187422600Y-39565300D02*
X190398400Y-42541100D01*
X190398400Y-42541100D02*
X190398400Y-51546100D01*
G04 #@! TO.N,/2P2*
X188600000Y-34290000D02*
X188600000Y-39565300D01*
X189710300Y-54311100D02*
X193127100Y-50894300D01*
X193127100Y-50894300D02*
X193127100Y-44092400D01*
X193127100Y-44092400D02*
X188600000Y-39565300D01*
G04 #@! TO.N,/2P3*
X198429400Y-58746700D02*
X198429400Y-63730500D01*
X198429400Y-63730500D02*
X198118600Y-64041300D01*
X198118600Y-64041300D02*
X198118600Y-65873300D01*
X198118600Y-65873300D02*
X204440000Y-72194700D01*
X204440000Y-77470000D02*
X204440000Y-72194700D01*
X198429400Y-58746700D02*
X192876700Y-58746700D01*
X192560000Y-34290000D02*
X192560000Y-39565300D01*
X198429400Y-58746700D02*
X198429400Y-51759000D01*
X198429400Y-51759000D02*
X193875300Y-47204900D01*
X193875300Y-47204900D02*
X193875300Y-40880600D01*
X193875300Y-40880600D02*
X192560000Y-39565300D01*
G04 #@! TO.N,/2P4*
X208280000Y-64516000D02*
X209978600Y-66214600D01*
X209978600Y-66214600D02*
X209978600Y-72027300D01*
X209978600Y-72027300D02*
X209811200Y-72194700D01*
X196520000Y-34290000D02*
X196520000Y-39565300D01*
X196520000Y-39565300D02*
X196520000Y-48450500D01*
X196520000Y-48450500D02*
X198902300Y-50832800D01*
X198902300Y-50832800D02*
X198902300Y-64000500D01*
X198902300Y-64000500D02*
X198643900Y-64258900D01*
G04 #@! TO.N,/2P5*
X208280000Y-67056000D02*
X208280000Y-68231300D01*
X208280000Y-68231300D02*
X208647300Y-68231300D01*
X208647300Y-68231300D02*
X209455400Y-69039400D01*
X209455400Y-69039400D02*
X209455400Y-71139300D01*
X209455400Y-71139300D02*
X208400000Y-72194700D01*
X208280000Y-67056000D02*
X208280000Y-66831500D01*
X208400000Y-77470000D02*
X208400000Y-72194700D01*
X208280000Y-66831500D02*
X208280000Y-65880700D01*
X200480000Y-39565300D02*
X199962800Y-40082500D01*
X199962800Y-40082500D02*
X199962800Y-49494500D01*
X199962800Y-49494500D02*
X201566800Y-51098500D01*
X201566800Y-51098500D02*
X201566800Y-57480000D01*
X201566800Y-57480000D02*
X206918100Y-62831300D01*
X206918100Y-62831300D02*
X206918100Y-64830400D01*
X206918100Y-64830400D02*
X207968400Y-65880700D01*
X207968400Y-65880700D02*
X208280000Y-65880700D01*
X200480000Y-34290000D02*
X200480000Y-39565300D01*
D35*
G04 #@! TO.N,/S+*
X184890900Y-43529100D02*
X184111400Y-42749600D01*
X184111400Y-42749600D02*
X178637400Y-42749600D01*
X172760000Y-72220000D02*
X172760000Y-77470000D01*
X158947000Y-53664881D02*
X158947000Y-63261400D01*
X169747900Y-66159000D02*
X172760000Y-69171100D01*
X149951200Y-43978700D02*
X150395700Y-43978700D01*
X161844600Y-66159000D02*
X169747900Y-66159000D01*
X158832244Y-53550125D02*
X158947000Y-53664881D01*
X158947000Y-63261400D02*
X161844600Y-66159000D01*
X150395700Y-43978700D02*
X158832244Y-52415244D01*
X172760000Y-69171100D02*
X172760000Y-72220000D01*
X158832244Y-52415244D02*
X158832244Y-53550125D01*
D32*
G04 #@! TO.N,/VGND*
X190206100Y-76744700D02*
X190206100Y-72255600D01*
X190206100Y-72255600D02*
X189870200Y-71919700D01*
X189870200Y-71919700D02*
X188464600Y-71919700D01*
X155985300Y-71919700D02*
X155985300Y-60995600D01*
X155985300Y-60995600D02*
X148597500Y-53607800D01*
X148597500Y-53607800D02*
X148597500Y-42006600D01*
X148597500Y-42006600D02*
X147949900Y-41359000D01*
D36*
G04 #@! TO.N,/1PC*
X145947300Y-71686800D02*
X147970400Y-69663700D01*
X147970400Y-69663700D02*
X147970400Y-57026200D01*
X147970400Y-57026200D02*
X146123300Y-55179100D01*
X146123300Y-55179100D02*
X146123300Y-42272900D01*
X146123300Y-42272900D02*
X146469200Y-41927000D01*
X146469200Y-41927000D02*
X147089900Y-41927000D01*
X147089900Y-41927000D02*
X147168600Y-42005700D01*
X165921400Y-39828600D02*
X165921400Y-40223300D01*
X165921400Y-40223300D02*
X172931400Y-47233300D01*
X172931400Y-47233300D02*
X173224200Y-47233300D01*
G04 #@! TO.N,/1PS*
X149000000Y-77470000D02*
X149000000Y-72194700D01*
X149000000Y-72194700D02*
X148420800Y-71615500D01*
X148420800Y-71615500D02*
X148420800Y-56726200D01*
X148420800Y-56726200D02*
X147346900Y-55652300D01*
X147346900Y-55652300D02*
X147346900Y-46179100D01*
X164594800Y-43163500D02*
X163392700Y-41961400D01*
X163392700Y-41961400D02*
X163392700Y-34290000D01*
G04 #@! TO.N,/1PU*
X152960000Y-77470000D02*
X152960000Y-59017700D01*
X152960000Y-59017700D02*
X147872200Y-53929900D01*
X147872200Y-53929900D02*
X147872200Y-43663500D01*
X147872200Y-43663500D02*
X146676900Y-42468200D01*
G04 #@! TO.N,/1PD*
X158137700Y-70977000D02*
X156920000Y-72194700D01*
X158137700Y-70034000D02*
X158137700Y-70977000D01*
X156920000Y-77470000D02*
X156920000Y-72194700D01*
X181540500Y-51537700D02*
X181655300Y-51652500D01*
X181540500Y-49426100D02*
X181540500Y-51537700D01*
X181655300Y-67005800D02*
X180210078Y-68451022D01*
X180210078Y-68451022D02*
X180210078Y-69816818D01*
X181655300Y-51652500D02*
X181655300Y-67005800D01*
X181430100Y-49315700D02*
X181540500Y-49426100D01*
X180210078Y-69816818D02*
X180210078Y-70099660D01*
G04 #@! TO.N,/1PL*
X169853920Y-68569609D02*
X170136762Y-68569609D01*
X160880000Y-73510000D02*
X165820391Y-68569609D01*
X182030500Y-48881800D02*
X182030500Y-51390800D01*
X182030500Y-51390800D02*
X182105600Y-51465900D01*
X182105600Y-51465900D02*
X182105600Y-67890414D01*
X182105600Y-67890414D02*
X181012397Y-68983617D01*
X181012397Y-68983617D02*
X180812398Y-69183616D01*
X165820391Y-68569609D02*
X169853920Y-68569609D01*
X160880000Y-77470000D02*
X160880000Y-73510000D01*
G04 #@! TO.N,/1PR*
X182178400Y-48281400D02*
X182556000Y-48659000D01*
X182556000Y-48659000D02*
X182556000Y-50614400D01*
X182556000Y-50614400D02*
X182498500Y-50671900D01*
X182498500Y-50671900D02*
X182498500Y-51221900D01*
X182498500Y-51221900D02*
X182556000Y-51279400D01*
X182556000Y-51279400D02*
X182556000Y-68639600D01*
X182556000Y-68639600D02*
X181735500Y-69460100D01*
X168797460Y-70040386D02*
X169080302Y-70040386D01*
X164840000Y-73510000D02*
X168309614Y-70040386D01*
X164840000Y-77470000D02*
X164840000Y-73510000D01*
X168309614Y-70040386D02*
X168797460Y-70040386D01*
G04 #@! TO.N,/1P1*
X185833400Y-49781500D02*
X186170700Y-49781500D01*
X185733900Y-41694000D02*
X185833400Y-41793500D01*
X185833400Y-41793500D02*
X185833400Y-49781500D01*
X168800000Y-72270000D02*
X170783099Y-70286901D01*
X185833400Y-49781500D02*
X185833400Y-67699080D01*
X170783099Y-70286901D02*
X170783099Y-68216021D01*
X185833400Y-67699080D02*
X185799300Y-67733180D01*
X170783099Y-68216021D02*
X170583100Y-68016022D01*
X168800000Y-77470000D02*
X168800000Y-72270000D01*
X185799300Y-67733180D02*
X185799300Y-68016022D01*
G04 #@! TO.N,/1P2*
X187380500Y-40941500D02*
X187342600Y-40979400D01*
X187342600Y-40979400D02*
X187342600Y-49610800D01*
X187342600Y-49610800D02*
X187689200Y-49957400D01*
G04 #@! TO.N,/1P3*
X181088800Y-47811900D02*
X180454500Y-48446200D01*
X180454500Y-48446200D02*
X180454500Y-50079800D01*
X180454500Y-50079800D02*
X180639900Y-50265200D01*
X180639900Y-50265200D02*
X180639900Y-54598700D01*
X180639900Y-54598700D02*
X180663200Y-54622000D01*
G04 #@! TO.N,/1P4*
X197940500Y-39565300D02*
X199456200Y-41081000D01*
X199456200Y-41081000D02*
X199456200Y-49800600D01*
X199456200Y-49800600D02*
X200583500Y-50927900D01*
G04 #@! TO.N,/1P6*
X203178900Y-39565300D02*
X200469300Y-42274900D01*
X200469300Y-42274900D02*
X200469300Y-47711600D01*
X200469300Y-47711600D02*
X200887700Y-48130000D01*
X208280000Y-61976000D02*
X206813100Y-61976000D01*
X206813100Y-61976000D02*
X202278600Y-57441500D01*
X202278600Y-57441500D02*
X202278600Y-49520900D01*
X202278600Y-49520900D02*
X200887700Y-48130000D01*
G04 #@! TO.N,/2P6*
X208280000Y-69596000D02*
X207104700Y-69596000D01*
X207104700Y-69596000D02*
X207104700Y-70102600D01*
X207104700Y-70102600D02*
X205168000Y-72039300D01*
X204440000Y-34290000D02*
X204440000Y-39565300D01*
X205168000Y-39758900D02*
X204974400Y-39565300D01*
X204974400Y-39565300D02*
X204440000Y-39565300D01*
G04 #@! TO.N,/SVC*
X152960000Y-39565300D02*
X155757800Y-39565300D01*
X155757800Y-39565300D02*
X165038200Y-48845700D01*
X165038200Y-48845700D02*
X179029700Y-48845700D01*
X179029700Y-48845700D02*
X180588900Y-47286500D01*
X180588900Y-47286500D02*
X181926700Y-47286500D01*
X181926700Y-47286500D02*
X183041500Y-48401300D01*
X183041500Y-48401300D02*
X183041500Y-50946900D01*
X183041500Y-50946900D02*
X183041500Y-69194100D01*
X183041500Y-69194100D02*
X185955400Y-72108000D01*
X185955400Y-72108000D02*
X185955400Y-74825400D01*
X185955400Y-74825400D02*
X188600000Y-77470000D01*
X152960000Y-34290000D02*
X152960000Y-39565300D01*
G04 #@! TO.N,/TEST*
X197104000Y-62484000D02*
X190476400Y-69111600D01*
X190476400Y-69111600D02*
X186499500Y-69111600D01*
X186499500Y-69111600D02*
X186499500Y-73811900D01*
X158424100Y-34290000D02*
X158424100Y-39535100D01*
X158424100Y-39535100D02*
X167284300Y-48395300D01*
X167284300Y-48395300D02*
X178808600Y-48395300D01*
X178808600Y-48395300D02*
X180375800Y-46828100D01*
X180375800Y-46828100D02*
X182105200Y-46828100D01*
X182105200Y-46828100D02*
X183664800Y-48387700D01*
X183664800Y-48387700D02*
X183664800Y-53668800D01*
X186117874Y-69111600D02*
X183664800Y-66658526D01*
X183664800Y-66658526D02*
X183664800Y-53951642D01*
X183664800Y-53951642D02*
X183664800Y-53668800D01*
X186499500Y-69111600D02*
X186117874Y-69111600D01*
G04 #@! TO.N,/BOOT*
X188500100Y-54234300D02*
X191552600Y-51181800D01*
X191552600Y-51181800D02*
X192094000Y-51181800D01*
D32*
G04 #@! TO.N,VCC*
X105147600Y-61520400D02*
X98210400Y-61520400D01*
X98210400Y-61520400D02*
X97960000Y-61270000D01*
X106544700Y-59270000D02*
X106544700Y-60123300D01*
X106544700Y-60123300D02*
X105147600Y-61520400D01*
X105147600Y-61520400D02*
X106245400Y-62618200D01*
X106245400Y-62618200D02*
X106245400Y-68765100D01*
X106245400Y-68765100D02*
X109400000Y-71919700D01*
X109400000Y-77470000D02*
X109400000Y-71919700D01*
X108495000Y-59270000D02*
X106544700Y-59270000D01*
X109220100Y-59270000D02*
X108495000Y-59270000D01*
X109220100Y-59270000D02*
X110445300Y-59270000D01*
X189642200Y-56783000D02*
X192036300Y-56783000D01*
X189611000Y-64516000D02*
X189611000Y-56814200D01*
X189611000Y-56814200D02*
X189642200Y-56783000D01*
X189642200Y-56783000D02*
X189642200Y-56122000D01*
X129200000Y-77470000D02*
X129200000Y-71919700D01*
X129200000Y-77470000D02*
X125240000Y-77470000D01*
X129495000Y-67020400D02*
X129495000Y-71624700D01*
X129495000Y-71624700D02*
X129200000Y-71919700D01*
X110445300Y-34290000D02*
X109400000Y-34290000D01*
X113360000Y-34290000D02*
X110445300Y-34290000D01*
X110445300Y-34290000D02*
X110445300Y-59270000D01*
X110445300Y-59270000D02*
X112695000Y-59270000D01*
X137895000Y-64770000D02*
X135944700Y-64770000D01*
X97960000Y-61270000D02*
X97960000Y-57709200D01*
X97960000Y-57709200D02*
X96200400Y-55949600D01*
X96200400Y-55949600D02*
X94399900Y-55949600D01*
X94399900Y-55949600D02*
X92999600Y-54549300D01*
X92999600Y-54549300D02*
X92999600Y-48450400D01*
X92999600Y-48450400D02*
X97960000Y-43490000D01*
X109400000Y-77470000D02*
X113360000Y-77470000D01*
X135944700Y-64770000D02*
X135944700Y-65623300D01*
X135944700Y-65623300D02*
X134547600Y-67020400D01*
X134547600Y-67020400D02*
X129495000Y-67020400D01*
X129495000Y-64770000D02*
X129495000Y-67020400D01*
D36*
G04 #@! TO.N,/SCin*
X138484000Y-51562000D02*
X138484000Y-54326800D01*
X138484000Y-54326800D02*
X138643700Y-54486500D01*
G04 #@! TO.N,Net-(C9-Pad1)*
X166033100Y-60126800D02*
X166033100Y-60230200D01*
X166033100Y-60230200D02*
X164482200Y-61781100D01*
X164482200Y-61781100D02*
X162617700Y-61781100D01*
G04 #@! TO.N,Net-(C9-Pad2)*
X177506000Y-57658000D02*
X177506000Y-57657900D01*
X177506000Y-57657900D02*
X178382300Y-57657900D01*
X178382300Y-57657900D02*
X181188600Y-54851600D01*
X181188600Y-54851600D02*
X181188600Y-51822700D01*
X181188600Y-51822700D02*
X181090200Y-51724300D01*
X181090200Y-51724300D02*
X181090200Y-49881700D01*
X181090200Y-49881700D02*
X180904800Y-49696300D01*
X180904800Y-49696300D02*
X180904800Y-48812100D01*
X180904800Y-48812100D02*
X181711800Y-48005100D01*
X181711800Y-48005100D02*
X181711800Y-47814700D01*
G04 #@! TO.N,Net-(C10-Pad2)*
X177506000Y-64008000D02*
X177749000Y-64251000D01*
X177749000Y-64251000D02*
X177749000Y-70651200D01*
G04 #@! TO.N,Net-(C10-Pad1)*
X175006000Y-64008000D02*
X174093400Y-63095400D01*
X174093400Y-63095400D02*
X161027900Y-63095400D01*
G04 #@! TO.N,Net-(C11-Pad1)*
X159374200Y-67535800D02*
X159912200Y-68073800D01*
X159912200Y-68073800D02*
X159912200Y-71111000D01*
D35*
G04 #@! TO.N,/B*
X169026900Y-50719600D02*
X167993000Y-49685700D01*
X167993000Y-49685700D02*
X163579800Y-49685700D01*
X163579800Y-49685700D02*
X153952700Y-40058600D01*
X153952700Y-40058600D02*
X152119900Y-40058600D01*
X152119900Y-40058600D02*
X150485300Y-38424000D01*
X169026900Y-50719600D02*
X172933600Y-50719600D01*
X172933600Y-50719600D02*
X174284000Y-52070000D01*
X168693988Y-56115660D02*
X173250728Y-60672400D01*
X169026900Y-50719600D02*
X168693988Y-51052512D01*
X178722300Y-76757700D02*
X178010000Y-77470000D01*
X173250728Y-60672400D02*
X176929300Y-60672400D01*
X176929300Y-60672400D02*
X178722300Y-62465400D01*
X168693988Y-51052512D02*
X168693988Y-56115660D01*
X178722300Y-62465400D02*
X178722300Y-76757700D01*
X178010000Y-77470000D02*
X176720000Y-77470000D01*
G04 #@! TO.N,/R*
X156504000Y-52070000D02*
X149400800Y-44966800D01*
X149400800Y-44966800D02*
X149400800Y-41731500D01*
X149400800Y-41731500D02*
X148260400Y-40591100D01*
X148260400Y-40591100D02*
X145965800Y-40591100D01*
X145965800Y-40591100D02*
X145947300Y-40572600D01*
X156504000Y-52070000D02*
X158303793Y-53869793D01*
X158303793Y-53869793D02*
X158384669Y-53869793D01*
X179390000Y-72220000D02*
X179390000Y-62423900D01*
X169243990Y-54061737D02*
X169243990Y-53778895D01*
X180680000Y-77470000D02*
X180680000Y-73510000D01*
X169243990Y-55958540D02*
X169243990Y-54061737D01*
X180680000Y-73510000D02*
X179390000Y-72220000D01*
X173457450Y-60172000D02*
X169243990Y-55958540D01*
X179390000Y-62423900D02*
X177138100Y-60172000D01*
X177138100Y-60172000D02*
X173457450Y-60172000D01*
D32*
G04 #@! TO.N,/12V*
X121280000Y-77470000D02*
X121280000Y-74168000D01*
X119118200Y-62502900D02*
X116081300Y-62502900D01*
X116081300Y-62502900D02*
X114645300Y-63938900D01*
X114645300Y-63938900D02*
X114645300Y-64770000D01*
X121318800Y-39840300D02*
X123045400Y-41566900D01*
X123045400Y-41566900D02*
X123045400Y-60423500D01*
X123045400Y-60423500D02*
X120966000Y-62502900D01*
X120966000Y-62502900D02*
X119118200Y-62502900D01*
X121280000Y-39840300D02*
X121318800Y-39840300D01*
X121280000Y-34290000D02*
X121280000Y-39840300D01*
D37*
X121280000Y-40240000D02*
X121280000Y-34290000D01*
X121944141Y-61620010D02*
X123145010Y-60419141D01*
X115544990Y-61620010D02*
X121944141Y-61620010D01*
X123145010Y-42105010D02*
X121280000Y-40240000D01*
X112695000Y-64470000D02*
X115544990Y-61620010D01*
X112695000Y-64770000D02*
X112695000Y-64470000D01*
X115045000Y-62120000D02*
X112695000Y-64470000D01*
X123145010Y-60419141D02*
X121444151Y-62120000D01*
X115570000Y-62120000D02*
X115045000Y-62120000D01*
X121444151Y-62120000D02*
X115570000Y-62120000D01*
X115570000Y-62120000D02*
X115570000Y-62738000D01*
X113538000Y-64770000D02*
X112695000Y-64770000D01*
X115570000Y-62738000D02*
X113538000Y-64770000D01*
X112695000Y-64770000D02*
X108495000Y-64770000D01*
D34*
X121280000Y-73655000D02*
X121280000Y-77470000D01*
X112695000Y-64770000D02*
X112695000Y-65070000D01*
X108495000Y-64770000D02*
X114300000Y-64770000D01*
D32*
X114300000Y-64770000D02*
X114645300Y-64770000D01*
X112695000Y-64770000D02*
X114300000Y-64770000D01*
D34*
X121280000Y-73510000D02*
X121280000Y-77470000D01*
X114300000Y-66530000D02*
X120160000Y-72390000D01*
X114300000Y-64770000D02*
X114300000Y-66530000D01*
X121280000Y-34290000D02*
X121280000Y-38250000D01*
X123145010Y-40115010D02*
X123145010Y-40132000D01*
X121280000Y-38250000D02*
X123145010Y-40115010D01*
D37*
X123145010Y-56896000D02*
X123145010Y-42105010D01*
X123145010Y-60419141D02*
X123145010Y-56896000D01*
D34*
X119888000Y-72263000D02*
X119888000Y-74422000D01*
X112695000Y-65070000D02*
X119888000Y-72263000D01*
X119888000Y-72263000D02*
X121280000Y-73655000D01*
X121060010Y-77689990D02*
X121280000Y-77470000D01*
X119888000Y-77689990D02*
X121060010Y-77689990D01*
X119888000Y-74422000D02*
X119888000Y-77689990D01*
X120160000Y-72390000D02*
X121280000Y-73510000D01*
D32*
X121280000Y-74168000D02*
X121280000Y-73848500D01*
D34*
X123145010Y-40132000D02*
X123145010Y-56896000D01*
D32*
X123045400Y-41566900D02*
X123045400Y-41566900D01*
G04 #@! TO.N,/-5V*
X117320000Y-37909700D02*
X116748300Y-37338000D01*
X115858300Y-36448000D02*
X115858300Y-34290000D01*
X117320000Y-37909700D02*
X117320000Y-38862000D01*
X117320000Y-34290000D02*
X117320000Y-37909700D01*
X121095000Y-59270000D02*
X119144700Y-59270000D01*
X117320000Y-39840300D02*
X117320000Y-40740000D01*
D34*
X121095000Y-59270000D02*
X120230000Y-59270000D01*
X120230000Y-59270000D02*
X119634000Y-58674000D01*
X117320000Y-40740000D02*
X117320000Y-34290000D01*
X119634000Y-43054000D02*
X117320000Y-40740000D01*
X119634000Y-58674000D02*
X119634000Y-43054000D01*
X117320000Y-39088000D02*
X121095000Y-42863000D01*
X121095000Y-42863000D02*
X121095000Y-59270000D01*
X117320000Y-34290000D02*
X117320000Y-39088000D01*
D32*
X117320000Y-40740000D02*
X119144700Y-41665000D01*
X117320000Y-38862000D02*
X117320000Y-39840300D01*
X116748300Y-37338000D02*
X115858300Y-36448000D01*
D34*
X117320000Y-34290000D02*
X115858300Y-34290000D01*
X115858300Y-40401600D02*
X119144700Y-43688000D01*
D32*
X119144700Y-43688000D02*
X119144700Y-59270000D01*
D34*
X115858300Y-34290000D02*
X115858300Y-40401600D01*
D32*
X119144700Y-41665000D02*
X119144700Y-43688000D01*
D35*
G04 #@! TO.N,/CSYNC*
X173567200Y-63740900D02*
X173840100Y-64013800D01*
X173840100Y-64013800D02*
X173840100Y-64984200D01*
X173840100Y-64984200D02*
X175328500Y-66472600D01*
X175328500Y-66472600D02*
X175328500Y-77236600D01*
X173567200Y-63740900D02*
X160895000Y-63740900D01*
X160895000Y-63740900D02*
X160036400Y-62882300D01*
X160036400Y-62882300D02*
X160036400Y-59660300D01*
X180523200Y-56622000D02*
X180523200Y-62333100D01*
X160210200Y-50186100D02*
X165435400Y-50186100D01*
X173408006Y-61536800D02*
X176952700Y-61536800D01*
X165435400Y-50186100D02*
X168193978Y-52944678D01*
X149000000Y-34290000D02*
X149000000Y-38250000D01*
X149000000Y-38250000D02*
X150290000Y-39540000D01*
X150290000Y-39540000D02*
X150290000Y-40265900D01*
X176952700Y-61536800D02*
X177549001Y-62133101D01*
X150290000Y-40265900D02*
X160210200Y-50186100D01*
X168193978Y-52944678D02*
X168193978Y-56322772D01*
X168193978Y-56322772D02*
X173408006Y-61536800D01*
X177549001Y-62133101D02*
X177749000Y-62333100D01*
G04 #@! TO.N,/G*
X165394000Y-52070000D02*
X164010400Y-50686400D01*
X164010400Y-50686400D02*
X159909600Y-50686400D01*
X159909600Y-50686400D02*
X148813600Y-39590400D01*
X148813600Y-39590400D02*
X147844000Y-39590400D01*
X147844000Y-39590400D02*
X145040100Y-36786500D01*
X145040100Y-36786500D02*
X145040100Y-34290000D01*
X145040100Y-34290000D02*
X145040000Y-34290000D01*
X178141200Y-71842800D02*
X178141200Y-73565658D01*
X175178300Y-62037200D02*
X176156400Y-63015300D01*
X176156400Y-63015300D02*
X176156400Y-69858000D01*
X176156400Y-69858000D02*
X178141200Y-71842800D01*
X178141200Y-73565658D02*
X178141200Y-73848500D01*
X165394000Y-54229916D02*
X173201284Y-62037200D01*
X173201284Y-62037200D02*
X175178300Y-62037200D01*
X165394000Y-52070000D02*
X165394000Y-54229916D01*
D36*
G04 #@! TO.N,/H1_DM*
X160082255Y-53279010D02*
X159882256Y-53079011D01*
X164289800Y-61211500D02*
X164289800Y-57486555D01*
X164289800Y-57486555D02*
X160082255Y-53279010D01*
G04 #@! TO.N,/H2_DP*
X166986400Y-60698300D02*
X165369600Y-62315100D01*
X165369600Y-62315100D02*
X161256400Y-62315100D01*
G04 #@! TO.N,/LED*
X184392400Y-63453700D02*
X184392400Y-53215700D01*
G04 #@! TO.N,Net-(C14-Pad2)*
X213925000Y-40640000D02*
X205684000Y-40640000D01*
X205684000Y-40640000D02*
X201620000Y-44704000D01*
G04 #@! TO.N,/PON*
X141732000Y-44704000D02*
X141732000Y-45879300D01*
X137895000Y-59270000D02*
X139570300Y-59270000D01*
X139570300Y-59270000D02*
X139570300Y-48041000D01*
X139570300Y-48041000D02*
X141732000Y-45879300D01*
G04 #@! TO.N,Net-(J10-Pad1)*
X208280000Y-44704000D02*
X208280000Y-45879300D01*
X213925000Y-53340000D02*
X213925000Y-51157000D01*
X213925000Y-51157000D02*
X208647300Y-45879300D01*
X208647300Y-45879300D02*
X208280000Y-45879300D01*
G04 #@! TD*
D38*
G04 #@! TO.N,VCC*
G36*
X111263895Y-66501105D02*
X111920492Y-66939829D01*
X112695000Y-67093888D01*
X112749385Y-67083070D01*
X117538874Y-71872560D01*
X116330000Y-71872560D01*
X116082235Y-71921843D01*
X115872191Y-72062191D01*
X115731843Y-72272235D01*
X115682560Y-72520000D01*
X115682560Y-77343000D01*
X108077000Y-77343000D01*
X108077000Y-67010743D01*
X108495000Y-67093888D01*
X109269507Y-66939829D01*
X109926105Y-66501105D01*
X110157365Y-66155000D01*
X111032635Y-66155000D01*
X111263895Y-66501105D01*
X111263895Y-66501105D01*
G37*
X111263895Y-66501105D02*
X111920492Y-66939829D01*
X112695000Y-67093888D01*
X112749385Y-67083070D01*
X117538874Y-71872560D01*
X116330000Y-71872560D01*
X116082235Y-71921843D01*
X115872191Y-72062191D01*
X115731843Y-72272235D01*
X115682560Y-72520000D01*
X115682560Y-77343000D01*
X108077000Y-77343000D01*
X108077000Y-67010743D01*
X108495000Y-67093888D01*
X109269507Y-66939829D01*
X109926105Y-66501105D01*
X110157365Y-66155000D01*
X111032635Y-66155000D01*
X111263895Y-66501105D01*
G36*
X128063895Y-61001105D02*
X128720492Y-61439829D01*
X129495000Y-61593888D01*
X130269507Y-61439829D01*
X130926105Y-61001105D01*
X130990320Y-60905000D01*
X132060001Y-60905000D01*
X132060000Y-63344046D01*
X131825171Y-63695492D01*
X131710000Y-64274497D01*
X131710000Y-65265502D01*
X131825171Y-65844507D01*
X131870936Y-65913000D01*
X130810000Y-65913000D01*
X130761399Y-65922667D01*
X130720197Y-65950197D01*
X130692667Y-65991399D01*
X130683000Y-66040000D01*
X130683000Y-77343000D01*
X122917440Y-77343000D01*
X122917440Y-72520000D01*
X122868157Y-72272235D01*
X122727809Y-72062191D01*
X122517765Y-71921843D01*
X122270000Y-71872560D01*
X121601245Y-71872560D01*
X116804589Y-67075904D01*
X116895000Y-67093888D01*
X117669507Y-66939829D01*
X118326105Y-66501105D01*
X118764829Y-65844508D01*
X118880000Y-65265503D01*
X118880000Y-64274498D01*
X118764829Y-63695492D01*
X118659529Y-63537900D01*
X119330471Y-63537900D01*
X119225171Y-63695492D01*
X119110000Y-64274497D01*
X119110000Y-65265502D01*
X119225171Y-65844507D01*
X119663895Y-66501105D01*
X120320492Y-66939829D01*
X121095000Y-67093888D01*
X121869507Y-66939829D01*
X122526105Y-66501105D01*
X122964829Y-65844508D01*
X123080000Y-65265503D01*
X123080000Y-64274498D01*
X122964829Y-63695492D01*
X122526105Y-63038895D01*
X122297348Y-62886045D01*
X122325764Y-62843518D01*
X122667660Y-62501622D01*
X122762430Y-62438299D01*
X122825753Y-62343529D01*
X123660001Y-61509282D01*
X123660000Y-63344046D01*
X123425171Y-63695492D01*
X123310000Y-64274497D01*
X123310000Y-65265502D01*
X123425171Y-65844507D01*
X123863895Y-66501105D01*
X124520492Y-66939829D01*
X125295000Y-67093888D01*
X126069507Y-66939829D01*
X126726105Y-66501105D01*
X127164829Y-65844508D01*
X127280000Y-65265503D01*
X127280000Y-64274498D01*
X127164829Y-63695492D01*
X126930000Y-63344045D01*
X126930000Y-60905000D01*
X127999680Y-60905000D01*
X128063895Y-61001105D01*
X128063895Y-61001105D01*
G37*
X128063895Y-61001105D02*
X128720492Y-61439829D01*
X129495000Y-61593888D01*
X130269507Y-61439829D01*
X130926105Y-61001105D01*
X130990320Y-60905000D01*
X132060001Y-60905000D01*
X132060000Y-63344046D01*
X131825171Y-63695492D01*
X131710000Y-64274497D01*
X131710000Y-65265502D01*
X131825171Y-65844507D01*
X131870936Y-65913000D01*
X130810000Y-65913000D01*
X130761399Y-65922667D01*
X130720197Y-65950197D01*
X130692667Y-65991399D01*
X130683000Y-66040000D01*
X130683000Y-77343000D01*
X122917440Y-77343000D01*
X122917440Y-72520000D01*
X122868157Y-72272235D01*
X122727809Y-72062191D01*
X122517765Y-71921843D01*
X122270000Y-71872560D01*
X121601245Y-71872560D01*
X116804589Y-67075904D01*
X116895000Y-67093888D01*
X117669507Y-66939829D01*
X118326105Y-66501105D01*
X118764829Y-65844508D01*
X118880000Y-65265503D01*
X118880000Y-64274498D01*
X118764829Y-63695492D01*
X118659529Y-63537900D01*
X119330471Y-63537900D01*
X119225171Y-63695492D01*
X119110000Y-64274497D01*
X119110000Y-65265502D01*
X119225171Y-65844507D01*
X119663895Y-66501105D01*
X120320492Y-66939829D01*
X121095000Y-67093888D01*
X121869507Y-66939829D01*
X122526105Y-66501105D01*
X122964829Y-65844508D01*
X123080000Y-65265503D01*
X123080000Y-64274498D01*
X122964829Y-63695492D01*
X122526105Y-63038895D01*
X122297348Y-62886045D01*
X122325764Y-62843518D01*
X122667660Y-62501622D01*
X122762430Y-62438299D01*
X122825753Y-62343529D01*
X123660001Y-61509282D01*
X123660000Y-63344046D01*
X123425171Y-63695492D01*
X123310000Y-64274497D01*
X123310000Y-65265502D01*
X123425171Y-65844507D01*
X123863895Y-66501105D01*
X124520492Y-66939829D01*
X125295000Y-67093888D01*
X126069507Y-66939829D01*
X126726105Y-66501105D01*
X127164829Y-65844508D01*
X127280000Y-65265503D01*
X127280000Y-64274498D01*
X127164829Y-63695492D01*
X126930000Y-63344045D01*
X126930000Y-60905000D01*
X127999680Y-60905000D01*
X128063895Y-61001105D01*
G36*
X135503696Y-60704236D02*
X135671671Y-60955629D01*
X135735130Y-60998031D01*
X138810401Y-64073303D01*
X138810400Y-65469498D01*
X138366898Y-65913000D01*
X135519064Y-65913000D01*
X135564829Y-65844508D01*
X135680000Y-65265503D01*
X135680000Y-64274498D01*
X135564829Y-63695492D01*
X135330000Y-63344045D01*
X135330000Y-60695955D01*
X135462580Y-60497534D01*
X135503696Y-60704236D01*
X135503696Y-60704236D01*
G37*
X135503696Y-60704236D02*
X135671671Y-60955629D01*
X135735130Y-60998031D01*
X138810401Y-64073303D01*
X138810400Y-65469498D01*
X138366898Y-65913000D01*
X135519064Y-65913000D01*
X135564829Y-65844508D01*
X135680000Y-65265503D01*
X135680000Y-64274498D01*
X135564829Y-63695492D01*
X135330000Y-63344045D01*
X135330000Y-60695955D01*
X135462580Y-60497534D01*
X135503696Y-60704236D01*
G36*
X114473300Y-34426407D02*
X114473301Y-40265188D01*
X114446167Y-40401600D01*
X114553659Y-40941999D01*
X114782503Y-41284488D01*
X114859772Y-41400129D01*
X114975413Y-41477398D01*
X115451686Y-41953671D01*
X115452667Y-41958601D01*
X115480197Y-41999803D01*
X117983000Y-44502606D01*
X117983000Y-57150000D01*
X117992667Y-57198601D01*
X118020197Y-57239803D01*
X118061399Y-57267333D01*
X118109701Y-57276941D01*
X118109701Y-59168060D01*
X118089424Y-59270000D01*
X118169752Y-59673837D01*
X118398507Y-60016193D01*
X118740863Y-60244948D01*
X119042765Y-60305000D01*
X119042766Y-60305000D01*
X119144700Y-60325276D01*
X119218429Y-60310611D01*
X119225171Y-60344507D01*
X119319052Y-60485010D01*
X115656773Y-60485010D01*
X115544990Y-60462775D01*
X115433207Y-60485010D01*
X115102135Y-60550864D01*
X114726701Y-60801721D01*
X114663381Y-60896486D01*
X114321477Y-61238390D01*
X114226711Y-61301711D01*
X114163390Y-61396477D01*
X113044280Y-62515588D01*
X112695000Y-62446112D01*
X111920493Y-62600171D01*
X111263896Y-63038895D01*
X111032636Y-63385000D01*
X110157365Y-63385000D01*
X109926105Y-63038895D01*
X109269508Y-62600171D01*
X108495000Y-62446112D01*
X108077000Y-62529257D01*
X108077000Y-34417000D01*
X114471429Y-34417000D01*
X114473300Y-34426407D01*
X114473300Y-34426407D01*
G37*
X114473300Y-34426407D02*
X114473301Y-40265188D01*
X114446167Y-40401600D01*
X114553659Y-40941999D01*
X114782503Y-41284488D01*
X114859772Y-41400129D01*
X114975413Y-41477398D01*
X115451686Y-41953671D01*
X115452667Y-41958601D01*
X115480197Y-41999803D01*
X117983000Y-44502606D01*
X117983000Y-57150000D01*
X117992667Y-57198601D01*
X118020197Y-57239803D01*
X118061399Y-57267333D01*
X118109701Y-57276941D01*
X118109701Y-59168060D01*
X118089424Y-59270000D01*
X118169752Y-59673837D01*
X118398507Y-60016193D01*
X118740863Y-60244948D01*
X119042765Y-60305000D01*
X119042766Y-60305000D01*
X119144700Y-60325276D01*
X119218429Y-60310611D01*
X119225171Y-60344507D01*
X119319052Y-60485010D01*
X115656773Y-60485010D01*
X115544990Y-60462775D01*
X115433207Y-60485010D01*
X115102135Y-60550864D01*
X114726701Y-60801721D01*
X114663381Y-60896486D01*
X114321477Y-61238390D01*
X114226711Y-61301711D01*
X114163390Y-61396477D01*
X113044280Y-62515588D01*
X112695000Y-62446112D01*
X111920493Y-62600171D01*
X111263896Y-63038895D01*
X111032636Y-63385000D01*
X110157365Y-63385000D01*
X109926105Y-63038895D01*
X109269508Y-62600171D01*
X108495000Y-62446112D01*
X108077000Y-62529257D01*
X108077000Y-34417000D01*
X114471429Y-34417000D01*
X114473300Y-34426407D01*
G04 #@! TO.N,GND*
G36*
X107315000Y-71298411D02*
X107315000Y-77343000D01*
X106807000Y-77343000D01*
X106807000Y-70790410D01*
X107315000Y-71298411D01*
X107315000Y-71298411D01*
G37*
X107315000Y-71298411D02*
X107315000Y-77343000D01*
X106807000Y-77343000D01*
X106807000Y-70790410D01*
X107315000Y-71298411D01*
G36*
X196778778Y-64119000D02*
X197358600Y-64119000D01*
X197358601Y-65798448D01*
X197343712Y-65873300D01*
X197358601Y-65948152D01*
X197382546Y-66068529D01*
X197402697Y-66169837D01*
X197516461Y-66340096D01*
X197570672Y-66421229D01*
X197634128Y-66463629D01*
X203136359Y-71965861D01*
X202992191Y-72062191D01*
X202851843Y-72272235D01*
X202802560Y-72520000D01*
X202802560Y-77343000D01*
X202117440Y-77343000D01*
X202117440Y-72520000D01*
X202068157Y-72272235D01*
X201927809Y-72062191D01*
X201717765Y-71921843D01*
X201470000Y-71872560D01*
X199490000Y-71872560D01*
X199242235Y-71921843D01*
X199032191Y-72062191D01*
X198891843Y-72272235D01*
X198842560Y-72520000D01*
X198842560Y-77343000D01*
X198157440Y-77343000D01*
X198157440Y-72520000D01*
X198108157Y-72272235D01*
X197967809Y-72062191D01*
X197757765Y-71921843D01*
X197510000Y-71872560D01*
X195530000Y-71872560D01*
X195282235Y-71921843D01*
X195072191Y-72062191D01*
X194931843Y-72272235D01*
X194882560Y-72520000D01*
X194882560Y-77343000D01*
X191051112Y-77343000D01*
X191181048Y-77148537D01*
X191241100Y-76846635D01*
X191241100Y-72357532D01*
X191261376Y-72255599D01*
X191238916Y-72142685D01*
X191181048Y-71851763D01*
X190952293Y-71509407D01*
X190865873Y-71451663D01*
X190674137Y-71259927D01*
X190616393Y-71173507D01*
X190274037Y-70944752D01*
X189972135Y-70884700D01*
X189972134Y-70884700D01*
X189870200Y-70864424D01*
X189768266Y-70884700D01*
X188362665Y-70884700D01*
X188060763Y-70944752D01*
X187718407Y-71173507D01*
X187489652Y-71515863D01*
X187410820Y-71912179D01*
X187362235Y-71921843D01*
X187259500Y-71990489D01*
X187259500Y-69871600D01*
X190401553Y-69871600D01*
X190476400Y-69886488D01*
X190551247Y-69871600D01*
X190551252Y-69871600D01*
X190772937Y-69827504D01*
X191024329Y-69659529D01*
X191066731Y-69596070D01*
X196612625Y-64050177D01*
X196778778Y-64119000D01*
X196778778Y-64119000D01*
G37*
X196778778Y-64119000D02*
X197358600Y-64119000D01*
X197358601Y-65798448D01*
X197343712Y-65873300D01*
X197358601Y-65948152D01*
X197382546Y-66068529D01*
X197402697Y-66169837D01*
X197516461Y-66340096D01*
X197570672Y-66421229D01*
X197634128Y-66463629D01*
X203136359Y-71965861D01*
X202992191Y-72062191D01*
X202851843Y-72272235D01*
X202802560Y-72520000D01*
X202802560Y-77343000D01*
X202117440Y-77343000D01*
X202117440Y-72520000D01*
X202068157Y-72272235D01*
X201927809Y-72062191D01*
X201717765Y-71921843D01*
X201470000Y-71872560D01*
X199490000Y-71872560D01*
X199242235Y-71921843D01*
X199032191Y-72062191D01*
X198891843Y-72272235D01*
X198842560Y-72520000D01*
X198842560Y-77343000D01*
X198157440Y-77343000D01*
X198157440Y-72520000D01*
X198108157Y-72272235D01*
X197967809Y-72062191D01*
X197757765Y-71921843D01*
X197510000Y-71872560D01*
X195530000Y-71872560D01*
X195282235Y-71921843D01*
X195072191Y-72062191D01*
X194931843Y-72272235D01*
X194882560Y-72520000D01*
X194882560Y-77343000D01*
X191051112Y-77343000D01*
X191181048Y-77148537D01*
X191241100Y-76846635D01*
X191241100Y-72357532D01*
X191261376Y-72255599D01*
X191238916Y-72142685D01*
X191181048Y-71851763D01*
X190952293Y-71509407D01*
X190865873Y-71451663D01*
X190674137Y-71259927D01*
X190616393Y-71173507D01*
X190274037Y-70944752D01*
X189972135Y-70884700D01*
X189972134Y-70884700D01*
X189870200Y-70864424D01*
X189768266Y-70884700D01*
X188362665Y-70884700D01*
X188060763Y-70944752D01*
X187718407Y-71173507D01*
X187489652Y-71515863D01*
X187410820Y-71912179D01*
X187362235Y-71921843D01*
X187259500Y-71990489D01*
X187259500Y-69871600D01*
X190401553Y-69871600D01*
X190476400Y-69886488D01*
X190551247Y-69871600D01*
X190551252Y-69871600D01*
X190772937Y-69827504D01*
X191024329Y-69659529D01*
X191066731Y-69596070D01*
X196612625Y-64050177D01*
X196778778Y-64119000D01*
G36*
X127562560Y-39240000D02*
X127611843Y-39487765D01*
X127752191Y-39697809D01*
X127962235Y-39838157D01*
X128210000Y-39887440D01*
X130190000Y-39887440D01*
X130437765Y-39838157D01*
X130647809Y-39697809D01*
X130788157Y-39487765D01*
X130837440Y-39240000D01*
X130837440Y-34417000D01*
X131522560Y-34417000D01*
X131522560Y-39240000D01*
X131571843Y-39487765D01*
X131712191Y-39697809D01*
X131922235Y-39838157D01*
X132170000Y-39887440D01*
X134150000Y-39887440D01*
X134397765Y-39838157D01*
X134607809Y-39697809D01*
X134748157Y-39487765D01*
X134797440Y-39240000D01*
X134797440Y-34417000D01*
X135482560Y-34417000D01*
X135482560Y-39240000D01*
X135531843Y-39487765D01*
X135672191Y-39697809D01*
X135882235Y-39838157D01*
X136130000Y-39887440D01*
X137647282Y-39887440D01*
X137850553Y-40090711D01*
X137894347Y-40156253D01*
X137959889Y-40200047D01*
X137959891Y-40200049D01*
X138058444Y-40265900D01*
X138154008Y-40329754D01*
X138382984Y-40375300D01*
X138382988Y-40375300D01*
X138460299Y-40390678D01*
X138537610Y-40375300D01*
X145125227Y-40375300D01*
X145112300Y-40406508D01*
X145112300Y-40738692D01*
X145239421Y-41045590D01*
X145474310Y-41280479D01*
X145781208Y-41407600D01*
X145902209Y-41407600D01*
X145878871Y-41442528D01*
X145638827Y-41682571D01*
X145575372Y-41724971D01*
X145532972Y-41788427D01*
X145532971Y-41788428D01*
X145440380Y-41927000D01*
X145407397Y-41976363D01*
X145374703Y-42140729D01*
X145348412Y-42272900D01*
X145363301Y-42347752D01*
X145363300Y-55104253D01*
X145348412Y-55179100D01*
X145363300Y-55253947D01*
X145363300Y-55253951D01*
X145407396Y-55475636D01*
X145575371Y-55727029D01*
X145638830Y-55769431D01*
X146944754Y-57075356D01*
X146295000Y-56946112D01*
X145520493Y-57100171D01*
X144863896Y-57538895D01*
X144425171Y-58195492D01*
X144310000Y-58774497D01*
X144310000Y-59765502D01*
X144425171Y-60344507D01*
X144863895Y-61001105D01*
X145520492Y-61439829D01*
X146295000Y-61593888D01*
X147069507Y-61439829D01*
X147210401Y-61345687D01*
X147210401Y-62694312D01*
X147069508Y-62600171D01*
X146295000Y-62446112D01*
X145520493Y-62600171D01*
X144863896Y-63038895D01*
X144425171Y-63695492D01*
X144310000Y-64274497D01*
X144310000Y-65265502D01*
X144425171Y-65844507D01*
X144863895Y-66501105D01*
X145520492Y-66939829D01*
X146295000Y-67093888D01*
X147069507Y-66939829D01*
X147210400Y-66845687D01*
X147210400Y-69348897D01*
X145655379Y-70903920D01*
X145474310Y-70978921D01*
X145239421Y-71213810D01*
X145112300Y-71520708D01*
X145112300Y-71852892D01*
X145120447Y-71872560D01*
X144050000Y-71872560D01*
X143802235Y-71921843D01*
X143592191Y-72062191D01*
X143451843Y-72272235D01*
X143402560Y-72520000D01*
X143402560Y-77343000D01*
X142717440Y-77343000D01*
X142717440Y-72520000D01*
X142668157Y-72272235D01*
X142527809Y-72062191D01*
X142317765Y-71921843D01*
X142070000Y-71872560D01*
X140090000Y-71872560D01*
X139842235Y-71921843D01*
X139632191Y-72062191D01*
X139491843Y-72272235D01*
X139442560Y-72520000D01*
X139442560Y-77343000D01*
X138757440Y-77343000D01*
X138757440Y-72520000D01*
X138708157Y-72272235D01*
X138567809Y-72062191D01*
X138423641Y-71965860D01*
X140706973Y-69682529D01*
X140770429Y-69640129D01*
X140938404Y-69388737D01*
X140982500Y-69167052D01*
X140982500Y-69167048D01*
X140997388Y-69092200D01*
X140982500Y-69017352D01*
X140982500Y-55129601D01*
X143391873Y-52720229D01*
X143455329Y-52677829D01*
X143623304Y-52426437D01*
X143667400Y-52204752D01*
X143667400Y-52204747D01*
X143682288Y-52129900D01*
X143667400Y-52055053D01*
X143667400Y-43201358D01*
X143742400Y-43020292D01*
X143742400Y-42688108D01*
X143615279Y-42381210D01*
X143380390Y-42146321D01*
X143073492Y-42019200D01*
X142741308Y-42019200D01*
X142434410Y-42146321D01*
X142199521Y-42381210D01*
X142072400Y-42688108D01*
X142072400Y-43020292D01*
X142147401Y-43201361D01*
X142147401Y-43272536D01*
X141878256Y-43219000D01*
X141585744Y-43219000D01*
X141152582Y-43305161D01*
X140661375Y-43633375D01*
X140649184Y-43651619D01*
X140640157Y-43606235D01*
X140499809Y-43396191D01*
X140289765Y-43255843D01*
X140042000Y-43206560D01*
X138342000Y-43206560D01*
X138094235Y-43255843D01*
X137884191Y-43396191D01*
X137743843Y-43606235D01*
X137694560Y-43854000D01*
X137694560Y-45554000D01*
X137743843Y-45801765D01*
X137884191Y-46011809D01*
X138094235Y-46152157D01*
X138342000Y-46201440D01*
X140042000Y-46201440D01*
X140289765Y-46152157D01*
X140499809Y-46011809D01*
X140640157Y-45801765D01*
X140649184Y-45756381D01*
X140661375Y-45774625D01*
X140721619Y-45814879D01*
X139085828Y-47450671D01*
X139022372Y-47493071D01*
X138979972Y-47556527D01*
X138979971Y-47556528D01*
X138854397Y-47744463D01*
X138795412Y-48041000D01*
X138810301Y-48115852D01*
X138810301Y-50198045D01*
X138759494Y-50177000D01*
X138208506Y-50177000D01*
X137699460Y-50387853D01*
X137309853Y-50777460D01*
X137099000Y-51286506D01*
X137099000Y-51837494D01*
X137309853Y-52346540D01*
X137699460Y-52736147D01*
X137724000Y-52746312D01*
X137724001Y-54251948D01*
X137709112Y-54326800D01*
X137724001Y-54401652D01*
X137724962Y-54406484D01*
X137768097Y-54623337D01*
X137843041Y-54735499D01*
X137935821Y-54959490D01*
X138170710Y-55194379D01*
X138477608Y-55321500D01*
X138809792Y-55321500D01*
X138810300Y-55321289D01*
X138810300Y-56515000D01*
X136979600Y-56515000D01*
X136979600Y-43928301D01*
X138022522Y-42885380D01*
X138203590Y-42810379D01*
X138438479Y-42575490D01*
X138565600Y-42268592D01*
X138565600Y-41936408D01*
X138438479Y-41629510D01*
X138203590Y-41394621D01*
X137896692Y-41267500D01*
X137564508Y-41267500D01*
X137257610Y-41394621D01*
X137022721Y-41629510D01*
X136947720Y-41810578D01*
X135735128Y-43023171D01*
X135671672Y-43065571D01*
X135629272Y-43129027D01*
X135629271Y-43129028D01*
X135503697Y-43316963D01*
X135444712Y-43613500D01*
X135459601Y-43688352D01*
X135459600Y-56515000D01*
X124530010Y-56515000D01*
X124530010Y-51286506D01*
X132219000Y-51286506D01*
X132219000Y-51837494D01*
X132429853Y-52346540D01*
X132819460Y-52736147D01*
X133328506Y-52947000D01*
X133879494Y-52947000D01*
X134388540Y-52736147D01*
X134778147Y-52346540D01*
X134989000Y-51837494D01*
X134989000Y-51286506D01*
X134778147Y-50777460D01*
X134388540Y-50387853D01*
X133879494Y-50177000D01*
X133328506Y-50177000D01*
X132819460Y-50387853D01*
X132429853Y-50777460D01*
X132219000Y-51286506D01*
X124530010Y-51286506D01*
X124530010Y-40251411D01*
X124557142Y-40115009D01*
X124530010Y-39978607D01*
X124530010Y-39978603D01*
X124511877Y-39887440D01*
X126230000Y-39887440D01*
X126477765Y-39838157D01*
X126687809Y-39697809D01*
X126828157Y-39487765D01*
X126877440Y-39240000D01*
X126877440Y-34417000D01*
X127562560Y-34417000D01*
X127562560Y-39240000D01*
X127562560Y-39240000D01*
G37*
X127562560Y-39240000D02*
X127611843Y-39487765D01*
X127752191Y-39697809D01*
X127962235Y-39838157D01*
X128210000Y-39887440D01*
X130190000Y-39887440D01*
X130437765Y-39838157D01*
X130647809Y-39697809D01*
X130788157Y-39487765D01*
X130837440Y-39240000D01*
X130837440Y-34417000D01*
X131522560Y-34417000D01*
X131522560Y-39240000D01*
X131571843Y-39487765D01*
X131712191Y-39697809D01*
X131922235Y-39838157D01*
X132170000Y-39887440D01*
X134150000Y-39887440D01*
X134397765Y-39838157D01*
X134607809Y-39697809D01*
X134748157Y-39487765D01*
X134797440Y-39240000D01*
X134797440Y-34417000D01*
X135482560Y-34417000D01*
X135482560Y-39240000D01*
X135531843Y-39487765D01*
X135672191Y-39697809D01*
X135882235Y-39838157D01*
X136130000Y-39887440D01*
X137647282Y-39887440D01*
X137850553Y-40090711D01*
X137894347Y-40156253D01*
X137959889Y-40200047D01*
X137959891Y-40200049D01*
X138058444Y-40265900D01*
X138154008Y-40329754D01*
X138382984Y-40375300D01*
X138382988Y-40375300D01*
X138460299Y-40390678D01*
X138537610Y-40375300D01*
X145125227Y-40375300D01*
X145112300Y-40406508D01*
X145112300Y-40738692D01*
X145239421Y-41045590D01*
X145474310Y-41280479D01*
X145781208Y-41407600D01*
X145902209Y-41407600D01*
X145878871Y-41442528D01*
X145638827Y-41682571D01*
X145575372Y-41724971D01*
X145532972Y-41788427D01*
X145532971Y-41788428D01*
X145440380Y-41927000D01*
X145407397Y-41976363D01*
X145374703Y-42140729D01*
X145348412Y-42272900D01*
X145363301Y-42347752D01*
X145363300Y-55104253D01*
X145348412Y-55179100D01*
X145363300Y-55253947D01*
X145363300Y-55253951D01*
X145407396Y-55475636D01*
X145575371Y-55727029D01*
X145638830Y-55769431D01*
X146944754Y-57075356D01*
X146295000Y-56946112D01*
X145520493Y-57100171D01*
X144863896Y-57538895D01*
X144425171Y-58195492D01*
X144310000Y-58774497D01*
X144310000Y-59765502D01*
X144425171Y-60344507D01*
X144863895Y-61001105D01*
X145520492Y-61439829D01*
X146295000Y-61593888D01*
X147069507Y-61439829D01*
X147210401Y-61345687D01*
X147210401Y-62694312D01*
X147069508Y-62600171D01*
X146295000Y-62446112D01*
X145520493Y-62600171D01*
X144863896Y-63038895D01*
X144425171Y-63695492D01*
X144310000Y-64274497D01*
X144310000Y-65265502D01*
X144425171Y-65844507D01*
X144863895Y-66501105D01*
X145520492Y-66939829D01*
X146295000Y-67093888D01*
X147069507Y-66939829D01*
X147210400Y-66845687D01*
X147210400Y-69348897D01*
X145655379Y-70903920D01*
X145474310Y-70978921D01*
X145239421Y-71213810D01*
X145112300Y-71520708D01*
X145112300Y-71852892D01*
X145120447Y-71872560D01*
X144050000Y-71872560D01*
X143802235Y-71921843D01*
X143592191Y-72062191D01*
X143451843Y-72272235D01*
X143402560Y-72520000D01*
X143402560Y-77343000D01*
X142717440Y-77343000D01*
X142717440Y-72520000D01*
X142668157Y-72272235D01*
X142527809Y-72062191D01*
X142317765Y-71921843D01*
X142070000Y-71872560D01*
X140090000Y-71872560D01*
X139842235Y-71921843D01*
X139632191Y-72062191D01*
X139491843Y-72272235D01*
X139442560Y-72520000D01*
X139442560Y-77343000D01*
X138757440Y-77343000D01*
X138757440Y-72520000D01*
X138708157Y-72272235D01*
X138567809Y-72062191D01*
X138423641Y-71965860D01*
X140706973Y-69682529D01*
X140770429Y-69640129D01*
X140938404Y-69388737D01*
X140982500Y-69167052D01*
X140982500Y-69167048D01*
X140997388Y-69092200D01*
X140982500Y-69017352D01*
X140982500Y-55129601D01*
X143391873Y-52720229D01*
X143455329Y-52677829D01*
X143623304Y-52426437D01*
X143667400Y-52204752D01*
X143667400Y-52204747D01*
X143682288Y-52129900D01*
X143667400Y-52055053D01*
X143667400Y-43201358D01*
X143742400Y-43020292D01*
X143742400Y-42688108D01*
X143615279Y-42381210D01*
X143380390Y-42146321D01*
X143073492Y-42019200D01*
X142741308Y-42019200D01*
X142434410Y-42146321D01*
X142199521Y-42381210D01*
X142072400Y-42688108D01*
X142072400Y-43020292D01*
X142147401Y-43201361D01*
X142147401Y-43272536D01*
X141878256Y-43219000D01*
X141585744Y-43219000D01*
X141152582Y-43305161D01*
X140661375Y-43633375D01*
X140649184Y-43651619D01*
X140640157Y-43606235D01*
X140499809Y-43396191D01*
X140289765Y-43255843D01*
X140042000Y-43206560D01*
X138342000Y-43206560D01*
X138094235Y-43255843D01*
X137884191Y-43396191D01*
X137743843Y-43606235D01*
X137694560Y-43854000D01*
X137694560Y-45554000D01*
X137743843Y-45801765D01*
X137884191Y-46011809D01*
X138094235Y-46152157D01*
X138342000Y-46201440D01*
X140042000Y-46201440D01*
X140289765Y-46152157D01*
X140499809Y-46011809D01*
X140640157Y-45801765D01*
X140649184Y-45756381D01*
X140661375Y-45774625D01*
X140721619Y-45814879D01*
X139085828Y-47450671D01*
X139022372Y-47493071D01*
X138979972Y-47556527D01*
X138979971Y-47556528D01*
X138854397Y-47744463D01*
X138795412Y-48041000D01*
X138810301Y-48115852D01*
X138810301Y-50198045D01*
X138759494Y-50177000D01*
X138208506Y-50177000D01*
X137699460Y-50387853D01*
X137309853Y-50777460D01*
X137099000Y-51286506D01*
X137099000Y-51837494D01*
X137309853Y-52346540D01*
X137699460Y-52736147D01*
X137724000Y-52746312D01*
X137724001Y-54251948D01*
X137709112Y-54326800D01*
X137724001Y-54401652D01*
X137724962Y-54406484D01*
X137768097Y-54623337D01*
X137843041Y-54735499D01*
X137935821Y-54959490D01*
X138170710Y-55194379D01*
X138477608Y-55321500D01*
X138809792Y-55321500D01*
X138810300Y-55321289D01*
X138810300Y-56515000D01*
X136979600Y-56515000D01*
X136979600Y-43928301D01*
X138022522Y-42885380D01*
X138203590Y-42810379D01*
X138438479Y-42575490D01*
X138565600Y-42268592D01*
X138565600Y-41936408D01*
X138438479Y-41629510D01*
X138203590Y-41394621D01*
X137896692Y-41267500D01*
X137564508Y-41267500D01*
X137257610Y-41394621D01*
X137022721Y-41629510D01*
X136947720Y-41810578D01*
X135735128Y-43023171D01*
X135671672Y-43065571D01*
X135629272Y-43129027D01*
X135629271Y-43129028D01*
X135503697Y-43316963D01*
X135444712Y-43613500D01*
X135459601Y-43688352D01*
X135459600Y-56515000D01*
X124530010Y-56515000D01*
X124530010Y-51286506D01*
X132219000Y-51286506D01*
X132219000Y-51837494D01*
X132429853Y-52346540D01*
X132819460Y-52736147D01*
X133328506Y-52947000D01*
X133879494Y-52947000D01*
X134388540Y-52736147D01*
X134778147Y-52346540D01*
X134989000Y-51837494D01*
X134989000Y-51286506D01*
X134778147Y-50777460D01*
X134388540Y-50387853D01*
X133879494Y-50177000D01*
X133328506Y-50177000D01*
X132819460Y-50387853D01*
X132429853Y-50777460D01*
X132219000Y-51286506D01*
X124530010Y-51286506D01*
X124530010Y-40251411D01*
X124557142Y-40115009D01*
X124530010Y-39978607D01*
X124530010Y-39978603D01*
X124511877Y-39887440D01*
X126230000Y-39887440D01*
X126477765Y-39838157D01*
X126687809Y-39697809D01*
X126828157Y-39487765D01*
X126877440Y-39240000D01*
X126877440Y-34417000D01*
X127562560Y-34417000D01*
X127562560Y-39240000D01*
G36*
X223393000Y-35735137D02*
X223295599Y-35637736D01*
X222600944Y-35350000D01*
X221849056Y-35350000D01*
X221154401Y-35637736D01*
X220622736Y-36169401D01*
X220335000Y-36864056D01*
X220335000Y-37615944D01*
X220622736Y-38310599D01*
X221154401Y-38842264D01*
X221849056Y-39130000D01*
X222600944Y-39130000D01*
X223295599Y-38842264D01*
X223393000Y-38744863D01*
X223393000Y-42635137D01*
X223295599Y-42537736D01*
X222600944Y-42250000D01*
X221849056Y-42250000D01*
X221154401Y-42537736D01*
X220622736Y-43069401D01*
X220335000Y-43764056D01*
X220335000Y-44515944D01*
X220622736Y-45210599D01*
X221154401Y-45742264D01*
X221849056Y-46030000D01*
X222600944Y-46030000D01*
X223295599Y-45742264D01*
X223393000Y-45644863D01*
X223393000Y-48435137D01*
X223295599Y-48337736D01*
X222600944Y-48050000D01*
X221849056Y-48050000D01*
X221154401Y-48337736D01*
X220622736Y-48869401D01*
X220335000Y-49564056D01*
X220335000Y-50315944D01*
X220622736Y-51010599D01*
X221154401Y-51542264D01*
X221849056Y-51830000D01*
X222600944Y-51830000D01*
X223295599Y-51542264D01*
X223393000Y-51444863D01*
X223393000Y-55335137D01*
X223295599Y-55237736D01*
X222600944Y-54950000D01*
X221849056Y-54950000D01*
X221154401Y-55237736D01*
X220622736Y-55769401D01*
X220335000Y-56464056D01*
X220335000Y-57215944D01*
X220622736Y-57910599D01*
X221154401Y-58442264D01*
X221849056Y-58730000D01*
X222600944Y-58730000D01*
X223295599Y-58442264D01*
X223393000Y-58344863D01*
X223393000Y-77343000D01*
X210037440Y-77343000D01*
X210037440Y-75330000D01*
X216745867Y-75330000D01*
X216853359Y-75870400D01*
X217159471Y-76328529D01*
X217617600Y-76634641D01*
X218021593Y-76715000D01*
X220794407Y-76715000D01*
X221198400Y-76634641D01*
X221656529Y-76328529D01*
X221962641Y-75870400D01*
X222070133Y-75330000D01*
X221962641Y-74789600D01*
X221656529Y-74331471D01*
X221198400Y-74025359D01*
X220794407Y-73945000D01*
X218021593Y-73945000D01*
X217617600Y-74025359D01*
X217159471Y-74331471D01*
X216853359Y-74789600D01*
X216745867Y-75330000D01*
X210037440Y-75330000D01*
X210037440Y-73004786D01*
X210284190Y-72902579D01*
X210519079Y-72667690D01*
X210607690Y-72453762D01*
X210694504Y-72323837D01*
X210738600Y-72102152D01*
X210738600Y-72102148D01*
X210753488Y-72027301D01*
X210744080Y-71980000D01*
X212546846Y-71980000D01*
X212650458Y-72500891D01*
X212945519Y-72942481D01*
X213387109Y-73237542D01*
X213776515Y-73315000D01*
X214039485Y-73315000D01*
X214428891Y-73237542D01*
X214870481Y-72942481D01*
X215165542Y-72500891D01*
X215269154Y-71980000D01*
X215165542Y-71459109D01*
X214870481Y-71017519D01*
X214428891Y-70722458D01*
X214039485Y-70645000D01*
X213776515Y-70645000D01*
X213387109Y-70722458D01*
X212945519Y-71017519D01*
X212650458Y-71459109D01*
X212546846Y-71980000D01*
X210744080Y-71980000D01*
X210738600Y-71952454D01*
X210738600Y-69966406D01*
X218823000Y-69966406D01*
X218903359Y-70370399D01*
X219209471Y-70828528D01*
X219667600Y-71134641D01*
X220208000Y-71242133D01*
X220748399Y-71134641D01*
X221206528Y-70828529D01*
X221512641Y-70370400D01*
X221593000Y-69966407D01*
X221593000Y-67193593D01*
X221512641Y-66789600D01*
X221206529Y-66331471D01*
X220748400Y-66025359D01*
X220208000Y-65917867D01*
X219667601Y-66025359D01*
X219209472Y-66331471D01*
X218903360Y-66789600D01*
X218823001Y-67193593D01*
X218823000Y-69966406D01*
X210738600Y-69966406D01*
X210738600Y-66289446D01*
X210753488Y-66214599D01*
X210738600Y-66139752D01*
X210738600Y-66139748D01*
X210694504Y-65918063D01*
X210526529Y-65666671D01*
X210463073Y-65624271D01*
X210018802Y-65180000D01*
X212646846Y-65180000D01*
X212750458Y-65700891D01*
X213045519Y-66142481D01*
X213487109Y-66437542D01*
X213876515Y-66515000D01*
X214139485Y-66515000D01*
X214528891Y-66437542D01*
X214970481Y-66142481D01*
X215265542Y-65700891D01*
X215369154Y-65180000D01*
X215265542Y-64659109D01*
X214970481Y-64217519D01*
X214528891Y-63922458D01*
X214139485Y-63845000D01*
X213876515Y-63845000D01*
X213487109Y-63922458D01*
X213045519Y-64217519D01*
X212750458Y-64659109D01*
X212646846Y-65180000D01*
X210018802Y-65180000D01*
X209721209Y-64882408D01*
X209794092Y-64516000D01*
X209678839Y-63936582D01*
X209350625Y-63445375D01*
X209052239Y-63246000D01*
X209350625Y-63046625D01*
X209678839Y-62555418D01*
X209794092Y-61976000D01*
X209765051Y-61830000D01*
X216745867Y-61830000D01*
X216853359Y-62370400D01*
X217159471Y-62828529D01*
X217617600Y-63134641D01*
X218021593Y-63215000D01*
X220794407Y-63215000D01*
X221198400Y-63134641D01*
X221656529Y-62828529D01*
X221962641Y-62370400D01*
X222070133Y-61830000D01*
X221962641Y-61289600D01*
X221656529Y-60831471D01*
X221198400Y-60525359D01*
X220794407Y-60445000D01*
X218021593Y-60445000D01*
X217617600Y-60525359D01*
X217159471Y-60831471D01*
X216853359Y-61289600D01*
X216745867Y-61830000D01*
X209765051Y-61830000D01*
X209678839Y-61396582D01*
X209350625Y-60905375D01*
X209052239Y-60706000D01*
X209350625Y-60506625D01*
X209678839Y-60015418D01*
X209794092Y-59436000D01*
X209678839Y-58856582D01*
X209350625Y-58365375D01*
X209052239Y-58166000D01*
X209350625Y-57966625D01*
X209678839Y-57475418D01*
X209794092Y-56896000D01*
X209678839Y-56316582D01*
X209350625Y-55825375D01*
X208859418Y-55497161D01*
X208426256Y-55411000D01*
X208133744Y-55411000D01*
X207700582Y-55497161D01*
X207209375Y-55825375D01*
X206881161Y-56316582D01*
X206765908Y-56896000D01*
X206881161Y-57475418D01*
X207209375Y-57966625D01*
X207507761Y-58166000D01*
X207209375Y-58365375D01*
X206881161Y-58856582D01*
X206765908Y-59436000D01*
X206881161Y-60015418D01*
X207209375Y-60506625D01*
X207507761Y-60706000D01*
X207209375Y-60905375D01*
X207052323Y-61140420D01*
X203038600Y-57126699D01*
X203038600Y-53859515D01*
X203278778Y-53959000D01*
X203929222Y-53959000D01*
X204530153Y-53710086D01*
X204990086Y-53250153D01*
X205239000Y-52649222D01*
X205239000Y-51998778D01*
X204990086Y-51397847D01*
X204530153Y-50937914D01*
X203929222Y-50689000D01*
X203278778Y-50689000D01*
X203038600Y-50788485D01*
X203038600Y-49595748D01*
X203053488Y-49520900D01*
X203038600Y-49446052D01*
X203038600Y-49446048D01*
X202994504Y-49224363D01*
X202826529Y-48972971D01*
X202763073Y-48930571D01*
X201670580Y-47838079D01*
X201595579Y-47657010D01*
X201360690Y-47422121D01*
X201229300Y-47367698D01*
X201229300Y-46095399D01*
X201334561Y-46139000D01*
X201905439Y-46139000D01*
X202432862Y-45920534D01*
X202836534Y-45516862D01*
X203055000Y-44989439D01*
X203055000Y-44418561D01*
X203033103Y-44365698D01*
X205998802Y-41400000D01*
X206782560Y-41400000D01*
X206782560Y-43014000D01*
X206831843Y-43261765D01*
X206972191Y-43471809D01*
X207182235Y-43612157D01*
X207227619Y-43621184D01*
X207209375Y-43633375D01*
X206881161Y-44124582D01*
X206765908Y-44704000D01*
X206881161Y-45283418D01*
X207209375Y-45774625D01*
X207507761Y-45974000D01*
X207209375Y-46173375D01*
X206881161Y-46664582D01*
X206765908Y-47244000D01*
X206881161Y-47823418D01*
X207209375Y-48314625D01*
X207700582Y-48642839D01*
X208133744Y-48729000D01*
X208426256Y-48729000D01*
X208859418Y-48642839D01*
X209350625Y-48314625D01*
X209613862Y-47920663D01*
X213165001Y-51471803D01*
X213165001Y-51724686D01*
X212787055Y-51799864D01*
X212246231Y-52161231D01*
X211884864Y-52702055D01*
X211757969Y-53340000D01*
X211884864Y-53977945D01*
X212246231Y-54518769D01*
X212787055Y-54880136D01*
X213263969Y-54975000D01*
X214586031Y-54975000D01*
X215062945Y-54880136D01*
X215603769Y-54518769D01*
X215965136Y-53977945D01*
X216092031Y-53340000D01*
X215965136Y-52702055D01*
X215603769Y-52161231D01*
X215062945Y-51799864D01*
X214685000Y-51724686D01*
X214685000Y-51231847D01*
X214699888Y-51157000D01*
X214685000Y-51082153D01*
X214685000Y-51082148D01*
X214640904Y-50860463D01*
X214472929Y-50609071D01*
X214409473Y-50566671D01*
X209457491Y-45614689D01*
X209678839Y-45283418D01*
X209794092Y-44704000D01*
X209678839Y-44124582D01*
X209350625Y-43633375D01*
X209332381Y-43621184D01*
X209377765Y-43612157D01*
X209587809Y-43471809D01*
X209728157Y-43261765D01*
X209777440Y-43014000D01*
X209777440Y-41400000D01*
X211966419Y-41400000D01*
X212246231Y-41818769D01*
X212787055Y-42180136D01*
X213263969Y-42275000D01*
X214586031Y-42275000D01*
X215062945Y-42180136D01*
X215603769Y-41818769D01*
X215965136Y-41277945D01*
X216092031Y-40640000D01*
X215965136Y-40002055D01*
X215603769Y-39461231D01*
X215062945Y-39099864D01*
X214586031Y-39005000D01*
X213263969Y-39005000D01*
X212787055Y-39099864D01*
X212246231Y-39461231D01*
X211966419Y-39880000D01*
X206003000Y-39880000D01*
X206003000Y-39592808D01*
X205985767Y-39551205D01*
X206028157Y-39487765D01*
X206077440Y-39240000D01*
X206077440Y-34417000D01*
X223393000Y-34417000D01*
X223393000Y-35735137D01*
X223393000Y-35735137D01*
G37*
X223393000Y-35735137D02*
X223295599Y-35637736D01*
X222600944Y-35350000D01*
X221849056Y-35350000D01*
X221154401Y-35637736D01*
X220622736Y-36169401D01*
X220335000Y-36864056D01*
X220335000Y-37615944D01*
X220622736Y-38310599D01*
X221154401Y-38842264D01*
X221849056Y-39130000D01*
X222600944Y-39130000D01*
X223295599Y-38842264D01*
X223393000Y-38744863D01*
X223393000Y-42635137D01*
X223295599Y-42537736D01*
X222600944Y-42250000D01*
X221849056Y-42250000D01*
X221154401Y-42537736D01*
X220622736Y-43069401D01*
X220335000Y-43764056D01*
X220335000Y-44515944D01*
X220622736Y-45210599D01*
X221154401Y-45742264D01*
X221849056Y-46030000D01*
X222600944Y-46030000D01*
X223295599Y-45742264D01*
X223393000Y-45644863D01*
X223393000Y-48435137D01*
X223295599Y-48337736D01*
X222600944Y-48050000D01*
X221849056Y-48050000D01*
X221154401Y-48337736D01*
X220622736Y-48869401D01*
X220335000Y-49564056D01*
X220335000Y-50315944D01*
X220622736Y-51010599D01*
X221154401Y-51542264D01*
X221849056Y-51830000D01*
X222600944Y-51830000D01*
X223295599Y-51542264D01*
X223393000Y-51444863D01*
X223393000Y-55335137D01*
X223295599Y-55237736D01*
X222600944Y-54950000D01*
X221849056Y-54950000D01*
X221154401Y-55237736D01*
X220622736Y-55769401D01*
X220335000Y-56464056D01*
X220335000Y-57215944D01*
X220622736Y-57910599D01*
X221154401Y-58442264D01*
X221849056Y-58730000D01*
X222600944Y-58730000D01*
X223295599Y-58442264D01*
X223393000Y-58344863D01*
X223393000Y-77343000D01*
X210037440Y-77343000D01*
X210037440Y-75330000D01*
X216745867Y-75330000D01*
X216853359Y-75870400D01*
X217159471Y-76328529D01*
X217617600Y-76634641D01*
X218021593Y-76715000D01*
X220794407Y-76715000D01*
X221198400Y-76634641D01*
X221656529Y-76328529D01*
X221962641Y-75870400D01*
X222070133Y-75330000D01*
X221962641Y-74789600D01*
X221656529Y-74331471D01*
X221198400Y-74025359D01*
X220794407Y-73945000D01*
X218021593Y-73945000D01*
X217617600Y-74025359D01*
X217159471Y-74331471D01*
X216853359Y-74789600D01*
X216745867Y-75330000D01*
X210037440Y-75330000D01*
X210037440Y-73004786D01*
X210284190Y-72902579D01*
X210519079Y-72667690D01*
X210607690Y-72453762D01*
X210694504Y-72323837D01*
X210738600Y-72102152D01*
X210738600Y-72102148D01*
X210753488Y-72027301D01*
X210744080Y-71980000D01*
X212546846Y-71980000D01*
X212650458Y-72500891D01*
X212945519Y-72942481D01*
X213387109Y-73237542D01*
X213776515Y-73315000D01*
X214039485Y-73315000D01*
X214428891Y-73237542D01*
X214870481Y-72942481D01*
X215165542Y-72500891D01*
X215269154Y-71980000D01*
X215165542Y-71459109D01*
X214870481Y-71017519D01*
X214428891Y-70722458D01*
X214039485Y-70645000D01*
X213776515Y-70645000D01*
X213387109Y-70722458D01*
X212945519Y-71017519D01*
X212650458Y-71459109D01*
X212546846Y-71980000D01*
X210744080Y-71980000D01*
X210738600Y-71952454D01*
X210738600Y-69966406D01*
X218823000Y-69966406D01*
X218903359Y-70370399D01*
X219209471Y-70828528D01*
X219667600Y-71134641D01*
X220208000Y-71242133D01*
X220748399Y-71134641D01*
X221206528Y-70828529D01*
X221512641Y-70370400D01*
X221593000Y-69966407D01*
X221593000Y-67193593D01*
X221512641Y-66789600D01*
X221206529Y-66331471D01*
X220748400Y-66025359D01*
X220208000Y-65917867D01*
X219667601Y-66025359D01*
X219209472Y-66331471D01*
X218903360Y-66789600D01*
X218823001Y-67193593D01*
X218823000Y-69966406D01*
X210738600Y-69966406D01*
X210738600Y-66289446D01*
X210753488Y-66214599D01*
X210738600Y-66139752D01*
X210738600Y-66139748D01*
X210694504Y-65918063D01*
X210526529Y-65666671D01*
X210463073Y-65624271D01*
X210018802Y-65180000D01*
X212646846Y-65180000D01*
X212750458Y-65700891D01*
X213045519Y-66142481D01*
X213487109Y-66437542D01*
X213876515Y-66515000D01*
X214139485Y-66515000D01*
X214528891Y-66437542D01*
X214970481Y-66142481D01*
X215265542Y-65700891D01*
X215369154Y-65180000D01*
X215265542Y-64659109D01*
X214970481Y-64217519D01*
X214528891Y-63922458D01*
X214139485Y-63845000D01*
X213876515Y-63845000D01*
X213487109Y-63922458D01*
X213045519Y-64217519D01*
X212750458Y-64659109D01*
X212646846Y-65180000D01*
X210018802Y-65180000D01*
X209721209Y-64882408D01*
X209794092Y-64516000D01*
X209678839Y-63936582D01*
X209350625Y-63445375D01*
X209052239Y-63246000D01*
X209350625Y-63046625D01*
X209678839Y-62555418D01*
X209794092Y-61976000D01*
X209765051Y-61830000D01*
X216745867Y-61830000D01*
X216853359Y-62370400D01*
X217159471Y-62828529D01*
X217617600Y-63134641D01*
X218021593Y-63215000D01*
X220794407Y-63215000D01*
X221198400Y-63134641D01*
X221656529Y-62828529D01*
X221962641Y-62370400D01*
X222070133Y-61830000D01*
X221962641Y-61289600D01*
X221656529Y-60831471D01*
X221198400Y-60525359D01*
X220794407Y-60445000D01*
X218021593Y-60445000D01*
X217617600Y-60525359D01*
X217159471Y-60831471D01*
X216853359Y-61289600D01*
X216745867Y-61830000D01*
X209765051Y-61830000D01*
X209678839Y-61396582D01*
X209350625Y-60905375D01*
X209052239Y-60706000D01*
X209350625Y-60506625D01*
X209678839Y-60015418D01*
X209794092Y-59436000D01*
X209678839Y-58856582D01*
X209350625Y-58365375D01*
X209052239Y-58166000D01*
X209350625Y-57966625D01*
X209678839Y-57475418D01*
X209794092Y-56896000D01*
X209678839Y-56316582D01*
X209350625Y-55825375D01*
X208859418Y-55497161D01*
X208426256Y-55411000D01*
X208133744Y-55411000D01*
X207700582Y-55497161D01*
X207209375Y-55825375D01*
X206881161Y-56316582D01*
X206765908Y-56896000D01*
X206881161Y-57475418D01*
X207209375Y-57966625D01*
X207507761Y-58166000D01*
X207209375Y-58365375D01*
X206881161Y-58856582D01*
X206765908Y-59436000D01*
X206881161Y-60015418D01*
X207209375Y-60506625D01*
X207507761Y-60706000D01*
X207209375Y-60905375D01*
X207052323Y-61140420D01*
X203038600Y-57126699D01*
X203038600Y-53859515D01*
X203278778Y-53959000D01*
X203929222Y-53959000D01*
X204530153Y-53710086D01*
X204990086Y-53250153D01*
X205239000Y-52649222D01*
X205239000Y-51998778D01*
X204990086Y-51397847D01*
X204530153Y-50937914D01*
X203929222Y-50689000D01*
X203278778Y-50689000D01*
X203038600Y-50788485D01*
X203038600Y-49595748D01*
X203053488Y-49520900D01*
X203038600Y-49446052D01*
X203038600Y-49446048D01*
X202994504Y-49224363D01*
X202826529Y-48972971D01*
X202763073Y-48930571D01*
X201670580Y-47838079D01*
X201595579Y-47657010D01*
X201360690Y-47422121D01*
X201229300Y-47367698D01*
X201229300Y-46095399D01*
X201334561Y-46139000D01*
X201905439Y-46139000D01*
X202432862Y-45920534D01*
X202836534Y-45516862D01*
X203055000Y-44989439D01*
X203055000Y-44418561D01*
X203033103Y-44365698D01*
X205998802Y-41400000D01*
X206782560Y-41400000D01*
X206782560Y-43014000D01*
X206831843Y-43261765D01*
X206972191Y-43471809D01*
X207182235Y-43612157D01*
X207227619Y-43621184D01*
X207209375Y-43633375D01*
X206881161Y-44124582D01*
X206765908Y-44704000D01*
X206881161Y-45283418D01*
X207209375Y-45774625D01*
X207507761Y-45974000D01*
X207209375Y-46173375D01*
X206881161Y-46664582D01*
X206765908Y-47244000D01*
X206881161Y-47823418D01*
X207209375Y-48314625D01*
X207700582Y-48642839D01*
X208133744Y-48729000D01*
X208426256Y-48729000D01*
X208859418Y-48642839D01*
X209350625Y-48314625D01*
X209613862Y-47920663D01*
X213165001Y-51471803D01*
X213165001Y-51724686D01*
X212787055Y-51799864D01*
X212246231Y-52161231D01*
X211884864Y-52702055D01*
X211757969Y-53340000D01*
X211884864Y-53977945D01*
X212246231Y-54518769D01*
X212787055Y-54880136D01*
X213263969Y-54975000D01*
X214586031Y-54975000D01*
X215062945Y-54880136D01*
X215603769Y-54518769D01*
X215965136Y-53977945D01*
X216092031Y-53340000D01*
X215965136Y-52702055D01*
X215603769Y-52161231D01*
X215062945Y-51799864D01*
X214685000Y-51724686D01*
X214685000Y-51231847D01*
X214699888Y-51157000D01*
X214685000Y-51082153D01*
X214685000Y-51082148D01*
X214640904Y-50860463D01*
X214472929Y-50609071D01*
X214409473Y-50566671D01*
X209457491Y-45614689D01*
X209678839Y-45283418D01*
X209794092Y-44704000D01*
X209678839Y-44124582D01*
X209350625Y-43633375D01*
X209332381Y-43621184D01*
X209377765Y-43612157D01*
X209587809Y-43471809D01*
X209728157Y-43261765D01*
X209777440Y-43014000D01*
X209777440Y-41400000D01*
X211966419Y-41400000D01*
X212246231Y-41818769D01*
X212787055Y-42180136D01*
X213263969Y-42275000D01*
X214586031Y-42275000D01*
X215062945Y-42180136D01*
X215603769Y-41818769D01*
X215965136Y-41277945D01*
X216092031Y-40640000D01*
X215965136Y-40002055D01*
X215603769Y-39461231D01*
X215062945Y-39099864D01*
X214586031Y-39005000D01*
X213263969Y-39005000D01*
X212787055Y-39099864D01*
X212246231Y-39461231D01*
X211966419Y-39880000D01*
X206003000Y-39880000D01*
X206003000Y-39592808D01*
X205985767Y-39551205D01*
X206028157Y-39487765D01*
X206077440Y-39240000D01*
X206077440Y-34417000D01*
X223393000Y-34417000D01*
X223393000Y-35735137D01*
G36*
X200806801Y-57405148D02*
X200791912Y-57480000D01*
X200850897Y-57776537D01*
X200967470Y-57951000D01*
X201018872Y-58027929D01*
X201082328Y-58070329D01*
X203860998Y-60849000D01*
X203278778Y-60849000D01*
X202677847Y-61097914D01*
X202217914Y-61557847D01*
X201969000Y-62158778D01*
X201969000Y-62809222D01*
X202217914Y-63410153D01*
X202677847Y-63870086D01*
X203278778Y-64119000D01*
X203929222Y-64119000D01*
X204530153Y-63870086D01*
X204990086Y-63410153D01*
X205239000Y-62809222D01*
X205239000Y-62227002D01*
X206158100Y-63146102D01*
X206158101Y-64755548D01*
X206143212Y-64830400D01*
X206158101Y-64905252D01*
X206195626Y-65093900D01*
X206202197Y-65126937D01*
X206306456Y-65282971D01*
X206370172Y-65378329D01*
X206433628Y-65420729D01*
X207124820Y-66111921D01*
X206881161Y-66476582D01*
X206765908Y-67056000D01*
X206881161Y-67635418D01*
X207209375Y-68126625D01*
X207507761Y-68326000D01*
X207209375Y-68525375D01*
X206997526Y-68842429D01*
X206808163Y-68880096D01*
X206556771Y-69048071D01*
X206388796Y-69299463D01*
X206329811Y-69596000D01*
X206344700Y-69670852D01*
X206344700Y-69787797D01*
X204876079Y-71256420D01*
X204695010Y-71331421D01*
X204673266Y-71353165D01*
X198878600Y-65558499D01*
X198878600Y-65065482D01*
X199116890Y-64966779D01*
X199351779Y-64731890D01*
X199419176Y-64569178D01*
X199450229Y-64548429D01*
X199618204Y-64297037D01*
X199662300Y-64075352D01*
X199662300Y-64075348D01*
X199677188Y-64000500D01*
X199662300Y-63925652D01*
X199662300Y-55091440D01*
X200806801Y-55091440D01*
X200806801Y-57405148D01*
X200806801Y-57405148D01*
G37*
X200806801Y-57405148D02*
X200791912Y-57480000D01*
X200850897Y-57776537D01*
X200967470Y-57951000D01*
X201018872Y-58027929D01*
X201082328Y-58070329D01*
X203860998Y-60849000D01*
X203278778Y-60849000D01*
X202677847Y-61097914D01*
X202217914Y-61557847D01*
X201969000Y-62158778D01*
X201969000Y-62809222D01*
X202217914Y-63410153D01*
X202677847Y-63870086D01*
X203278778Y-64119000D01*
X203929222Y-64119000D01*
X204530153Y-63870086D01*
X204990086Y-63410153D01*
X205239000Y-62809222D01*
X205239000Y-62227002D01*
X206158100Y-63146102D01*
X206158101Y-64755548D01*
X206143212Y-64830400D01*
X206158101Y-64905252D01*
X206195626Y-65093900D01*
X206202197Y-65126937D01*
X206306456Y-65282971D01*
X206370172Y-65378329D01*
X206433628Y-65420729D01*
X207124820Y-66111921D01*
X206881161Y-66476582D01*
X206765908Y-67056000D01*
X206881161Y-67635418D01*
X207209375Y-68126625D01*
X207507761Y-68326000D01*
X207209375Y-68525375D01*
X206997526Y-68842429D01*
X206808163Y-68880096D01*
X206556771Y-69048071D01*
X206388796Y-69299463D01*
X206329811Y-69596000D01*
X206344700Y-69670852D01*
X206344700Y-69787797D01*
X204876079Y-71256420D01*
X204695010Y-71331421D01*
X204673266Y-71353165D01*
X198878600Y-65558499D01*
X198878600Y-65065482D01*
X199116890Y-64966779D01*
X199351779Y-64731890D01*
X199419176Y-64569178D01*
X199450229Y-64548429D01*
X199618204Y-64297037D01*
X199662300Y-64075352D01*
X199662300Y-64075348D01*
X199677188Y-64000500D01*
X199662300Y-63925652D01*
X199662300Y-55091440D01*
X200806801Y-55091440D01*
X200806801Y-57405148D01*
G36*
X196429340Y-50833742D02*
X196177847Y-50937914D01*
X195717914Y-51397847D01*
X195469000Y-51998778D01*
X195469000Y-52649222D01*
X195717914Y-53250153D01*
X196177847Y-53710086D01*
X196778778Y-53959000D01*
X197429222Y-53959000D01*
X197669401Y-53859515D01*
X197669400Y-57986700D01*
X193223858Y-57986700D01*
X193042792Y-57911700D01*
X192710608Y-57911700D01*
X192403710Y-58038821D01*
X192168821Y-58273710D01*
X192041700Y-58580608D01*
X192041700Y-58912792D01*
X192168821Y-59219690D01*
X192403710Y-59454579D01*
X192710608Y-59581700D01*
X193042792Y-59581700D01*
X193223858Y-59506700D01*
X197669400Y-59506700D01*
X197669400Y-60948485D01*
X197429222Y-60849000D01*
X196778778Y-60849000D01*
X196177847Y-61097914D01*
X195717914Y-61557847D01*
X195469000Y-62158778D01*
X195469000Y-62809222D01*
X195537823Y-62975375D01*
X190161599Y-68351600D01*
X186574352Y-68351600D01*
X186564877Y-68349715D01*
X186634300Y-68182114D01*
X186634300Y-67849930D01*
X186596456Y-67758566D01*
X186608288Y-67699080D01*
X186593400Y-67624232D01*
X186593400Y-66063440D01*
X187971000Y-66063440D01*
X188218765Y-66014157D01*
X188428809Y-65873809D01*
X188569157Y-65663765D01*
X188572275Y-65648092D01*
X188741493Y-65817310D01*
X189305670Y-66051000D01*
X189916330Y-66051000D01*
X190480507Y-65817310D01*
X190912310Y-65385507D01*
X191146000Y-64821330D01*
X191146000Y-64210670D01*
X190912310Y-63646493D01*
X190646000Y-63380183D01*
X190646000Y-57818000D01*
X192138235Y-57818000D01*
X192440137Y-57757948D01*
X192782493Y-57529193D01*
X193011248Y-57186837D01*
X193091576Y-56783000D01*
X193011248Y-56379163D01*
X192782493Y-56036807D01*
X192440137Y-55808052D01*
X192138235Y-55748000D01*
X190623083Y-55748000D01*
X190617148Y-55718163D01*
X190388393Y-55375807D01*
X190046037Y-55147052D01*
X189929876Y-55123946D01*
X190183290Y-55018979D01*
X190418179Y-54784090D01*
X190493180Y-54603021D01*
X193611573Y-51484629D01*
X193675029Y-51442229D01*
X193843004Y-51190837D01*
X193887100Y-50969152D01*
X193887100Y-50969147D01*
X193901988Y-50894300D01*
X193887100Y-50819453D01*
X193887100Y-48291501D01*
X196429340Y-50833742D01*
X196429340Y-50833742D01*
G37*
X196429340Y-50833742D02*
X196177847Y-50937914D01*
X195717914Y-51397847D01*
X195469000Y-51998778D01*
X195469000Y-52649222D01*
X195717914Y-53250153D01*
X196177847Y-53710086D01*
X196778778Y-53959000D01*
X197429222Y-53959000D01*
X197669401Y-53859515D01*
X197669400Y-57986700D01*
X193223858Y-57986700D01*
X193042792Y-57911700D01*
X192710608Y-57911700D01*
X192403710Y-58038821D01*
X192168821Y-58273710D01*
X192041700Y-58580608D01*
X192041700Y-58912792D01*
X192168821Y-59219690D01*
X192403710Y-59454579D01*
X192710608Y-59581700D01*
X193042792Y-59581700D01*
X193223858Y-59506700D01*
X197669400Y-59506700D01*
X197669400Y-60948485D01*
X197429222Y-60849000D01*
X196778778Y-60849000D01*
X196177847Y-61097914D01*
X195717914Y-61557847D01*
X195469000Y-62158778D01*
X195469000Y-62809222D01*
X195537823Y-62975375D01*
X190161599Y-68351600D01*
X186574352Y-68351600D01*
X186564877Y-68349715D01*
X186634300Y-68182114D01*
X186634300Y-67849930D01*
X186596456Y-67758566D01*
X186608288Y-67699080D01*
X186593400Y-67624232D01*
X186593400Y-66063440D01*
X187971000Y-66063440D01*
X188218765Y-66014157D01*
X188428809Y-65873809D01*
X188569157Y-65663765D01*
X188572275Y-65648092D01*
X188741493Y-65817310D01*
X189305670Y-66051000D01*
X189916330Y-66051000D01*
X190480507Y-65817310D01*
X190912310Y-65385507D01*
X191146000Y-64821330D01*
X191146000Y-64210670D01*
X190912310Y-63646493D01*
X190646000Y-63380183D01*
X190646000Y-57818000D01*
X192138235Y-57818000D01*
X192440137Y-57757948D01*
X192782493Y-57529193D01*
X193011248Y-57186837D01*
X193091576Y-56783000D01*
X193011248Y-56379163D01*
X192782493Y-56036807D01*
X192440137Y-55808052D01*
X192138235Y-55748000D01*
X190623083Y-55748000D01*
X190617148Y-55718163D01*
X190388393Y-55375807D01*
X190046037Y-55147052D01*
X189929876Y-55123946D01*
X190183290Y-55018979D01*
X190418179Y-54784090D01*
X190493180Y-54603021D01*
X193611573Y-51484629D01*
X193675029Y-51442229D01*
X193843004Y-51190837D01*
X193887100Y-50969152D01*
X193887100Y-50969147D01*
X193901988Y-50894300D01*
X193887100Y-50819453D01*
X193887100Y-48291501D01*
X196429340Y-50833742D01*
G36*
X188027110Y-54942179D02*
X188334008Y-55069300D01*
X188666192Y-55069300D01*
X188973090Y-54942179D01*
X189066800Y-54848469D01*
X189237310Y-55018979D01*
X189446538Y-55105644D01*
X189238364Y-55147052D01*
X188896008Y-55375807D01*
X188667253Y-55718163D01*
X188607200Y-56020065D01*
X188607200Y-56555413D01*
X188555724Y-56814200D01*
X188576001Y-56916139D01*
X188576000Y-63380183D01*
X188572275Y-63383908D01*
X188569157Y-63368235D01*
X188428809Y-63158191D01*
X188218765Y-63017843D01*
X187971000Y-62968560D01*
X187660209Y-62968560D01*
X187822679Y-62806090D01*
X187949800Y-62499192D01*
X187949800Y-62167008D01*
X187899800Y-62046297D01*
X187899800Y-54814869D01*
X188027110Y-54942179D01*
X188027110Y-54942179D01*
G37*
X188027110Y-54942179D02*
X188334008Y-55069300D01*
X188666192Y-55069300D01*
X188973090Y-54942179D01*
X189066800Y-54848469D01*
X189237310Y-55018979D01*
X189446538Y-55105644D01*
X189238364Y-55147052D01*
X188896008Y-55375807D01*
X188667253Y-55718163D01*
X188607200Y-56020065D01*
X188607200Y-56555413D01*
X188555724Y-56814200D01*
X188576001Y-56916139D01*
X188576000Y-63380183D01*
X188572275Y-63383908D01*
X188569157Y-63368235D01*
X188428809Y-63158191D01*
X188218765Y-63017843D01*
X187971000Y-62968560D01*
X187660209Y-62968560D01*
X187822679Y-62806090D01*
X187949800Y-62499192D01*
X187949800Y-62167008D01*
X187899800Y-62046297D01*
X187899800Y-54814869D01*
X188027110Y-54942179D01*
G36*
X163817468Y-51603625D02*
X163759000Y-51744778D01*
X163759000Y-52395222D01*
X164007914Y-52996153D01*
X164467847Y-53456086D01*
X164609001Y-53514554D01*
X164609001Y-54152600D01*
X164593622Y-54229916D01*
X164654546Y-54536207D01*
X164784251Y-54730324D01*
X164784254Y-54730327D01*
X164828048Y-54795869D01*
X164893590Y-54839663D01*
X172389326Y-62335400D01*
X166424102Y-62335400D01*
X167278324Y-61481179D01*
X167459390Y-61406179D01*
X167694279Y-61171290D01*
X167821400Y-60864392D01*
X167821400Y-60532208D01*
X167694279Y-60225310D01*
X167459390Y-59990421D01*
X167152492Y-59863300D01*
X166827752Y-59863300D01*
X166740979Y-59653810D01*
X166506090Y-59418921D01*
X166199192Y-59291800D01*
X165867008Y-59291800D01*
X165560110Y-59418921D01*
X165325221Y-59653810D01*
X165198100Y-59960708D01*
X165198100Y-59990398D01*
X165049800Y-60138698D01*
X165049800Y-57561401D01*
X165064688Y-57486554D01*
X165049800Y-57411707D01*
X165049800Y-57411703D01*
X165005704Y-57190018D01*
X164837729Y-56938626D01*
X164774273Y-56896226D01*
X160672586Y-52794540D01*
X160672584Y-52794537D01*
X160665135Y-52787088D01*
X160590135Y-52606021D01*
X160355246Y-52371132D01*
X160117254Y-52272553D01*
X160117254Y-51471400D01*
X163685243Y-51471400D01*
X163817468Y-51603625D01*
X163817468Y-51603625D01*
G37*
X163817468Y-51603625D02*
X163759000Y-51744778D01*
X163759000Y-52395222D01*
X164007914Y-52996153D01*
X164467847Y-53456086D01*
X164609001Y-53514554D01*
X164609001Y-54152600D01*
X164593622Y-54229916D01*
X164654546Y-54536207D01*
X164784251Y-54730324D01*
X164784254Y-54730327D01*
X164828048Y-54795869D01*
X164893590Y-54839663D01*
X172389326Y-62335400D01*
X166424102Y-62335400D01*
X167278324Y-61481179D01*
X167459390Y-61406179D01*
X167694279Y-61171290D01*
X167821400Y-60864392D01*
X167821400Y-60532208D01*
X167694279Y-60225310D01*
X167459390Y-59990421D01*
X167152492Y-59863300D01*
X166827752Y-59863300D01*
X166740979Y-59653810D01*
X166506090Y-59418921D01*
X166199192Y-59291800D01*
X165867008Y-59291800D01*
X165560110Y-59418921D01*
X165325221Y-59653810D01*
X165198100Y-59960708D01*
X165198100Y-59990398D01*
X165049800Y-60138698D01*
X165049800Y-57561401D01*
X165064688Y-57486554D01*
X165049800Y-57411707D01*
X165049800Y-57411703D01*
X165005704Y-57190018D01*
X164837729Y-56938626D01*
X164774273Y-56896226D01*
X160672586Y-52794540D01*
X160672584Y-52794537D01*
X160665135Y-52787088D01*
X160590135Y-52606021D01*
X160355246Y-52371132D01*
X160117254Y-52272553D01*
X160117254Y-51471400D01*
X163685243Y-51471400D01*
X163817468Y-51603625D01*
G36*
X179694501Y-50004949D02*
X179679612Y-50079800D01*
X179738597Y-50376337D01*
X179863653Y-50563496D01*
X179879900Y-50587812D01*
X179879901Y-54331091D01*
X179828200Y-54455908D01*
X179828200Y-54788092D01*
X179930451Y-55034948D01*
X178421397Y-56544001D01*
X178318862Y-56441466D01*
X177791439Y-56223000D01*
X177220561Y-56223000D01*
X176693138Y-56441466D01*
X176424101Y-56710503D01*
X176404157Y-56610235D01*
X176263809Y-56400191D01*
X176053765Y-56259843D01*
X175806000Y-56210560D01*
X174206000Y-56210560D01*
X173958235Y-56259843D01*
X173748191Y-56400191D01*
X173607843Y-56610235D01*
X173558560Y-56858000D01*
X173558560Y-58458000D01*
X173607843Y-58705765D01*
X173748191Y-58915809D01*
X173958235Y-59056157D01*
X174206000Y-59105440D01*
X175806000Y-59105440D01*
X176053765Y-59056157D01*
X176263809Y-58915809D01*
X176404157Y-58705765D01*
X176424101Y-58605497D01*
X176693138Y-58874534D01*
X177220561Y-59093000D01*
X177791439Y-59093000D01*
X178318862Y-58874534D01*
X178722534Y-58470862D01*
X178794844Y-58296291D01*
X178930229Y-58205829D01*
X178972631Y-58142370D01*
X179738200Y-57376801D01*
X179738201Y-61661944D01*
X177747848Y-59671591D01*
X177704053Y-59606047D01*
X177444392Y-59432546D01*
X177215416Y-59387000D01*
X177215412Y-59387000D01*
X177138100Y-59371622D01*
X177060788Y-59387000D01*
X173782608Y-59387000D01*
X170028990Y-55633383D01*
X170028990Y-54065698D01*
X170078990Y-53944987D01*
X170078990Y-53612803D01*
X169951869Y-53305905D01*
X169716980Y-53071016D01*
X169478988Y-52972437D01*
X169478988Y-51504600D01*
X172608443Y-51504600D01*
X172707468Y-51603625D01*
X172649000Y-51744778D01*
X172649000Y-52395222D01*
X172897914Y-52996153D01*
X173357847Y-53456086D01*
X173958778Y-53705000D01*
X174609222Y-53705000D01*
X175210153Y-53456086D01*
X175670086Y-52996153D01*
X175919000Y-52395222D01*
X175919000Y-51744778D01*
X175670086Y-51143847D01*
X175210153Y-50683914D01*
X174609222Y-50435000D01*
X173958778Y-50435000D01*
X173817625Y-50493468D01*
X173543348Y-50219191D01*
X173499553Y-50153647D01*
X173239892Y-49980146D01*
X173010916Y-49934600D01*
X173010912Y-49934600D01*
X172933600Y-49919222D01*
X172856288Y-49934600D01*
X169352058Y-49934600D01*
X169023157Y-49605700D01*
X178954853Y-49605700D01*
X179029700Y-49620588D01*
X179104547Y-49605700D01*
X179104552Y-49605700D01*
X179326237Y-49561604D01*
X179577629Y-49393629D01*
X179620031Y-49330170D01*
X179694500Y-49255701D01*
X179694501Y-50004949D01*
X179694501Y-50004949D01*
G37*
X179694501Y-50004949D02*
X179679612Y-50079800D01*
X179738597Y-50376337D01*
X179863653Y-50563496D01*
X179879900Y-50587812D01*
X179879901Y-54331091D01*
X179828200Y-54455908D01*
X179828200Y-54788092D01*
X179930451Y-55034948D01*
X178421397Y-56544001D01*
X178318862Y-56441466D01*
X177791439Y-56223000D01*
X177220561Y-56223000D01*
X176693138Y-56441466D01*
X176424101Y-56710503D01*
X176404157Y-56610235D01*
X176263809Y-56400191D01*
X176053765Y-56259843D01*
X175806000Y-56210560D01*
X174206000Y-56210560D01*
X173958235Y-56259843D01*
X173748191Y-56400191D01*
X173607843Y-56610235D01*
X173558560Y-56858000D01*
X173558560Y-58458000D01*
X173607843Y-58705765D01*
X173748191Y-58915809D01*
X173958235Y-59056157D01*
X174206000Y-59105440D01*
X175806000Y-59105440D01*
X176053765Y-59056157D01*
X176263809Y-58915809D01*
X176404157Y-58705765D01*
X176424101Y-58605497D01*
X176693138Y-58874534D01*
X177220561Y-59093000D01*
X177791439Y-59093000D01*
X178318862Y-58874534D01*
X178722534Y-58470862D01*
X178794844Y-58296291D01*
X178930229Y-58205829D01*
X178972631Y-58142370D01*
X179738200Y-57376801D01*
X179738201Y-61661944D01*
X177747848Y-59671591D01*
X177704053Y-59606047D01*
X177444392Y-59432546D01*
X177215416Y-59387000D01*
X177215412Y-59387000D01*
X177138100Y-59371622D01*
X177060788Y-59387000D01*
X173782608Y-59387000D01*
X170028990Y-55633383D01*
X170028990Y-54065698D01*
X170078990Y-53944987D01*
X170078990Y-53612803D01*
X169951869Y-53305905D01*
X169716980Y-53071016D01*
X169478988Y-52972437D01*
X169478988Y-51504600D01*
X172608443Y-51504600D01*
X172707468Y-51603625D01*
X172649000Y-51744778D01*
X172649000Y-52395222D01*
X172897914Y-52996153D01*
X173357847Y-53456086D01*
X173958778Y-53705000D01*
X174609222Y-53705000D01*
X175210153Y-53456086D01*
X175670086Y-52996153D01*
X175919000Y-52395222D01*
X175919000Y-51744778D01*
X175670086Y-51143847D01*
X175210153Y-50683914D01*
X174609222Y-50435000D01*
X173958778Y-50435000D01*
X173817625Y-50493468D01*
X173543348Y-50219191D01*
X173499553Y-50153647D01*
X173239892Y-49980146D01*
X173010916Y-49934600D01*
X173010912Y-49934600D01*
X172933600Y-49919222D01*
X172856288Y-49934600D01*
X169352058Y-49934600D01*
X169023157Y-49605700D01*
X178954853Y-49605700D01*
X179029700Y-49620588D01*
X179104547Y-49605700D01*
X179104552Y-49605700D01*
X179326237Y-49561604D01*
X179577629Y-49393629D01*
X179620031Y-49330170D01*
X179694500Y-49255701D01*
X179694501Y-50004949D01*
G36*
X107315000Y-57371113D02*
X107063896Y-57538895D01*
X106807000Y-57923366D01*
X106807000Y-34417000D01*
X107315000Y-34417000D01*
X107315000Y-57371113D01*
X107315000Y-57371113D01*
G37*
X107315000Y-57371113D02*
X107063896Y-57538895D01*
X106807000Y-57923366D01*
X106807000Y-34417000D01*
X107315000Y-34417000D01*
X107315000Y-57371113D01*
G36*
X106553000Y-58216375D02*
X106544700Y-58214724D01*
X106442765Y-58235000D01*
X106140863Y-58295052D01*
X105798507Y-58523807D01*
X105569752Y-58866163D01*
X105489424Y-59270000D01*
X105509700Y-59371936D01*
X105509700Y-59694589D01*
X104718890Y-60485400D01*
X99350599Y-60485400D01*
X99303698Y-60372170D01*
X98995000Y-60063472D01*
X98995000Y-57811134D01*
X99015276Y-57709199D01*
X98934948Y-57305363D01*
X98763934Y-57049423D01*
X98706193Y-56963007D01*
X98619776Y-56905265D01*
X97004337Y-55289827D01*
X96946593Y-55203407D01*
X96881539Y-55159940D01*
X97187130Y-54854349D01*
X97535000Y-54014515D01*
X97535000Y-53105485D01*
X97187130Y-52265651D01*
X96544349Y-51622870D01*
X95704515Y-51275000D01*
X94795485Y-51275000D01*
X94034600Y-51590168D01*
X94034600Y-48879110D01*
X96443371Y-46470339D01*
X96616302Y-46887830D01*
X96718472Y-46990000D01*
X96616302Y-47092170D01*
X96375000Y-47674724D01*
X96375000Y-48305276D01*
X96616302Y-48887830D01*
X97062170Y-49333698D01*
X97644724Y-49575000D01*
X98275276Y-49575000D01*
X98857830Y-49333698D01*
X99303698Y-48887830D01*
X99545000Y-48305276D01*
X99545000Y-47674724D01*
X99303698Y-47092170D01*
X99201528Y-46990000D01*
X99303698Y-46887830D01*
X99545000Y-46305276D01*
X99545000Y-45674724D01*
X99303698Y-45092170D01*
X98951528Y-44740000D01*
X99303698Y-44387830D01*
X99545000Y-43805276D01*
X99545000Y-43174724D01*
X99303698Y-42592170D01*
X98857830Y-42146302D01*
X98275276Y-41905000D01*
X97644724Y-41905000D01*
X97062170Y-42146302D01*
X96616302Y-42592170D01*
X96375000Y-43174724D01*
X96375000Y-43611289D01*
X92339825Y-47646465D01*
X92253408Y-47704207D01*
X92195666Y-47790624D01*
X92024652Y-48046564D01*
X91944324Y-48450400D01*
X91964601Y-48552339D01*
X91964600Y-54447366D01*
X91944324Y-54549300D01*
X91964600Y-54651234D01*
X92024652Y-54953136D01*
X92253407Y-55295493D01*
X92339827Y-55353237D01*
X93595965Y-56609376D01*
X93601244Y-56617277D01*
X93312870Y-56905651D01*
X92965000Y-57745485D01*
X92965000Y-58654515D01*
X93312870Y-59494349D01*
X93955651Y-60137130D01*
X94795485Y-60485000D01*
X95704515Y-60485000D01*
X96544349Y-60137130D01*
X96925000Y-59756479D01*
X96925000Y-60063472D01*
X96616302Y-60372170D01*
X96375000Y-60954724D01*
X96375000Y-61585276D01*
X96616302Y-62167830D01*
X96968472Y-62520000D01*
X96616302Y-62872170D01*
X96375000Y-63454724D01*
X96375000Y-64085276D01*
X96616302Y-64667830D01*
X96718472Y-64770000D01*
X96616302Y-64872170D01*
X96375000Y-65454724D01*
X96375000Y-66085276D01*
X96616302Y-66667830D01*
X97062170Y-67113698D01*
X97644724Y-67355000D01*
X98275276Y-67355000D01*
X98857830Y-67113698D01*
X99303698Y-66667830D01*
X99545000Y-66085276D01*
X99545000Y-65454724D01*
X99303698Y-64872170D01*
X99201528Y-64770000D01*
X99303698Y-64667830D01*
X99545000Y-64085276D01*
X99545000Y-63454724D01*
X99303698Y-62872170D01*
X98986928Y-62555400D01*
X103745572Y-62555400D01*
X103520493Y-62600171D01*
X102863896Y-63038895D01*
X102425171Y-63695492D01*
X102310000Y-64274497D01*
X102310000Y-65265502D01*
X102425171Y-65844507D01*
X102863895Y-66501105D01*
X103520492Y-66939829D01*
X104295000Y-67093888D01*
X105069507Y-66939829D01*
X105210401Y-66845687D01*
X105210401Y-68663161D01*
X105190124Y-68765100D01*
X105270452Y-69168936D01*
X105270453Y-69168937D01*
X105499208Y-69511293D01*
X105585625Y-69569035D01*
X106553000Y-70536410D01*
X106553000Y-77343000D01*
X86487000Y-77343000D01*
X86487000Y-70885485D01*
X92965000Y-70885485D01*
X92965000Y-71794515D01*
X93312870Y-72634349D01*
X93955651Y-73277130D01*
X94795485Y-73625000D01*
X95704515Y-73625000D01*
X96544349Y-73277130D01*
X97187130Y-72634349D01*
X97535000Y-71794515D01*
X97535000Y-70885485D01*
X97187130Y-70045651D01*
X96544349Y-69402870D01*
X95704515Y-69055000D01*
X94795485Y-69055000D01*
X93955651Y-69402870D01*
X93312870Y-70045651D01*
X92965000Y-70885485D01*
X86487000Y-70885485D01*
X86487000Y-39965485D01*
X92965000Y-39965485D01*
X92965000Y-40874515D01*
X93312870Y-41714349D01*
X93955651Y-42357130D01*
X94795485Y-42705000D01*
X95704515Y-42705000D01*
X96544349Y-42357130D01*
X97187130Y-41714349D01*
X97535000Y-40874515D01*
X97535000Y-39965485D01*
X97187130Y-39125651D01*
X96544349Y-38482870D01*
X95704515Y-38135000D01*
X94795485Y-38135000D01*
X93955651Y-38482870D01*
X93312870Y-39125651D01*
X92965000Y-39965485D01*
X86487000Y-39965485D01*
X86487000Y-34417000D01*
X106553000Y-34417000D01*
X106553000Y-58216375D01*
X106553000Y-58216375D01*
G37*
X106553000Y-58216375D02*
X106544700Y-58214724D01*
X106442765Y-58235000D01*
X106140863Y-58295052D01*
X105798507Y-58523807D01*
X105569752Y-58866163D01*
X105489424Y-59270000D01*
X105509700Y-59371936D01*
X105509700Y-59694589D01*
X104718890Y-60485400D01*
X99350599Y-60485400D01*
X99303698Y-60372170D01*
X98995000Y-60063472D01*
X98995000Y-57811134D01*
X99015276Y-57709199D01*
X98934948Y-57305363D01*
X98763934Y-57049423D01*
X98706193Y-56963007D01*
X98619776Y-56905265D01*
X97004337Y-55289827D01*
X96946593Y-55203407D01*
X96881539Y-55159940D01*
X97187130Y-54854349D01*
X97535000Y-54014515D01*
X97535000Y-53105485D01*
X97187130Y-52265651D01*
X96544349Y-51622870D01*
X95704515Y-51275000D01*
X94795485Y-51275000D01*
X94034600Y-51590168D01*
X94034600Y-48879110D01*
X96443371Y-46470339D01*
X96616302Y-46887830D01*
X96718472Y-46990000D01*
X96616302Y-47092170D01*
X96375000Y-47674724D01*
X96375000Y-48305276D01*
X96616302Y-48887830D01*
X97062170Y-49333698D01*
X97644724Y-49575000D01*
X98275276Y-49575000D01*
X98857830Y-49333698D01*
X99303698Y-48887830D01*
X99545000Y-48305276D01*
X99545000Y-47674724D01*
X99303698Y-47092170D01*
X99201528Y-46990000D01*
X99303698Y-46887830D01*
X99545000Y-46305276D01*
X99545000Y-45674724D01*
X99303698Y-45092170D01*
X98951528Y-44740000D01*
X99303698Y-44387830D01*
X99545000Y-43805276D01*
X99545000Y-43174724D01*
X99303698Y-42592170D01*
X98857830Y-42146302D01*
X98275276Y-41905000D01*
X97644724Y-41905000D01*
X97062170Y-42146302D01*
X96616302Y-42592170D01*
X96375000Y-43174724D01*
X96375000Y-43611289D01*
X92339825Y-47646465D01*
X92253408Y-47704207D01*
X92195666Y-47790624D01*
X92024652Y-48046564D01*
X91944324Y-48450400D01*
X91964601Y-48552339D01*
X91964600Y-54447366D01*
X91944324Y-54549300D01*
X91964600Y-54651234D01*
X92024652Y-54953136D01*
X92253407Y-55295493D01*
X92339827Y-55353237D01*
X93595965Y-56609376D01*
X93601244Y-56617277D01*
X93312870Y-56905651D01*
X92965000Y-57745485D01*
X92965000Y-58654515D01*
X93312870Y-59494349D01*
X93955651Y-60137130D01*
X94795485Y-60485000D01*
X95704515Y-60485000D01*
X96544349Y-60137130D01*
X96925000Y-59756479D01*
X96925000Y-60063472D01*
X96616302Y-60372170D01*
X96375000Y-60954724D01*
X96375000Y-61585276D01*
X96616302Y-62167830D01*
X96968472Y-62520000D01*
X96616302Y-62872170D01*
X96375000Y-63454724D01*
X96375000Y-64085276D01*
X96616302Y-64667830D01*
X96718472Y-64770000D01*
X96616302Y-64872170D01*
X96375000Y-65454724D01*
X96375000Y-66085276D01*
X96616302Y-66667830D01*
X97062170Y-67113698D01*
X97644724Y-67355000D01*
X98275276Y-67355000D01*
X98857830Y-67113698D01*
X99303698Y-66667830D01*
X99545000Y-66085276D01*
X99545000Y-65454724D01*
X99303698Y-64872170D01*
X99201528Y-64770000D01*
X99303698Y-64667830D01*
X99545000Y-64085276D01*
X99545000Y-63454724D01*
X99303698Y-62872170D01*
X98986928Y-62555400D01*
X103745572Y-62555400D01*
X103520493Y-62600171D01*
X102863896Y-63038895D01*
X102425171Y-63695492D01*
X102310000Y-64274497D01*
X102310000Y-65265502D01*
X102425171Y-65844507D01*
X102863895Y-66501105D01*
X103520492Y-66939829D01*
X104295000Y-67093888D01*
X105069507Y-66939829D01*
X105210401Y-66845687D01*
X105210401Y-68663161D01*
X105190124Y-68765100D01*
X105270452Y-69168936D01*
X105270453Y-69168937D01*
X105499208Y-69511293D01*
X105585625Y-69569035D01*
X106553000Y-70536410D01*
X106553000Y-77343000D01*
X86487000Y-77343000D01*
X86487000Y-70885485D01*
X92965000Y-70885485D01*
X92965000Y-71794515D01*
X93312870Y-72634349D01*
X93955651Y-73277130D01*
X94795485Y-73625000D01*
X95704515Y-73625000D01*
X96544349Y-73277130D01*
X97187130Y-72634349D01*
X97535000Y-71794515D01*
X97535000Y-70885485D01*
X97187130Y-70045651D01*
X96544349Y-69402870D01*
X95704515Y-69055000D01*
X94795485Y-69055000D01*
X93955651Y-69402870D01*
X93312870Y-70045651D01*
X92965000Y-70885485D01*
X86487000Y-70885485D01*
X86487000Y-39965485D01*
X92965000Y-39965485D01*
X92965000Y-40874515D01*
X93312870Y-41714349D01*
X93955651Y-42357130D01*
X94795485Y-42705000D01*
X95704515Y-42705000D01*
X96544349Y-42357130D01*
X97187130Y-41714349D01*
X97535000Y-40874515D01*
X97535000Y-39965485D01*
X97187130Y-39125651D01*
X96544349Y-38482870D01*
X95704515Y-38135000D01*
X94795485Y-38135000D01*
X93955651Y-38482870D01*
X93312870Y-39125651D01*
X92965000Y-39965485D01*
X86487000Y-39965485D01*
X86487000Y-34417000D01*
X106553000Y-34417000D01*
X106553000Y-58216375D01*
G04 #@! TD*
M02*
