M48
;DRILL file {KiCad (5.0.1-3-g963ef8bb5)} date 2021 December 01, Wednesday 04:01:36
;FORMAT={-:-/ absolute / inch / decimal}
FMAT,2
INCH,TZ
T1C0.0079
T2C0.0157
T3C0.0197
T4C0.0276
T5C0.0315
T6C0.0354
T7C0.0362
T8C0.0394
T9C0.0433
T10C0.0472
T11C0.0551
T12C0.0906
T13C0.0984
%
G90
G05
M72
T1
X3.57Y-1.73
X3.57Y-1.92
X3.57Y-2.42
X3.57Y-2.57
X3.9953Y-2.74
X4.Y-1.61
X4.15Y-2.8
X4.16Y-1.48
X4.19Y-1.9
X4.19Y-2.02
X4.3Y-1.69
X4.47Y-1.69
X4.59Y-1.76
X4.72Y-2.93
X4.7307Y-2.85
X4.7748Y-2.92
X4.8443Y-1.6365
X4.8482Y-1.58
X5.4225Y-1.6576
X5.4584Y-2.1451
X5.6263Y-1.6872
X5.746Y-1.5973
X5.746Y-2.8223
X5.7747Y-1.672
X5.794Y-1.6538
X5.8011Y-1.8181
X5.9036Y-1.7314
X5.9246Y-1.5128
X6.2259Y-2.7572
X6.2356Y-2.1209
X6.2372Y-1.35
X6.2746Y-2.6589
X6.2946Y-2.0897
X6.2958Y-2.7996
X6.3006Y-2.3488
X6.3397Y-2.4841
X6.3487Y-2.4534
X6.4023Y-2.4323
X6.4328Y-1.35
X6.4681Y-2.4099
X6.4801Y-1.6994
X6.5323Y-1.5681
X6.5367Y-2.3672
X6.5743Y-2.3897
X6.6457Y-1.6375
X6.6567Y-2.7575
X6.6631Y-2.1173
X6.6983Y-2.6996
X6.7159Y-2.6778
X6.7614Y-1.6168
X6.8199Y-1.8596
X6.8213Y-2.5653
X6.8334Y-2.5095
X6.8409Y-1.8828
X6.8601Y-2.9915
X6.9027Y-3.0408
X6.998Y-2.4541
X6.998Y-2.7815
X7.0134Y-2.9074
X7.033Y-1.6831
X7.0349Y-1.8775
X7.0949Y-2.7598
X7.1072Y-2.2292
X7.1072Y-2.4541
X7.1127Y-2.1505
X7.1186Y-2.7238
X7.1295Y-1.8824
X7.1429Y-1.9416
X7.154Y-1.8825
X7.1549Y-2.7346
X7.1666Y-1.9245
X7.1724Y-1.9008
X7.2064Y-2.0058
X7.2309Y-2.1129
X7.2595Y-2.0707
X7.2595Y-2.0951
X7.2595Y-2.4982
X7.2792Y-1.7137
X7.2956Y-2.0936
X7.3124Y-1.6415
X7.3149Y-2.6778
X7.3296Y-1.9599
X7.3425Y-2.906
X7.3565Y-2.1121
X7.3667Y-2.4541
X7.3772Y-1.6119
X7.3893Y-1.9668
X7.4213Y-2.1352
X7.4689Y-2.1382
X7.4707Y-2.0504
X7.496Y-2.0294
X7.5628Y-2.015
X7.5936Y-2.3129
X7.7929Y-1.5577
X7.8206Y-2.5299
X7.897Y-2.005
X7.909Y-1.8949
X7.9992Y-1.5577
X8.0775Y-1.5653
X8.0775Y-2.8362
X8.2603Y-2.8423
T2
X4.0832Y-1.3437
X4.5614Y-1.35
X4.57Y-1.54
X4.5964Y-1.47
X4.6189Y-1.53
X4.6189Y-1.6039
X4.72Y-3.04
X4.7763Y-1.5685
X4.8482Y-1.47
X4.95Y-1.95
X4.95Y-2.1
X5.13Y-1.95
X5.13Y-2.1
X5.63Y-2.7061
X5.6711Y-1.84
X5.6711Y-2.0584
X5.77Y-2.7055
X5.8248Y-1.6283
X6.1412Y-2.8315
X6.43Y-2.06
X6.7084Y-2.1871
X7.4158Y-2.1702
X7.4199Y-2.8315
X7.4662Y-2.2095
X7.4884Y-3.0214
X7.5605Y-2.2356
X7.6814Y-2.1033
X8.3047Y-1.45
X8.46Y-1.76
X8.46Y-2.2497
X8.52Y-1.44
X8.62Y-2.31
T5
X7.8Y-1.76
X7.9378Y-1.76
X6.89Y-2.27
X6.9884Y-2.27
X6.89Y-2.52
X6.9884Y-2.52
X7.42Y-1.76
X7.5578Y-1.76
X5.26Y-2.03
X5.4521Y-2.03
T6
X7.365Y-2.54
X7.465Y-2.54
T7
X3.8567Y-1.7122
X3.8567Y-1.8106
X3.8567Y-1.8894
X3.8567Y-1.9878
X3.8567Y-2.4122
X3.8567Y-2.5106
X3.8567Y-2.5894
X3.8567Y-2.6878
T8
X8.2Y-2.14
X8.2Y-2.24
X8.2Y-2.34
X8.2Y-2.44
X8.2Y-2.54
X8.2Y-2.64
X8.2Y-2.74
X7.885Y-2.11
X7.885Y-2.21
X8.2Y-1.66
X8.2Y-1.76
X8.2Y-1.86
X5.48Y-1.76
X5.58Y-1.76
X5.68Y-1.76
T9
X7.76Y-2.06
X7.76Y-2.2372
X8.0159Y-2.06
X8.0159Y-2.2372
X7.76Y-2.46
X7.76Y-2.6372
X8.0159Y-2.46
X8.0159Y-2.6372
T10
X6.5116Y-2.05
X6.61Y-1.8531
X6.7084Y-2.05
X6.8616Y-2.05
X6.96Y-1.8531
X7.0584Y-2.05
X6.1616Y-2.05
X6.26Y-1.8531
X6.3584Y-2.05
T11
X4.1061Y-2.3335
X4.1061Y-2.55
X4.2715Y-2.3335
X4.2715Y-2.55
X4.4368Y-2.3335
X4.4368Y-2.55
X4.6022Y-2.3335
X4.6022Y-2.55
X4.7675Y-2.3335
X4.7675Y-2.55
X4.9329Y-2.3335
X4.9329Y-2.55
X5.0982Y-2.3335
X5.0982Y-2.55
X5.2636Y-2.3335
X5.2636Y-2.55
X5.4289Y-2.3335
X5.4289Y-2.55
X5.5943Y-2.3335
X5.5943Y-2.55
X5.7596Y-2.3335
X5.7596Y-2.55
X5.925Y-2.3335
X5.925Y-2.55
T12
X3.75Y-1.5913
X3.75Y-2.1087
X3.75Y-2.2913
X3.75Y-2.8087
T13
X8.749Y-1.9661
X8.749Y-2.2378
X8.749Y-1.4661
X8.749Y-1.7378
T2
X8.4334Y-2.8339G85X8.4098Y-2.8339
G05
X8.4373Y-2.5661G85X8.4137Y-2.5661
G05
X8.5318Y-2.5661G85X8.5082Y-2.5661
G05
X8.5318Y-2.8339G85X8.5082Y-2.8339
G05
T3
X8.6873Y-2.4343G85X8.5889Y-2.4343
G05
X8.6873Y-2.9657G85X8.5889Y-2.9657
G05
X8.6696Y-2.6508G85X8.6696Y-2.7492
G05
T4
X8.3927Y-2.1G85X8.4518Y-2.1
G05
X8.6624Y-2.1295G85X8.6624Y-2.0705
G05
X8.3927Y-1.6G85X8.4518Y-1.6
G05
X8.6624Y-1.6295G85X8.6624Y-1.5705
G05
T0
M30
