G04 #@! TF.GenerationSoftware,KiCad,Pcbnew,(5.0.1-3-g963ef8bb5)*
G04 #@! TF.CreationDate,2021-12-01T04:01:33+09:00*
G04 #@! TF.ProjectId,Jasmin,4A61736D696E2E6B696361645F706362,rev?*
G04 #@! TF.SameCoordinates,Original*
G04 #@! TF.FileFunction,Soldermask,Top*
G04 #@! TF.FilePolarity,Negative*
%FSLAX46Y46*%
G04 Gerber Fmt 4.6, Leading zero omitted, Abs format (unit mm)*
G04 Created by KiCad (PCBNEW (5.0.1-3-g963ef8bb5)) date 2021 December 01, Wednesday 04:01:33*
%MOMM*%
%LPD*%
G01*
G04 APERTURE LIST*
%ADD10C,0.100000*%
G04 APERTURE END LIST*
D10*
G36*
X209441000Y-82471000D02*
X207359000Y-82471000D01*
X207359000Y-72469000D01*
X209441000Y-72469000D01*
X209441000Y-82471000D01*
X209441000Y-82471000D01*
G37*
G36*
X205481000Y-82471000D02*
X203399000Y-82471000D01*
X203399000Y-72469000D01*
X205481000Y-72469000D01*
X205481000Y-82471000D01*
X205481000Y-82471000D01*
G37*
G36*
X201521000Y-82471000D02*
X199439000Y-82471000D01*
X199439000Y-72469000D01*
X201521000Y-72469000D01*
X201521000Y-82471000D01*
X201521000Y-82471000D01*
G37*
G36*
X197561000Y-82471000D02*
X195479000Y-82471000D01*
X195479000Y-72469000D01*
X197561000Y-72469000D01*
X197561000Y-82471000D01*
X197561000Y-82471000D01*
G37*
G36*
X193601000Y-82471000D02*
X191519000Y-82471000D01*
X191519000Y-72469000D01*
X193601000Y-72469000D01*
X193601000Y-82471000D01*
X193601000Y-82471000D01*
G37*
G36*
X189641000Y-82471000D02*
X187559000Y-82471000D01*
X187559000Y-72469000D01*
X189641000Y-72469000D01*
X189641000Y-82471000D01*
X189641000Y-82471000D01*
G37*
G36*
X185681000Y-82471000D02*
X183599000Y-82471000D01*
X183599000Y-72469000D01*
X185681000Y-72469000D01*
X185681000Y-82471000D01*
X185681000Y-82471000D01*
G37*
G36*
X181721000Y-82471000D02*
X179639000Y-82471000D01*
X179639000Y-72469000D01*
X181721000Y-72469000D01*
X181721000Y-82471000D01*
X181721000Y-82471000D01*
G37*
G36*
X177761000Y-82471000D02*
X175679000Y-82471000D01*
X175679000Y-72469000D01*
X177761000Y-72469000D01*
X177761000Y-82471000D01*
X177761000Y-82471000D01*
G37*
G36*
X173801000Y-82471000D02*
X171719000Y-82471000D01*
X171719000Y-72469000D01*
X173801000Y-72469000D01*
X173801000Y-82471000D01*
X173801000Y-82471000D01*
G37*
G36*
X169841000Y-82471000D02*
X167759000Y-82471000D01*
X167759000Y-72469000D01*
X169841000Y-72469000D01*
X169841000Y-82471000D01*
X169841000Y-82471000D01*
G37*
G36*
X165881000Y-82471000D02*
X163799000Y-82471000D01*
X163799000Y-72469000D01*
X165881000Y-72469000D01*
X165881000Y-82471000D01*
X165881000Y-82471000D01*
G37*
G36*
X161921000Y-82471000D02*
X159839000Y-82471000D01*
X159839000Y-72469000D01*
X161921000Y-72469000D01*
X161921000Y-82471000D01*
X161921000Y-82471000D01*
G37*
G36*
X157961000Y-82471000D02*
X155879000Y-82471000D01*
X155879000Y-72469000D01*
X157961000Y-72469000D01*
X157961000Y-82471000D01*
X157961000Y-82471000D01*
G37*
G36*
X154001000Y-82471000D02*
X151919000Y-82471000D01*
X151919000Y-72469000D01*
X154001000Y-72469000D01*
X154001000Y-82471000D01*
X154001000Y-82471000D01*
G37*
G36*
X150041000Y-82471000D02*
X147959000Y-82471000D01*
X147959000Y-72469000D01*
X150041000Y-72469000D01*
X150041000Y-82471000D01*
X150041000Y-82471000D01*
G37*
G36*
X146081000Y-82471000D02*
X143999000Y-82471000D01*
X143999000Y-72469000D01*
X146081000Y-72469000D01*
X146081000Y-82471000D01*
X146081000Y-82471000D01*
G37*
G36*
X142121000Y-82471000D02*
X140039000Y-82471000D01*
X140039000Y-72469000D01*
X142121000Y-72469000D01*
X142121000Y-82471000D01*
X142121000Y-82471000D01*
G37*
G36*
X138161000Y-82471000D02*
X136079000Y-82471000D01*
X136079000Y-72469000D01*
X138161000Y-72469000D01*
X138161000Y-82471000D01*
X138161000Y-82471000D01*
G37*
G36*
X134201000Y-82471000D02*
X132119000Y-82471000D01*
X132119000Y-72469000D01*
X134201000Y-72469000D01*
X134201000Y-82471000D01*
X134201000Y-82471000D01*
G37*
G36*
X130241000Y-82471000D02*
X128159000Y-82471000D01*
X128159000Y-72469000D01*
X130241000Y-72469000D01*
X130241000Y-82471000D01*
X130241000Y-82471000D01*
G37*
G36*
X126281000Y-82471000D02*
X124199000Y-82471000D01*
X124199000Y-72469000D01*
X126281000Y-72469000D01*
X126281000Y-82471000D01*
X126281000Y-82471000D01*
G37*
G36*
X122321000Y-82471000D02*
X120239000Y-82471000D01*
X120239000Y-72469000D01*
X122321000Y-72469000D01*
X122321000Y-82471000D01*
X122321000Y-82471000D01*
G37*
G36*
X118361000Y-82471000D02*
X116279000Y-82471000D01*
X116279000Y-72469000D01*
X118361000Y-72469000D01*
X118361000Y-82471000D01*
X118361000Y-82471000D01*
G37*
G36*
X114401000Y-82471000D02*
X112319000Y-82471000D01*
X112319000Y-72469000D01*
X114401000Y-72469000D01*
X114401000Y-82471000D01*
X114401000Y-82471000D01*
G37*
G36*
X110441000Y-82471000D02*
X108359000Y-82471000D01*
X108359000Y-72469000D01*
X110441000Y-72469000D01*
X110441000Y-82471000D01*
X110441000Y-82471000D01*
G37*
G36*
X106481000Y-82471000D02*
X104399000Y-82471000D01*
X104399000Y-72469000D01*
X106481000Y-72469000D01*
X106481000Y-82471000D01*
X106481000Y-82471000D01*
G37*
G36*
X102521000Y-82471000D02*
X100439000Y-82471000D01*
X100439000Y-72469000D01*
X102521000Y-72469000D01*
X102521000Y-82471000D01*
X102521000Y-82471000D01*
G37*
G36*
X220815025Y-74540590D02*
X220966012Y-74586392D01*
X221105165Y-74660770D01*
X221227133Y-74760867D01*
X221327230Y-74882835D01*
X221401608Y-75021988D01*
X221447410Y-75172975D01*
X221462875Y-75330000D01*
X221447410Y-75487025D01*
X221401608Y-75638012D01*
X221327230Y-75777165D01*
X221227133Y-75899133D01*
X221105165Y-75999230D01*
X220966012Y-76073608D01*
X220815025Y-76119410D01*
X220697346Y-76131000D01*
X218118654Y-76131000D01*
X218000975Y-76119410D01*
X217849988Y-76073608D01*
X217710835Y-75999230D01*
X217588867Y-75899133D01*
X217488770Y-75777165D01*
X217414392Y-75638012D01*
X217368590Y-75487025D01*
X217353125Y-75330000D01*
X217368590Y-75172975D01*
X217414392Y-75021988D01*
X217488770Y-74882835D01*
X217588867Y-74760867D01*
X217710835Y-74660770D01*
X217849988Y-74586392D01*
X218000975Y-74540590D01*
X218118654Y-74529000D01*
X220697346Y-74529000D01*
X220815025Y-74540590D01*
X220815025Y-74540590D01*
G37*
G36*
X95746160Y-69704368D02*
X95746162Y-69704369D01*
X95746163Y-69704369D01*
X95860514Y-69751735D01*
X96055726Y-69832594D01*
X96334327Y-70018749D01*
X96571251Y-70255673D01*
X96757406Y-70534274D01*
X96885632Y-70843840D01*
X96951000Y-71172465D01*
X96951000Y-71507535D01*
X96885632Y-71836160D01*
X96757406Y-72145726D01*
X96571251Y-72424327D01*
X96334327Y-72661251D01*
X96055726Y-72847406D01*
X95860514Y-72928265D01*
X95746163Y-72975631D01*
X95746162Y-72975631D01*
X95746160Y-72975632D01*
X95417535Y-73041000D01*
X95082465Y-73041000D01*
X94753840Y-72975632D01*
X94753838Y-72975631D01*
X94753837Y-72975631D01*
X94639486Y-72928265D01*
X94444274Y-72847406D01*
X94165673Y-72661251D01*
X93928749Y-72424327D01*
X93742594Y-72145726D01*
X93614368Y-71836160D01*
X93549000Y-71507535D01*
X93549000Y-71172465D01*
X93614368Y-70843840D01*
X93742594Y-70534274D01*
X93928749Y-70255673D01*
X94165673Y-70018749D01*
X94444274Y-69832594D01*
X94639486Y-69751735D01*
X94753837Y-69704369D01*
X94753838Y-69704369D01*
X94753840Y-69704368D01*
X95082465Y-69639000D01*
X95417535Y-69639000D01*
X95746160Y-69704368D01*
X95746160Y-69704368D01*
G37*
G36*
X216481665Y-71232622D02*
X216555222Y-71239867D01*
X216696786Y-71282810D01*
X216827252Y-71352546D01*
X216941606Y-71446394D01*
X217035454Y-71560748D01*
X217105190Y-71691214D01*
X217148133Y-71832778D01*
X217162633Y-71980000D01*
X217148133Y-72127222D01*
X217105190Y-72268786D01*
X217035454Y-72399252D01*
X216941606Y-72513606D01*
X216827252Y-72607454D01*
X216696786Y-72677190D01*
X216555222Y-72720133D01*
X216481665Y-72727378D01*
X216444888Y-72731000D01*
X216371112Y-72731000D01*
X216334335Y-72727378D01*
X216260778Y-72720133D01*
X216119214Y-72677190D01*
X215988748Y-72607454D01*
X215874394Y-72513606D01*
X215780546Y-72399252D01*
X215710810Y-72268786D01*
X215667867Y-72127222D01*
X215653367Y-71980000D01*
X215667867Y-71832778D01*
X215710810Y-71691214D01*
X215780546Y-71560748D01*
X215874394Y-71446394D01*
X215988748Y-71352546D01*
X216119214Y-71282810D01*
X216260778Y-71239867D01*
X216334335Y-71232622D01*
X216371112Y-71229000D01*
X216444888Y-71229000D01*
X216481665Y-71232622D01*
X216481665Y-71232622D01*
G37*
G36*
X213981665Y-71232622D02*
X214055222Y-71239867D01*
X214196786Y-71282810D01*
X214327252Y-71352546D01*
X214441606Y-71446394D01*
X214535454Y-71560748D01*
X214605190Y-71691214D01*
X214648133Y-71832778D01*
X214662633Y-71980000D01*
X214648133Y-72127222D01*
X214605190Y-72268786D01*
X214535454Y-72399252D01*
X214441606Y-72513606D01*
X214327252Y-72607454D01*
X214196786Y-72677190D01*
X214055222Y-72720133D01*
X213981665Y-72727378D01*
X213944888Y-72731000D01*
X213871112Y-72731000D01*
X213834335Y-72727378D01*
X213760778Y-72720133D01*
X213619214Y-72677190D01*
X213488748Y-72607454D01*
X213374394Y-72513606D01*
X213280546Y-72399252D01*
X213210810Y-72268786D01*
X213167867Y-72127222D01*
X213153367Y-71980000D01*
X213167867Y-71832778D01*
X213210810Y-71691214D01*
X213280546Y-71560748D01*
X213374394Y-71446394D01*
X213488748Y-71352546D01*
X213619214Y-71282810D01*
X213760778Y-71239867D01*
X213834335Y-71232622D01*
X213871112Y-71229000D01*
X213944888Y-71229000D01*
X213981665Y-71232622D01*
X213981665Y-71232622D01*
G37*
G36*
X220365025Y-66540590D02*
X220516012Y-66586392D01*
X220655165Y-66660770D01*
X220777133Y-66760867D01*
X220877230Y-66882835D01*
X220951608Y-67021988D01*
X220997410Y-67172975D01*
X221009000Y-67290654D01*
X221009000Y-69869346D01*
X220997410Y-69987025D01*
X220951608Y-70138012D01*
X220877230Y-70277165D01*
X220777136Y-70399130D01*
X220777134Y-70399131D01*
X220777133Y-70399133D01*
X220777129Y-70399136D01*
X220655161Y-70499232D01*
X220516011Y-70573608D01*
X220365024Y-70619410D01*
X220208000Y-70634875D01*
X220050975Y-70619410D01*
X219899988Y-70573608D01*
X219760835Y-70499230D01*
X219638870Y-70399136D01*
X219638869Y-70399134D01*
X219638867Y-70399133D01*
X219575845Y-70322339D01*
X219538768Y-70277161D01*
X219464392Y-70138011D01*
X219418590Y-69987024D01*
X219407000Y-69869345D01*
X219407001Y-67290654D01*
X219418591Y-67172975D01*
X219464393Y-67021988D01*
X219538771Y-66882835D01*
X219638868Y-66760867D01*
X219760836Y-66660770D01*
X219899989Y-66586392D01*
X220050976Y-66540590D01*
X220208000Y-66525125D01*
X220365025Y-66540590D01*
X220365025Y-66540590D01*
G37*
G36*
X208390443Y-68701519D02*
X208456627Y-68708037D01*
X208569853Y-68742384D01*
X208626467Y-68759557D01*
X208765087Y-68833652D01*
X208782991Y-68843222D01*
X208818729Y-68872552D01*
X208920186Y-68955814D01*
X208995450Y-69047525D01*
X209032778Y-69093009D01*
X209032779Y-69093011D01*
X209116443Y-69249533D01*
X209116443Y-69249534D01*
X209167963Y-69419373D01*
X209185359Y-69596000D01*
X209167963Y-69772627D01*
X209149772Y-69832594D01*
X209116443Y-69942467D01*
X209092627Y-69987023D01*
X209032778Y-70098991D01*
X209005893Y-70131750D01*
X208920186Y-70236186D01*
X208836991Y-70304461D01*
X208782991Y-70348778D01*
X208782989Y-70348779D01*
X208626467Y-70432443D01*
X208569853Y-70449616D01*
X208456627Y-70483963D01*
X208390443Y-70490481D01*
X208324260Y-70497000D01*
X208235740Y-70497000D01*
X208169557Y-70490481D01*
X208103373Y-70483963D01*
X207990147Y-70449616D01*
X207933533Y-70432443D01*
X207777011Y-70348779D01*
X207777009Y-70348778D01*
X207723009Y-70304461D01*
X207639814Y-70236186D01*
X207554107Y-70131750D01*
X207527222Y-70098991D01*
X207467373Y-69987023D01*
X207443557Y-69942467D01*
X207410228Y-69832594D01*
X207392037Y-69772627D01*
X207374641Y-69596000D01*
X207392037Y-69419373D01*
X207443557Y-69249534D01*
X207443557Y-69249533D01*
X207527221Y-69093011D01*
X207527222Y-69093009D01*
X207564550Y-69047525D01*
X207639814Y-68955814D01*
X207741271Y-68872552D01*
X207777009Y-68843222D01*
X207794913Y-68833652D01*
X207933533Y-68759557D01*
X207990147Y-68742384D01*
X208103373Y-68708037D01*
X208169557Y-68701519D01*
X208235740Y-68695000D01*
X208324260Y-68695000D01*
X208390443Y-68701519D01*
X208390443Y-68701519D01*
G37*
G36*
X189724591Y-69328085D02*
X189758569Y-69338393D01*
X189789887Y-69355133D01*
X189817339Y-69377661D01*
X189839867Y-69405113D01*
X189856607Y-69436431D01*
X189866915Y-69470409D01*
X189871000Y-69511890D01*
X189871000Y-70188110D01*
X189866915Y-70229591D01*
X189856607Y-70263569D01*
X189839867Y-70294887D01*
X189817339Y-70322339D01*
X189789887Y-70344867D01*
X189758569Y-70361607D01*
X189724591Y-70371915D01*
X189683110Y-70376000D01*
X189081890Y-70376000D01*
X189040409Y-70371915D01*
X189006431Y-70361607D01*
X188975113Y-70344867D01*
X188947661Y-70322339D01*
X188925133Y-70294887D01*
X188908393Y-70263569D01*
X188898085Y-70229591D01*
X188894000Y-70188110D01*
X188894000Y-69511890D01*
X188898085Y-69470409D01*
X188908393Y-69436431D01*
X188925133Y-69405113D01*
X188947661Y-69377661D01*
X188975113Y-69355133D01*
X189006431Y-69338393D01*
X189040409Y-69328085D01*
X189081890Y-69324000D01*
X189683110Y-69324000D01*
X189724591Y-69328085D01*
X189724591Y-69328085D01*
G37*
G36*
X188149591Y-69328085D02*
X188183569Y-69338393D01*
X188214887Y-69355133D01*
X188242339Y-69377661D01*
X188264867Y-69405113D01*
X188281607Y-69436431D01*
X188291915Y-69470409D01*
X188296000Y-69511890D01*
X188296000Y-70188110D01*
X188291915Y-70229591D01*
X188281607Y-70263569D01*
X188264867Y-70294887D01*
X188242339Y-70322339D01*
X188214887Y-70344867D01*
X188183569Y-70361607D01*
X188149591Y-70371915D01*
X188108110Y-70376000D01*
X187506890Y-70376000D01*
X187465409Y-70371915D01*
X187431431Y-70361607D01*
X187400113Y-70344867D01*
X187372661Y-70322339D01*
X187350133Y-70294887D01*
X187333393Y-70263569D01*
X187323085Y-70229591D01*
X187319000Y-70188110D01*
X187319000Y-69511890D01*
X187323085Y-69470409D01*
X187333393Y-69436431D01*
X187350133Y-69405113D01*
X187372661Y-69377661D01*
X187400113Y-69355133D01*
X187431431Y-69338393D01*
X187465409Y-69328085D01*
X187506890Y-69324000D01*
X188108110Y-69324000D01*
X188149591Y-69328085D01*
X188149591Y-69328085D01*
G37*
G36*
X185279591Y-69328085D02*
X185313569Y-69338393D01*
X185344887Y-69355133D01*
X185372339Y-69377661D01*
X185394867Y-69405113D01*
X185411607Y-69436431D01*
X185421915Y-69470409D01*
X185426000Y-69511890D01*
X185426000Y-70188110D01*
X185421915Y-70229591D01*
X185411607Y-70263569D01*
X185394867Y-70294887D01*
X185372339Y-70322339D01*
X185344887Y-70344867D01*
X185313569Y-70361607D01*
X185279591Y-70371915D01*
X185238110Y-70376000D01*
X184636890Y-70376000D01*
X184595409Y-70371915D01*
X184561431Y-70361607D01*
X184530113Y-70344867D01*
X184502661Y-70322339D01*
X184480133Y-70294887D01*
X184463393Y-70263569D01*
X184453085Y-70229591D01*
X184449000Y-70188110D01*
X184449000Y-69511890D01*
X184453085Y-69470409D01*
X184463393Y-69436431D01*
X184480133Y-69405113D01*
X184502661Y-69377661D01*
X184530113Y-69355133D01*
X184561431Y-69338393D01*
X184595409Y-69328085D01*
X184636890Y-69324000D01*
X185238110Y-69324000D01*
X185279591Y-69328085D01*
X185279591Y-69328085D01*
G37*
G36*
X183704591Y-69328085D02*
X183738569Y-69338393D01*
X183769887Y-69355133D01*
X183797339Y-69377661D01*
X183819867Y-69405113D01*
X183836607Y-69436431D01*
X183846915Y-69470409D01*
X183851000Y-69511890D01*
X183851000Y-70188110D01*
X183846915Y-70229591D01*
X183836607Y-70263569D01*
X183819867Y-70294887D01*
X183797339Y-70322339D01*
X183769887Y-70344867D01*
X183738569Y-70361607D01*
X183704591Y-70371915D01*
X183663110Y-70376000D01*
X183061890Y-70376000D01*
X183020409Y-70371915D01*
X182986431Y-70361607D01*
X182955113Y-70344867D01*
X182927661Y-70322339D01*
X182905133Y-70294887D01*
X182888393Y-70263569D01*
X182878085Y-70229591D01*
X182874000Y-70188110D01*
X182874000Y-69511890D01*
X182878085Y-69470409D01*
X182888393Y-69436431D01*
X182905133Y-69405113D01*
X182927661Y-69377661D01*
X182955113Y-69355133D01*
X182986431Y-69338393D01*
X183020409Y-69328085D01*
X183061890Y-69324000D01*
X183663110Y-69324000D01*
X183704591Y-69328085D01*
X183704591Y-69328085D01*
G37*
G36*
X98251981Y-67307468D02*
X98434150Y-67382925D01*
X98598103Y-67492475D01*
X98737525Y-67631897D01*
X98847075Y-67795850D01*
X98922532Y-67978019D01*
X98961000Y-68171410D01*
X98961000Y-68368590D01*
X98922532Y-68561981D01*
X98847075Y-68744150D01*
X98737525Y-68908103D01*
X98598103Y-69047525D01*
X98434150Y-69157075D01*
X98251981Y-69232532D01*
X98058590Y-69271000D01*
X97861410Y-69271000D01*
X97668019Y-69232532D01*
X97485850Y-69157075D01*
X97321897Y-69047525D01*
X97182475Y-68908103D01*
X97072925Y-68744150D01*
X96997468Y-68561981D01*
X96959000Y-68368590D01*
X96959000Y-68171410D01*
X96997468Y-67978019D01*
X97072925Y-67795850D01*
X97182475Y-67631897D01*
X97321897Y-67492475D01*
X97485850Y-67382925D01*
X97668019Y-67307468D01*
X97861410Y-67269000D01*
X98058590Y-67269000D01*
X98251981Y-67307468D01*
X98251981Y-67307468D01*
G37*
G36*
X167963466Y-66563565D02*
X168002137Y-66575296D01*
X168037779Y-66594348D01*
X168069017Y-66619983D01*
X168094652Y-66651221D01*
X168113704Y-66686863D01*
X168125435Y-66725534D01*
X168130000Y-66771888D01*
X168130000Y-67848112D01*
X168125435Y-67894466D01*
X168113704Y-67933137D01*
X168094652Y-67968779D01*
X168069017Y-68000017D01*
X168037779Y-68025652D01*
X168002137Y-68044704D01*
X167963466Y-68056435D01*
X167917112Y-68061000D01*
X167265888Y-68061000D01*
X167219534Y-68056435D01*
X167180863Y-68044704D01*
X167145221Y-68025652D01*
X167113983Y-68000017D01*
X167088348Y-67968779D01*
X167069296Y-67933137D01*
X167057565Y-67894466D01*
X167053000Y-67848112D01*
X167053000Y-66771888D01*
X167057565Y-66725534D01*
X167069296Y-66686863D01*
X167088348Y-66651221D01*
X167113983Y-66619983D01*
X167145221Y-66594348D01*
X167180863Y-66575296D01*
X167219534Y-66563565D01*
X167265888Y-66559000D01*
X167917112Y-66559000D01*
X167963466Y-66563565D01*
X167963466Y-66563565D01*
G37*
G36*
X169838466Y-66563565D02*
X169877137Y-66575296D01*
X169912779Y-66594348D01*
X169944017Y-66619983D01*
X169969652Y-66651221D01*
X169988704Y-66686863D01*
X170000435Y-66725534D01*
X170005000Y-66771888D01*
X170005000Y-67848112D01*
X170000435Y-67894466D01*
X169988704Y-67933137D01*
X169969652Y-67968779D01*
X169944017Y-68000017D01*
X169912779Y-68025652D01*
X169877137Y-68044704D01*
X169838466Y-68056435D01*
X169792112Y-68061000D01*
X169140888Y-68061000D01*
X169094534Y-68056435D01*
X169055863Y-68044704D01*
X169020221Y-68025652D01*
X168988983Y-68000017D01*
X168963348Y-67968779D01*
X168944296Y-67933137D01*
X168932565Y-67894466D01*
X168928000Y-67848112D01*
X168928000Y-66771888D01*
X168932565Y-66725534D01*
X168944296Y-66686863D01*
X168963348Y-66651221D01*
X168988983Y-66619983D01*
X169020221Y-66594348D01*
X169055863Y-66575296D01*
X169094534Y-66563565D01*
X169140888Y-66559000D01*
X169792112Y-66559000D01*
X169838466Y-66563565D01*
X169838466Y-66563565D01*
G37*
G36*
X203910565Y-65973389D02*
X204101834Y-66052615D01*
X204273976Y-66167637D01*
X204420363Y-66314024D01*
X204535385Y-66486166D01*
X204614611Y-66677435D01*
X204655000Y-66880484D01*
X204655000Y-67087516D01*
X204614611Y-67290565D01*
X204535385Y-67481834D01*
X204420363Y-67653976D01*
X204273976Y-67800363D01*
X204101834Y-67915385D01*
X203910565Y-67994611D01*
X203707516Y-68035000D01*
X203500484Y-68035000D01*
X203297435Y-67994611D01*
X203106166Y-67915385D01*
X202934024Y-67800363D01*
X202787637Y-67653976D01*
X202672615Y-67481834D01*
X202593389Y-67290565D01*
X202553000Y-67087516D01*
X202553000Y-66880484D01*
X202593389Y-66677435D01*
X202672615Y-66486166D01*
X202787637Y-66314024D01*
X202934024Y-66167637D01*
X203106166Y-66052615D01*
X203297435Y-65973389D01*
X203500484Y-65933000D01*
X203707516Y-65933000D01*
X203910565Y-65973389D01*
X203910565Y-65973389D01*
G37*
G36*
X197410565Y-65973389D02*
X197601834Y-66052615D01*
X197773976Y-66167637D01*
X197920363Y-66314024D01*
X198035385Y-66486166D01*
X198114611Y-66677435D01*
X198155000Y-66880484D01*
X198155000Y-67087516D01*
X198114611Y-67290565D01*
X198035385Y-67481834D01*
X197920363Y-67653976D01*
X197773976Y-67800363D01*
X197601834Y-67915385D01*
X197410565Y-67994611D01*
X197207516Y-68035000D01*
X197000484Y-68035000D01*
X196797435Y-67994611D01*
X196606166Y-67915385D01*
X196434024Y-67800363D01*
X196287637Y-67653976D01*
X196172615Y-67481834D01*
X196093389Y-67290565D01*
X196053000Y-67087516D01*
X196053000Y-66880484D01*
X196093389Y-66677435D01*
X196172615Y-66486166D01*
X196287637Y-66314024D01*
X196434024Y-66167637D01*
X196606166Y-66052615D01*
X196797435Y-65973389D01*
X197000484Y-65933000D01*
X197207516Y-65933000D01*
X197410565Y-65973389D01*
X197410565Y-65973389D01*
G37*
G36*
X208390442Y-66161518D02*
X208456627Y-66168037D01*
X208569853Y-66202384D01*
X208626467Y-66219557D01*
X208672478Y-66244151D01*
X208782991Y-66303222D01*
X208818729Y-66332552D01*
X208920186Y-66415814D01*
X209003448Y-66517271D01*
X209032778Y-66553009D01*
X209032779Y-66553011D01*
X209116443Y-66709533D01*
X209132015Y-66760867D01*
X209167963Y-66879373D01*
X209185359Y-67056000D01*
X209167963Y-67232627D01*
X209150360Y-67290655D01*
X209116443Y-67402467D01*
X209074020Y-67481834D01*
X209032778Y-67558991D01*
X209005893Y-67591750D01*
X208920186Y-67696186D01*
X208836991Y-67764461D01*
X208782991Y-67808778D01*
X208782989Y-67808779D01*
X208626467Y-67892443D01*
X208618736Y-67894788D01*
X208456627Y-67943963D01*
X208390442Y-67950482D01*
X208324260Y-67957000D01*
X208235740Y-67957000D01*
X208169558Y-67950482D01*
X208103373Y-67943963D01*
X207941264Y-67894788D01*
X207933533Y-67892443D01*
X207777011Y-67808779D01*
X207777009Y-67808778D01*
X207723009Y-67764461D01*
X207639814Y-67696186D01*
X207554107Y-67591750D01*
X207527222Y-67558991D01*
X207485980Y-67481834D01*
X207443557Y-67402467D01*
X207409640Y-67290655D01*
X207392037Y-67232627D01*
X207374641Y-67056000D01*
X207392037Y-66879373D01*
X207427985Y-66760867D01*
X207443557Y-66709533D01*
X207527221Y-66553011D01*
X207527222Y-66553009D01*
X207556552Y-66517271D01*
X207639814Y-66415814D01*
X207741271Y-66332552D01*
X207777009Y-66303222D01*
X207887522Y-66244151D01*
X207933533Y-66219557D01*
X207990147Y-66202384D01*
X208103373Y-66168037D01*
X208169558Y-66161518D01*
X208235740Y-66155000D01*
X208324260Y-66155000D01*
X208390442Y-66161518D01*
X208390442Y-66161518D01*
G37*
G36*
X160590591Y-66788085D02*
X160624569Y-66798393D01*
X160655887Y-66815133D01*
X160683339Y-66837661D01*
X160705867Y-66865113D01*
X160722607Y-66896431D01*
X160732915Y-66930409D01*
X160737000Y-66971890D01*
X160737000Y-67648110D01*
X160732915Y-67689591D01*
X160722607Y-67723569D01*
X160705867Y-67754887D01*
X160683339Y-67782339D01*
X160655887Y-67804867D01*
X160624569Y-67821607D01*
X160590591Y-67831915D01*
X160549110Y-67836000D01*
X159947890Y-67836000D01*
X159906409Y-67831915D01*
X159872431Y-67821607D01*
X159841113Y-67804867D01*
X159813661Y-67782339D01*
X159791133Y-67754887D01*
X159774393Y-67723569D01*
X159764085Y-67689591D01*
X159760000Y-67648110D01*
X159760000Y-66971890D01*
X159764085Y-66930409D01*
X159774393Y-66896431D01*
X159791133Y-66865113D01*
X159813661Y-66837661D01*
X159841113Y-66815133D01*
X159872431Y-66798393D01*
X159906409Y-66788085D01*
X159947890Y-66784000D01*
X160549110Y-66784000D01*
X160590591Y-66788085D01*
X160590591Y-66788085D01*
G37*
G36*
X162165591Y-66788085D02*
X162199569Y-66798393D01*
X162230887Y-66815133D01*
X162258339Y-66837661D01*
X162280867Y-66865113D01*
X162297607Y-66896431D01*
X162307915Y-66930409D01*
X162312000Y-66971890D01*
X162312000Y-67648110D01*
X162307915Y-67689591D01*
X162297607Y-67723569D01*
X162280867Y-67754887D01*
X162258339Y-67782339D01*
X162230887Y-67804867D01*
X162199569Y-67821607D01*
X162165591Y-67831915D01*
X162124110Y-67836000D01*
X161522890Y-67836000D01*
X161481409Y-67831915D01*
X161447431Y-67821607D01*
X161416113Y-67804867D01*
X161388661Y-67782339D01*
X161366133Y-67754887D01*
X161349393Y-67723569D01*
X161339085Y-67689591D01*
X161335000Y-67648110D01*
X161335000Y-66971890D01*
X161339085Y-66930409D01*
X161349393Y-66896431D01*
X161366133Y-66865113D01*
X161388661Y-66837661D01*
X161416113Y-66815133D01*
X161447431Y-66798393D01*
X161481409Y-66788085D01*
X161522890Y-66784000D01*
X162124110Y-66784000D01*
X162165591Y-66788085D01*
X162165591Y-66788085D01*
G37*
G36*
X157034591Y-66788085D02*
X157068569Y-66798393D01*
X157099887Y-66815133D01*
X157127339Y-66837661D01*
X157149867Y-66865113D01*
X157166607Y-66896431D01*
X157176915Y-66930409D01*
X157181000Y-66971890D01*
X157181000Y-67648110D01*
X157176915Y-67689591D01*
X157166607Y-67723569D01*
X157149867Y-67754887D01*
X157127339Y-67782339D01*
X157099887Y-67804867D01*
X157068569Y-67821607D01*
X157034591Y-67831915D01*
X156993110Y-67836000D01*
X156391890Y-67836000D01*
X156350409Y-67831915D01*
X156316431Y-67821607D01*
X156285113Y-67804867D01*
X156257661Y-67782339D01*
X156235133Y-67754887D01*
X156218393Y-67723569D01*
X156208085Y-67689591D01*
X156204000Y-67648110D01*
X156204000Y-66971890D01*
X156208085Y-66930409D01*
X156218393Y-66896431D01*
X156235133Y-66865113D01*
X156257661Y-66837661D01*
X156285113Y-66815133D01*
X156316431Y-66798393D01*
X156350409Y-66788085D01*
X156391890Y-66784000D01*
X156993110Y-66784000D01*
X157034591Y-66788085D01*
X157034591Y-66788085D01*
G37*
G36*
X158609591Y-66788085D02*
X158643569Y-66798393D01*
X158674887Y-66815133D01*
X158702339Y-66837661D01*
X158724867Y-66865113D01*
X158741607Y-66896431D01*
X158751915Y-66930409D01*
X158756000Y-66971890D01*
X158756000Y-67648110D01*
X158751915Y-67689591D01*
X158741607Y-67723569D01*
X158724867Y-67754887D01*
X158702339Y-67782339D01*
X158674887Y-67804867D01*
X158643569Y-67821607D01*
X158609591Y-67831915D01*
X158568110Y-67836000D01*
X157966890Y-67836000D01*
X157925409Y-67831915D01*
X157891431Y-67821607D01*
X157860113Y-67804867D01*
X157832661Y-67782339D01*
X157810133Y-67754887D01*
X157793393Y-67723569D01*
X157783085Y-67689591D01*
X157779000Y-67648110D01*
X157779000Y-66971890D01*
X157783085Y-66930409D01*
X157793393Y-66896431D01*
X157810133Y-66865113D01*
X157832661Y-66837661D01*
X157860113Y-66815133D01*
X157891431Y-66798393D01*
X157925409Y-66788085D01*
X157966890Y-66784000D01*
X158568110Y-66784000D01*
X158609591Y-66788085D01*
X158609591Y-66788085D01*
G37*
G36*
X98251981Y-62807468D02*
X98434150Y-62882925D01*
X98598103Y-62992475D01*
X98737525Y-63131897D01*
X98847075Y-63295850D01*
X98922532Y-63478019D01*
X98961000Y-63671410D01*
X98961000Y-63868590D01*
X98922532Y-64061981D01*
X98847075Y-64244150D01*
X98737525Y-64408103D01*
X98598103Y-64547525D01*
X98428589Y-64660791D01*
X98418717Y-64666068D01*
X98399775Y-64681614D01*
X98384230Y-64700556D01*
X98372680Y-64722168D01*
X98365567Y-64745617D01*
X98363166Y-64770003D01*
X98365568Y-64794390D01*
X98372682Y-64817838D01*
X98384234Y-64839449D01*
X98399780Y-64858391D01*
X98418722Y-64873936D01*
X98428594Y-64879212D01*
X98598103Y-64992475D01*
X98737525Y-65131897D01*
X98847075Y-65295850D01*
X98922532Y-65478019D01*
X98961000Y-65671410D01*
X98961000Y-65868590D01*
X98922532Y-66061981D01*
X98847075Y-66244150D01*
X98737525Y-66408103D01*
X98598103Y-66547525D01*
X98434150Y-66657075D01*
X98307505Y-66709533D01*
X98251981Y-66732532D01*
X98058590Y-66771000D01*
X97861410Y-66771000D01*
X97668019Y-66732532D01*
X97612495Y-66709533D01*
X97485850Y-66657075D01*
X97321897Y-66547525D01*
X97182475Y-66408103D01*
X97072925Y-66244150D01*
X96997468Y-66061981D01*
X96959000Y-65868590D01*
X96959000Y-65671410D01*
X96997468Y-65478019D01*
X97072925Y-65295850D01*
X97182475Y-65131897D01*
X97321897Y-64992475D01*
X97491411Y-64879209D01*
X97501283Y-64873932D01*
X97520225Y-64858386D01*
X97535770Y-64839444D01*
X97547320Y-64817832D01*
X97554433Y-64794383D01*
X97556834Y-64769997D01*
X97554432Y-64745610D01*
X97547318Y-64722162D01*
X97535766Y-64700551D01*
X97520220Y-64681609D01*
X97501278Y-64666064D01*
X97491406Y-64660788D01*
X97321897Y-64547525D01*
X97182475Y-64408103D01*
X97072925Y-64244150D01*
X96997468Y-64061981D01*
X96959000Y-63868590D01*
X96959000Y-63671410D01*
X96997468Y-63478019D01*
X97072925Y-63295850D01*
X97182475Y-63131897D01*
X97321897Y-62992475D01*
X97485850Y-62882925D01*
X97668019Y-62807468D01*
X97861410Y-62769000D01*
X98058590Y-62769000D01*
X98251981Y-62807468D01*
X98251981Y-62807468D01*
G37*
G36*
X125569644Y-63089272D02*
X125734814Y-63139376D01*
X125833734Y-63169383D01*
X125914862Y-63212747D01*
X126077120Y-63299475D01*
X126178259Y-63382479D01*
X126290450Y-63474550D01*
X126367962Y-63569000D01*
X126465525Y-63687880D01*
X126513327Y-63777312D01*
X126595617Y-63931266D01*
X126614673Y-63994085D01*
X126675728Y-64195357D01*
X126679987Y-64238604D01*
X126696000Y-64401181D01*
X126696000Y-65138820D01*
X126691944Y-65180000D01*
X126675728Y-65344644D01*
X126638611Y-65467000D01*
X126595617Y-65608734D01*
X126562335Y-65671000D01*
X126465525Y-65852120D01*
X126409707Y-65920133D01*
X126290450Y-66065450D01*
X126181331Y-66155000D01*
X126077119Y-66240525D01*
X125939611Y-66314024D01*
X125833733Y-66370617D01*
X125753320Y-66395010D01*
X125569643Y-66450728D01*
X125295000Y-66477778D01*
X125020356Y-66450728D01*
X124836679Y-66395010D01*
X124756266Y-66370617D01*
X124650388Y-66314024D01*
X124512880Y-66240525D01*
X124424067Y-66167637D01*
X124299550Y-66065450D01*
X124190853Y-65933000D01*
X124124475Y-65852119D01*
X123994384Y-65608734D01*
X123994383Y-65608733D01*
X123967679Y-65520702D01*
X123914272Y-65344643D01*
X123895711Y-65156186D01*
X123894000Y-65138819D01*
X123894000Y-64401180D01*
X123909466Y-64244150D01*
X123914272Y-64195356D01*
X123994383Y-63931267D01*
X123994383Y-63931266D01*
X124076673Y-63777312D01*
X124124475Y-63687880D01*
X124192576Y-63604900D01*
X124299550Y-63474550D01*
X124431123Y-63366573D01*
X124512881Y-63299475D01*
X124675139Y-63212747D01*
X124756267Y-63169383D01*
X124855187Y-63139376D01*
X125020357Y-63089272D01*
X125295000Y-63062222D01*
X125569644Y-63089272D01*
X125569644Y-63089272D01*
G37*
G36*
X146569644Y-63089272D02*
X146734814Y-63139376D01*
X146833734Y-63169383D01*
X146914862Y-63212747D01*
X147077120Y-63299475D01*
X147178259Y-63382479D01*
X147290450Y-63474550D01*
X147367962Y-63569000D01*
X147465525Y-63687880D01*
X147513327Y-63777312D01*
X147595617Y-63931266D01*
X147614673Y-63994085D01*
X147675728Y-64195357D01*
X147679987Y-64238604D01*
X147696000Y-64401181D01*
X147696000Y-65138820D01*
X147691944Y-65180000D01*
X147675728Y-65344644D01*
X147638611Y-65467000D01*
X147595617Y-65608734D01*
X147562335Y-65671000D01*
X147465525Y-65852120D01*
X147409707Y-65920133D01*
X147290450Y-66065450D01*
X147181331Y-66155000D01*
X147077119Y-66240525D01*
X146939611Y-66314024D01*
X146833733Y-66370617D01*
X146753320Y-66395010D01*
X146569643Y-66450728D01*
X146295000Y-66477778D01*
X146020356Y-66450728D01*
X145836679Y-66395010D01*
X145756266Y-66370617D01*
X145650388Y-66314024D01*
X145512880Y-66240525D01*
X145424067Y-66167637D01*
X145299550Y-66065450D01*
X145190853Y-65933000D01*
X145124475Y-65852119D01*
X144994384Y-65608734D01*
X144994383Y-65608733D01*
X144967679Y-65520702D01*
X144914272Y-65344643D01*
X144895711Y-65156186D01*
X144894000Y-65138819D01*
X144894000Y-64401180D01*
X144909466Y-64244150D01*
X144914272Y-64195356D01*
X144994383Y-63931267D01*
X144994383Y-63931266D01*
X145076673Y-63777312D01*
X145124475Y-63687880D01*
X145192576Y-63604900D01*
X145299550Y-63474550D01*
X145431123Y-63366573D01*
X145512881Y-63299475D01*
X145675139Y-63212747D01*
X145756267Y-63169383D01*
X145855187Y-63139376D01*
X146020357Y-63089272D01*
X146295000Y-63062222D01*
X146569644Y-63089272D01*
X146569644Y-63089272D01*
G37*
G36*
X142369644Y-63089272D02*
X142534814Y-63139376D01*
X142633734Y-63169383D01*
X142714862Y-63212747D01*
X142877120Y-63299475D01*
X142978259Y-63382479D01*
X143090450Y-63474550D01*
X143167962Y-63569000D01*
X143265525Y-63687880D01*
X143313327Y-63777312D01*
X143395617Y-63931266D01*
X143414673Y-63994085D01*
X143475728Y-64195357D01*
X143479987Y-64238604D01*
X143496000Y-64401181D01*
X143496000Y-65138820D01*
X143491944Y-65180000D01*
X143475728Y-65344644D01*
X143438611Y-65467000D01*
X143395617Y-65608734D01*
X143362335Y-65671000D01*
X143265525Y-65852120D01*
X143209707Y-65920133D01*
X143090450Y-66065450D01*
X142981331Y-66155000D01*
X142877119Y-66240525D01*
X142739611Y-66314024D01*
X142633733Y-66370617D01*
X142553320Y-66395010D01*
X142369643Y-66450728D01*
X142095000Y-66477778D01*
X141820356Y-66450728D01*
X141636679Y-66395010D01*
X141556266Y-66370617D01*
X141450388Y-66314024D01*
X141312880Y-66240525D01*
X141224067Y-66167637D01*
X141099550Y-66065450D01*
X140990853Y-65933000D01*
X140924475Y-65852119D01*
X140794384Y-65608734D01*
X140794383Y-65608733D01*
X140767679Y-65520702D01*
X140714272Y-65344643D01*
X140695711Y-65156186D01*
X140694000Y-65138819D01*
X140694000Y-64401180D01*
X140709466Y-64244150D01*
X140714272Y-64195356D01*
X140794383Y-63931267D01*
X140794383Y-63931266D01*
X140876673Y-63777312D01*
X140924475Y-63687880D01*
X140992576Y-63604900D01*
X141099550Y-63474550D01*
X141231123Y-63366573D01*
X141312881Y-63299475D01*
X141475139Y-63212747D01*
X141556267Y-63169383D01*
X141655187Y-63139376D01*
X141820357Y-63089272D01*
X142095000Y-63062222D01*
X142369644Y-63089272D01*
X142369644Y-63089272D01*
G37*
G36*
X138169644Y-63089272D02*
X138334814Y-63139376D01*
X138433734Y-63169383D01*
X138514862Y-63212747D01*
X138677120Y-63299475D01*
X138778259Y-63382479D01*
X138890450Y-63474550D01*
X138967962Y-63569000D01*
X139065525Y-63687880D01*
X139113327Y-63777312D01*
X139195617Y-63931266D01*
X139214673Y-63994085D01*
X139275728Y-64195357D01*
X139279987Y-64238604D01*
X139296000Y-64401181D01*
X139296000Y-65138820D01*
X139291944Y-65180000D01*
X139275728Y-65344644D01*
X139238611Y-65467000D01*
X139195617Y-65608734D01*
X139162335Y-65671000D01*
X139065525Y-65852120D01*
X139009707Y-65920133D01*
X138890450Y-66065450D01*
X138781331Y-66155000D01*
X138677119Y-66240525D01*
X138539611Y-66314024D01*
X138433733Y-66370617D01*
X138353320Y-66395010D01*
X138169643Y-66450728D01*
X137895000Y-66477778D01*
X137620356Y-66450728D01*
X137436679Y-66395010D01*
X137356266Y-66370617D01*
X137250388Y-66314024D01*
X137112880Y-66240525D01*
X137024067Y-66167637D01*
X136899550Y-66065450D01*
X136790853Y-65933000D01*
X136724475Y-65852119D01*
X136594384Y-65608734D01*
X136594383Y-65608733D01*
X136567679Y-65520702D01*
X136514272Y-65344643D01*
X136495711Y-65156186D01*
X136494000Y-65138819D01*
X136494000Y-64401180D01*
X136509466Y-64244150D01*
X136514272Y-64195356D01*
X136594383Y-63931267D01*
X136594383Y-63931266D01*
X136676673Y-63777312D01*
X136724475Y-63687880D01*
X136792576Y-63604900D01*
X136899550Y-63474550D01*
X137031123Y-63366573D01*
X137112881Y-63299475D01*
X137275139Y-63212747D01*
X137356267Y-63169383D01*
X137455187Y-63139376D01*
X137620357Y-63089272D01*
X137895000Y-63062222D01*
X138169644Y-63089272D01*
X138169644Y-63089272D01*
G37*
G36*
X133969644Y-63089272D02*
X134134814Y-63139376D01*
X134233734Y-63169383D01*
X134314862Y-63212747D01*
X134477120Y-63299475D01*
X134578259Y-63382479D01*
X134690450Y-63474550D01*
X134767962Y-63569000D01*
X134865525Y-63687880D01*
X134913327Y-63777312D01*
X134995617Y-63931266D01*
X135014673Y-63994085D01*
X135075728Y-64195357D01*
X135079987Y-64238604D01*
X135096000Y-64401181D01*
X135096000Y-65138820D01*
X135091944Y-65180000D01*
X135075728Y-65344644D01*
X135038611Y-65467000D01*
X134995617Y-65608734D01*
X134962335Y-65671000D01*
X134865525Y-65852120D01*
X134809707Y-65920133D01*
X134690450Y-66065450D01*
X134581331Y-66155000D01*
X134477119Y-66240525D01*
X134339611Y-66314024D01*
X134233733Y-66370617D01*
X134153320Y-66395010D01*
X133969643Y-66450728D01*
X133695000Y-66477778D01*
X133420356Y-66450728D01*
X133236679Y-66395010D01*
X133156266Y-66370617D01*
X133050388Y-66314024D01*
X132912880Y-66240525D01*
X132824067Y-66167637D01*
X132699550Y-66065450D01*
X132590853Y-65933000D01*
X132524475Y-65852119D01*
X132394384Y-65608734D01*
X132394383Y-65608733D01*
X132367679Y-65520702D01*
X132314272Y-65344643D01*
X132295711Y-65156186D01*
X132294000Y-65138819D01*
X132294000Y-64401180D01*
X132309466Y-64244150D01*
X132314272Y-64195356D01*
X132394383Y-63931267D01*
X132394383Y-63931266D01*
X132476673Y-63777312D01*
X132524475Y-63687880D01*
X132592576Y-63604900D01*
X132699550Y-63474550D01*
X132831123Y-63366573D01*
X132912881Y-63299475D01*
X133075139Y-63212747D01*
X133156267Y-63169383D01*
X133255187Y-63139376D01*
X133420357Y-63089272D01*
X133695000Y-63062222D01*
X133969644Y-63089272D01*
X133969644Y-63089272D01*
G37*
G36*
X129769644Y-63089272D02*
X129934814Y-63139376D01*
X130033734Y-63169383D01*
X130114862Y-63212747D01*
X130277120Y-63299475D01*
X130378259Y-63382479D01*
X130490450Y-63474550D01*
X130567962Y-63569000D01*
X130665525Y-63687880D01*
X130713327Y-63777312D01*
X130795617Y-63931266D01*
X130814673Y-63994085D01*
X130875728Y-64195357D01*
X130879987Y-64238604D01*
X130896000Y-64401181D01*
X130896000Y-65138820D01*
X130891944Y-65180000D01*
X130875728Y-65344644D01*
X130838611Y-65467000D01*
X130795617Y-65608734D01*
X130762335Y-65671000D01*
X130665525Y-65852120D01*
X130609707Y-65920133D01*
X130490450Y-66065450D01*
X130381331Y-66155000D01*
X130277119Y-66240525D01*
X130139611Y-66314024D01*
X130033733Y-66370617D01*
X129953320Y-66395010D01*
X129769643Y-66450728D01*
X129495000Y-66477778D01*
X129220356Y-66450728D01*
X129036679Y-66395010D01*
X128956266Y-66370617D01*
X128850388Y-66314024D01*
X128712880Y-66240525D01*
X128624067Y-66167637D01*
X128499550Y-66065450D01*
X128390853Y-65933000D01*
X128324475Y-65852119D01*
X128194384Y-65608734D01*
X128194383Y-65608733D01*
X128167679Y-65520702D01*
X128114272Y-65344643D01*
X128095711Y-65156186D01*
X128094000Y-65138819D01*
X128094000Y-64401180D01*
X128109466Y-64244150D01*
X128114272Y-64195356D01*
X128194383Y-63931267D01*
X128194383Y-63931266D01*
X128276673Y-63777312D01*
X128324475Y-63687880D01*
X128392576Y-63604900D01*
X128499550Y-63474550D01*
X128631123Y-63366573D01*
X128712881Y-63299475D01*
X128875139Y-63212747D01*
X128956267Y-63169383D01*
X129055187Y-63139376D01*
X129220357Y-63089272D01*
X129495000Y-63062222D01*
X129769644Y-63089272D01*
X129769644Y-63089272D01*
G37*
G36*
X121369644Y-63089272D02*
X121534814Y-63139376D01*
X121633734Y-63169383D01*
X121714862Y-63212747D01*
X121877120Y-63299475D01*
X121978259Y-63382479D01*
X122090450Y-63474550D01*
X122167962Y-63569000D01*
X122265525Y-63687880D01*
X122313327Y-63777312D01*
X122395617Y-63931266D01*
X122414673Y-63994085D01*
X122475728Y-64195357D01*
X122479987Y-64238604D01*
X122496000Y-64401181D01*
X122496000Y-65138820D01*
X122491944Y-65180000D01*
X122475728Y-65344644D01*
X122438611Y-65467000D01*
X122395617Y-65608734D01*
X122362335Y-65671000D01*
X122265525Y-65852120D01*
X122209707Y-65920133D01*
X122090450Y-66065450D01*
X121981331Y-66155000D01*
X121877119Y-66240525D01*
X121739611Y-66314024D01*
X121633733Y-66370617D01*
X121553320Y-66395010D01*
X121369643Y-66450728D01*
X121095000Y-66477778D01*
X120820356Y-66450728D01*
X120636679Y-66395010D01*
X120556266Y-66370617D01*
X120450388Y-66314024D01*
X120312880Y-66240525D01*
X120224067Y-66167637D01*
X120099550Y-66065450D01*
X119990853Y-65933000D01*
X119924475Y-65852119D01*
X119794384Y-65608734D01*
X119794383Y-65608733D01*
X119767679Y-65520702D01*
X119714272Y-65344643D01*
X119695711Y-65156186D01*
X119694000Y-65138819D01*
X119694000Y-64401180D01*
X119709466Y-64244150D01*
X119714272Y-64195356D01*
X119794383Y-63931267D01*
X119794383Y-63931266D01*
X119876673Y-63777312D01*
X119924475Y-63687880D01*
X119992576Y-63604900D01*
X120099550Y-63474550D01*
X120231123Y-63366573D01*
X120312881Y-63299475D01*
X120475139Y-63212747D01*
X120556267Y-63169383D01*
X120655187Y-63139376D01*
X120820357Y-63089272D01*
X121095000Y-63062222D01*
X121369644Y-63089272D01*
X121369644Y-63089272D01*
G37*
G36*
X117169644Y-63089272D02*
X117334814Y-63139376D01*
X117433734Y-63169383D01*
X117514862Y-63212747D01*
X117677120Y-63299475D01*
X117778259Y-63382479D01*
X117890450Y-63474550D01*
X117967962Y-63569000D01*
X118065525Y-63687880D01*
X118113327Y-63777312D01*
X118195617Y-63931266D01*
X118214673Y-63994085D01*
X118275728Y-64195357D01*
X118279987Y-64238604D01*
X118296000Y-64401181D01*
X118296000Y-65138820D01*
X118291944Y-65180000D01*
X118275728Y-65344644D01*
X118238611Y-65467000D01*
X118195617Y-65608734D01*
X118162335Y-65671000D01*
X118065525Y-65852120D01*
X118009707Y-65920133D01*
X117890450Y-66065450D01*
X117781331Y-66155000D01*
X117677119Y-66240525D01*
X117539611Y-66314024D01*
X117433733Y-66370617D01*
X117353320Y-66395010D01*
X117169643Y-66450728D01*
X116895000Y-66477778D01*
X116620356Y-66450728D01*
X116436679Y-66395010D01*
X116356266Y-66370617D01*
X116250388Y-66314024D01*
X116112880Y-66240525D01*
X116024067Y-66167637D01*
X115899550Y-66065450D01*
X115790853Y-65933000D01*
X115724475Y-65852119D01*
X115594384Y-65608734D01*
X115594383Y-65608733D01*
X115567679Y-65520702D01*
X115514272Y-65344643D01*
X115495711Y-65156186D01*
X115494000Y-65138819D01*
X115494000Y-64401180D01*
X115509466Y-64244150D01*
X115514272Y-64195356D01*
X115594383Y-63931267D01*
X115594383Y-63931266D01*
X115676673Y-63777312D01*
X115724475Y-63687880D01*
X115792576Y-63604900D01*
X115899550Y-63474550D01*
X116031123Y-63366573D01*
X116112881Y-63299475D01*
X116275139Y-63212747D01*
X116356267Y-63169383D01*
X116455187Y-63139376D01*
X116620357Y-63089272D01*
X116895000Y-63062222D01*
X117169644Y-63089272D01*
X117169644Y-63089272D01*
G37*
G36*
X112969644Y-63089272D02*
X113134814Y-63139376D01*
X113233734Y-63169383D01*
X113314862Y-63212747D01*
X113477120Y-63299475D01*
X113578259Y-63382479D01*
X113690450Y-63474550D01*
X113767962Y-63569000D01*
X113865525Y-63687880D01*
X113913327Y-63777312D01*
X113995617Y-63931266D01*
X114014673Y-63994085D01*
X114075728Y-64195357D01*
X114079987Y-64238604D01*
X114096000Y-64401181D01*
X114096000Y-65138820D01*
X114091944Y-65180000D01*
X114075728Y-65344644D01*
X114038611Y-65467000D01*
X113995617Y-65608734D01*
X113962335Y-65671000D01*
X113865525Y-65852120D01*
X113809707Y-65920133D01*
X113690450Y-66065450D01*
X113581331Y-66155000D01*
X113477119Y-66240525D01*
X113339611Y-66314024D01*
X113233733Y-66370617D01*
X113153320Y-66395010D01*
X112969643Y-66450728D01*
X112695000Y-66477778D01*
X112420356Y-66450728D01*
X112236679Y-66395010D01*
X112156266Y-66370617D01*
X112050388Y-66314024D01*
X111912880Y-66240525D01*
X111824067Y-66167637D01*
X111699550Y-66065450D01*
X111590853Y-65933000D01*
X111524475Y-65852119D01*
X111394384Y-65608734D01*
X111394383Y-65608733D01*
X111367679Y-65520702D01*
X111314272Y-65344643D01*
X111295711Y-65156186D01*
X111294000Y-65138819D01*
X111294000Y-64401180D01*
X111309466Y-64244150D01*
X111314272Y-64195356D01*
X111394383Y-63931267D01*
X111394383Y-63931266D01*
X111476673Y-63777312D01*
X111524475Y-63687880D01*
X111592576Y-63604900D01*
X111699550Y-63474550D01*
X111831123Y-63366573D01*
X111912881Y-63299475D01*
X112075139Y-63212747D01*
X112156267Y-63169383D01*
X112255187Y-63139376D01*
X112420357Y-63089272D01*
X112695000Y-63062222D01*
X112969644Y-63089272D01*
X112969644Y-63089272D01*
G37*
G36*
X108769644Y-63089272D02*
X108934814Y-63139376D01*
X109033734Y-63169383D01*
X109114862Y-63212747D01*
X109277120Y-63299475D01*
X109378259Y-63382479D01*
X109490450Y-63474550D01*
X109567962Y-63569000D01*
X109665525Y-63687880D01*
X109713327Y-63777312D01*
X109795617Y-63931266D01*
X109814673Y-63994085D01*
X109875728Y-64195357D01*
X109879987Y-64238604D01*
X109896000Y-64401181D01*
X109896000Y-65138820D01*
X109891944Y-65180000D01*
X109875728Y-65344644D01*
X109838611Y-65467000D01*
X109795617Y-65608734D01*
X109762335Y-65671000D01*
X109665525Y-65852120D01*
X109609707Y-65920133D01*
X109490450Y-66065450D01*
X109381331Y-66155000D01*
X109277119Y-66240525D01*
X109139611Y-66314024D01*
X109033733Y-66370617D01*
X108953320Y-66395010D01*
X108769643Y-66450728D01*
X108495000Y-66477778D01*
X108220356Y-66450728D01*
X108036679Y-66395010D01*
X107956266Y-66370617D01*
X107850388Y-66314024D01*
X107712880Y-66240525D01*
X107624067Y-66167637D01*
X107499550Y-66065450D01*
X107390853Y-65933000D01*
X107324475Y-65852119D01*
X107194384Y-65608734D01*
X107194383Y-65608733D01*
X107167679Y-65520702D01*
X107114272Y-65344643D01*
X107095711Y-65156186D01*
X107094000Y-65138819D01*
X107094000Y-64401180D01*
X107109466Y-64244150D01*
X107114272Y-64195356D01*
X107194383Y-63931267D01*
X107194383Y-63931266D01*
X107276673Y-63777312D01*
X107324475Y-63687880D01*
X107392576Y-63604900D01*
X107499550Y-63474550D01*
X107631123Y-63366573D01*
X107712881Y-63299475D01*
X107875139Y-63212747D01*
X107956267Y-63169383D01*
X108055187Y-63139376D01*
X108220357Y-63089272D01*
X108495000Y-63062222D01*
X108769644Y-63089272D01*
X108769644Y-63089272D01*
G37*
G36*
X104569644Y-63089272D02*
X104734814Y-63139376D01*
X104833734Y-63169383D01*
X104914862Y-63212747D01*
X105077120Y-63299475D01*
X105178259Y-63382479D01*
X105290450Y-63474550D01*
X105367962Y-63569000D01*
X105465525Y-63687880D01*
X105513327Y-63777312D01*
X105595617Y-63931266D01*
X105614673Y-63994085D01*
X105675728Y-64195357D01*
X105679987Y-64238604D01*
X105696000Y-64401181D01*
X105696000Y-65138820D01*
X105691944Y-65180000D01*
X105675728Y-65344644D01*
X105638611Y-65467000D01*
X105595617Y-65608734D01*
X105562335Y-65671000D01*
X105465525Y-65852120D01*
X105409707Y-65920133D01*
X105290450Y-66065450D01*
X105181331Y-66155000D01*
X105077119Y-66240525D01*
X104939611Y-66314024D01*
X104833733Y-66370617D01*
X104753320Y-66395010D01*
X104569643Y-66450728D01*
X104295000Y-66477778D01*
X104020356Y-66450728D01*
X103836679Y-66395010D01*
X103756266Y-66370617D01*
X103650388Y-66314024D01*
X103512880Y-66240525D01*
X103424067Y-66167637D01*
X103299550Y-66065450D01*
X103190853Y-65933000D01*
X103124475Y-65852119D01*
X102994384Y-65608734D01*
X102994383Y-65608733D01*
X102967679Y-65520702D01*
X102914272Y-65344643D01*
X102895711Y-65156186D01*
X102894000Y-65138819D01*
X102894000Y-64401180D01*
X102909466Y-64244150D01*
X102914272Y-64195356D01*
X102994383Y-63931267D01*
X102994383Y-63931266D01*
X103076673Y-63777312D01*
X103124475Y-63687880D01*
X103192576Y-63604900D01*
X103299550Y-63474550D01*
X103431123Y-63366573D01*
X103512881Y-63299475D01*
X103675139Y-63212747D01*
X103756267Y-63169383D01*
X103855187Y-63139376D01*
X104020357Y-63089272D01*
X104295000Y-63062222D01*
X104569644Y-63089272D01*
X104569644Y-63089272D01*
G37*
G36*
X151769032Y-63072621D02*
X151798487Y-63081556D01*
X151825624Y-63096062D01*
X151849414Y-63115586D01*
X151868938Y-63139376D01*
X151883444Y-63166513D01*
X151892379Y-63195968D01*
X151896000Y-63232733D01*
X151896000Y-66307267D01*
X151892379Y-66344032D01*
X151883444Y-66373487D01*
X151868938Y-66400624D01*
X151849414Y-66424414D01*
X151825624Y-66443938D01*
X151798487Y-66458444D01*
X151769032Y-66467379D01*
X151732267Y-66471000D01*
X149257733Y-66471000D01*
X149220968Y-66467379D01*
X149191513Y-66458444D01*
X149164376Y-66443938D01*
X149140586Y-66424414D01*
X149121062Y-66400624D01*
X149106556Y-66373487D01*
X149097621Y-66344032D01*
X149094000Y-66307267D01*
X149094000Y-63232733D01*
X149097621Y-63195968D01*
X149106556Y-63166513D01*
X149121062Y-63139376D01*
X149140586Y-63115586D01*
X149164376Y-63096062D01*
X149191513Y-63081556D01*
X149220968Y-63072621D01*
X149257733Y-63069000D01*
X151732267Y-63069000D01*
X151769032Y-63072621D01*
X151769032Y-63072621D01*
G37*
G36*
X216481665Y-64432622D02*
X216555222Y-64439867D01*
X216696786Y-64482810D01*
X216827252Y-64552546D01*
X216941606Y-64646394D01*
X217035454Y-64760748D01*
X217105190Y-64891214D01*
X217148133Y-65032778D01*
X217162633Y-65180000D01*
X217148133Y-65327222D01*
X217105190Y-65468786D01*
X217035454Y-65599252D01*
X216941606Y-65713606D01*
X216827252Y-65807454D01*
X216696786Y-65877190D01*
X216555222Y-65920133D01*
X216481665Y-65927378D01*
X216444888Y-65931000D01*
X216371112Y-65931000D01*
X216334335Y-65927378D01*
X216260778Y-65920133D01*
X216119214Y-65877190D01*
X215988748Y-65807454D01*
X215874394Y-65713606D01*
X215780546Y-65599252D01*
X215710810Y-65468786D01*
X215667867Y-65327222D01*
X215653367Y-65180000D01*
X215667867Y-65032778D01*
X215710810Y-64891214D01*
X215780546Y-64760748D01*
X215874394Y-64646394D01*
X215988748Y-64552546D01*
X216119214Y-64482810D01*
X216260778Y-64439867D01*
X216334335Y-64432622D01*
X216371112Y-64429000D01*
X216444888Y-64429000D01*
X216481665Y-64432622D01*
X216481665Y-64432622D01*
G37*
G36*
X214081665Y-64432622D02*
X214155222Y-64439867D01*
X214296786Y-64482810D01*
X214427252Y-64552546D01*
X214541606Y-64646394D01*
X214635454Y-64760748D01*
X214705190Y-64891214D01*
X214748133Y-65032778D01*
X214762633Y-65180000D01*
X214748133Y-65327222D01*
X214705190Y-65468786D01*
X214635454Y-65599252D01*
X214541606Y-65713606D01*
X214427252Y-65807454D01*
X214296786Y-65877190D01*
X214155222Y-65920133D01*
X214081665Y-65927378D01*
X214044888Y-65931000D01*
X213971112Y-65931000D01*
X213934335Y-65927378D01*
X213860778Y-65920133D01*
X213719214Y-65877190D01*
X213588748Y-65807454D01*
X213474394Y-65713606D01*
X213380546Y-65599252D01*
X213310810Y-65468786D01*
X213267867Y-65327222D01*
X213253367Y-65180000D01*
X213267867Y-65032778D01*
X213310810Y-64891214D01*
X213380546Y-64760748D01*
X213474394Y-64646394D01*
X213588748Y-64552546D01*
X213719214Y-64482810D01*
X213860778Y-64439867D01*
X213934335Y-64432622D01*
X213971112Y-64429000D01*
X214044888Y-64429000D01*
X214081665Y-64432622D01*
X214081665Y-64432622D01*
G37*
G36*
X170150000Y-65671000D02*
X169448000Y-65671000D01*
X169448000Y-63569000D01*
X170150000Y-63569000D01*
X170150000Y-65671000D01*
X170150000Y-65671000D01*
G37*
G36*
X168880000Y-65671000D02*
X168178000Y-65671000D01*
X168178000Y-63569000D01*
X168880000Y-63569000D01*
X168880000Y-65671000D01*
X168880000Y-65671000D01*
G37*
G36*
X167610000Y-65671000D02*
X166908000Y-65671000D01*
X166908000Y-63569000D01*
X167610000Y-63569000D01*
X167610000Y-65671000D01*
X167610000Y-65671000D01*
G37*
G36*
X166340000Y-65671000D02*
X165638000Y-65671000D01*
X165638000Y-63569000D01*
X166340000Y-63569000D01*
X166340000Y-65671000D01*
X166340000Y-65671000D01*
G37*
G36*
X165070000Y-65671000D02*
X164368000Y-65671000D01*
X164368000Y-63569000D01*
X165070000Y-63569000D01*
X165070000Y-65671000D01*
X165070000Y-65671000D01*
G37*
G36*
X163800000Y-65671000D02*
X163098000Y-65671000D01*
X163098000Y-63569000D01*
X163800000Y-63569000D01*
X163800000Y-65671000D01*
X163800000Y-65671000D01*
G37*
G36*
X162530000Y-65671000D02*
X161828000Y-65671000D01*
X161828000Y-63569000D01*
X162530000Y-63569000D01*
X162530000Y-65671000D01*
X162530000Y-65671000D01*
G37*
G36*
X161260000Y-65671000D02*
X160558000Y-65671000D01*
X160558000Y-63569000D01*
X161260000Y-63569000D01*
X161260000Y-65671000D01*
X161260000Y-65671000D01*
G37*
G36*
X159990000Y-65671000D02*
X159288000Y-65671000D01*
X159288000Y-63569000D01*
X159990000Y-63569000D01*
X159990000Y-65671000D01*
X159990000Y-65671000D01*
G37*
G36*
X158720000Y-65671000D02*
X158018000Y-65671000D01*
X158018000Y-63569000D01*
X158720000Y-63569000D01*
X158720000Y-65671000D01*
X158720000Y-65671000D01*
G37*
G36*
X157450000Y-65671000D02*
X156748000Y-65671000D01*
X156748000Y-63569000D01*
X157450000Y-63569000D01*
X157450000Y-65671000D01*
X157450000Y-65671000D01*
G37*
G36*
X156180000Y-65671000D02*
X155478000Y-65671000D01*
X155478000Y-63569000D01*
X156180000Y-63569000D01*
X156180000Y-65671000D01*
X156180000Y-65671000D01*
G37*
G36*
X189888396Y-63601546D02*
X190061466Y-63673234D01*
X190217230Y-63777312D01*
X190349688Y-63909770D01*
X190453766Y-64065534D01*
X190525454Y-64238604D01*
X190562000Y-64422333D01*
X190562000Y-64609667D01*
X190525454Y-64793396D01*
X190453766Y-64966466D01*
X190349688Y-65122230D01*
X190217230Y-65254688D01*
X190061466Y-65358766D01*
X189888396Y-65430454D01*
X189704667Y-65467000D01*
X189517333Y-65467000D01*
X189333604Y-65430454D01*
X189160534Y-65358766D01*
X189004770Y-65254688D01*
X188872312Y-65122230D01*
X188768234Y-64966466D01*
X188696546Y-64793396D01*
X188660000Y-64609667D01*
X188660000Y-64422333D01*
X188696546Y-64238604D01*
X188768234Y-64065534D01*
X188872312Y-63909770D01*
X189004770Y-63777312D01*
X189160534Y-63673234D01*
X189333604Y-63601546D01*
X189517333Y-63565000D01*
X189704667Y-63565000D01*
X189888396Y-63601546D01*
X189888396Y-63601546D01*
G37*
G36*
X188022000Y-65467000D02*
X186120000Y-65467000D01*
X186120000Y-63565000D01*
X188022000Y-63565000D01*
X188022000Y-65467000D01*
X188022000Y-65467000D01*
G37*
G36*
X208390443Y-63621519D02*
X208456627Y-63628037D01*
X208569853Y-63662384D01*
X208626467Y-63679557D01*
X208765087Y-63753652D01*
X208782991Y-63763222D01*
X208818729Y-63792552D01*
X208920186Y-63875814D01*
X208965694Y-63931267D01*
X209032778Y-64013009D01*
X209032779Y-64013011D01*
X209116443Y-64169533D01*
X209116443Y-64169534D01*
X209167963Y-64339373D01*
X209185359Y-64516000D01*
X209167963Y-64692627D01*
X209144493Y-64769997D01*
X209116443Y-64862467D01*
X209060853Y-64966467D01*
X209032778Y-65018991D01*
X209017746Y-65037307D01*
X208920186Y-65156186D01*
X208818729Y-65239448D01*
X208782991Y-65268778D01*
X208782989Y-65268779D01*
X208626467Y-65352443D01*
X208605622Y-65358766D01*
X208456627Y-65403963D01*
X208390443Y-65410481D01*
X208324260Y-65417000D01*
X208235740Y-65417000D01*
X208169557Y-65410481D01*
X208103373Y-65403963D01*
X207954378Y-65358766D01*
X207933533Y-65352443D01*
X207777011Y-65268779D01*
X207777009Y-65268778D01*
X207741271Y-65239448D01*
X207639814Y-65156186D01*
X207542254Y-65037307D01*
X207527222Y-65018991D01*
X207499147Y-64966467D01*
X207443557Y-64862467D01*
X207415507Y-64769997D01*
X207392037Y-64692627D01*
X207374641Y-64516000D01*
X207392037Y-64339373D01*
X207443557Y-64169534D01*
X207443557Y-64169533D01*
X207527221Y-64013011D01*
X207527222Y-64013009D01*
X207594306Y-63931267D01*
X207639814Y-63875814D01*
X207741271Y-63792552D01*
X207777009Y-63763222D01*
X207794913Y-63753652D01*
X207933533Y-63679557D01*
X207990147Y-63662384D01*
X208103373Y-63628037D01*
X208169557Y-63621519D01*
X208235740Y-63615000D01*
X208324260Y-63615000D01*
X208390443Y-63621519D01*
X208390443Y-63621519D01*
G37*
G36*
X183450591Y-63994085D02*
X183484569Y-64004393D01*
X183515887Y-64021133D01*
X183543339Y-64043661D01*
X183565867Y-64071113D01*
X183582607Y-64102431D01*
X183592915Y-64136409D01*
X183597000Y-64177890D01*
X183597000Y-64854110D01*
X183592915Y-64895591D01*
X183582607Y-64929569D01*
X183565867Y-64960887D01*
X183543339Y-64988339D01*
X183515887Y-65010867D01*
X183484569Y-65027607D01*
X183450591Y-65037915D01*
X183409110Y-65042000D01*
X182807890Y-65042000D01*
X182766409Y-65037915D01*
X182732431Y-65027607D01*
X182701113Y-65010867D01*
X182673661Y-64988339D01*
X182651133Y-64960887D01*
X182634393Y-64929569D01*
X182624085Y-64895591D01*
X182620000Y-64854110D01*
X182620000Y-64177890D01*
X182624085Y-64136409D01*
X182634393Y-64102431D01*
X182651133Y-64071113D01*
X182673661Y-64043661D01*
X182701113Y-64021133D01*
X182732431Y-64004393D01*
X182766409Y-63994085D01*
X182807890Y-63990000D01*
X183409110Y-63990000D01*
X183450591Y-63994085D01*
X183450591Y-63994085D01*
G37*
G36*
X185025591Y-63994085D02*
X185059569Y-64004393D01*
X185090887Y-64021133D01*
X185118339Y-64043661D01*
X185140867Y-64071113D01*
X185157607Y-64102431D01*
X185167915Y-64136409D01*
X185172000Y-64177890D01*
X185172000Y-64854110D01*
X185167915Y-64895591D01*
X185157607Y-64929569D01*
X185140867Y-64960887D01*
X185118339Y-64988339D01*
X185090887Y-65010867D01*
X185059569Y-65027607D01*
X185025591Y-65037915D01*
X184984110Y-65042000D01*
X184382890Y-65042000D01*
X184341409Y-65037915D01*
X184307431Y-65027607D01*
X184276113Y-65010867D01*
X184248661Y-64988339D01*
X184226133Y-64960887D01*
X184209393Y-64929569D01*
X184199085Y-64895591D01*
X184195000Y-64854110D01*
X184195000Y-64177890D01*
X184199085Y-64136409D01*
X184209393Y-64102431D01*
X184226133Y-64071113D01*
X184248661Y-64043661D01*
X184276113Y-64021133D01*
X184307431Y-64004393D01*
X184341409Y-63994085D01*
X184382890Y-63990000D01*
X184984110Y-63990000D01*
X185025591Y-63994085D01*
X185025591Y-63994085D01*
G37*
G36*
X177754228Y-63189703D02*
X177909100Y-63253853D01*
X178048481Y-63346985D01*
X178167015Y-63465519D01*
X178260147Y-63604900D01*
X178324297Y-63759772D01*
X178357000Y-63924184D01*
X178357000Y-64091816D01*
X178324297Y-64256228D01*
X178260147Y-64411100D01*
X178167015Y-64550481D01*
X178048481Y-64669015D01*
X177909100Y-64762147D01*
X177754228Y-64826297D01*
X177589816Y-64859000D01*
X177422184Y-64859000D01*
X177257772Y-64826297D01*
X177102900Y-64762147D01*
X176963519Y-64669015D01*
X176844985Y-64550481D01*
X176751853Y-64411100D01*
X176687703Y-64256228D01*
X176655000Y-64091816D01*
X176655000Y-63924184D01*
X176687703Y-63759772D01*
X176751853Y-63604900D01*
X176844985Y-63465519D01*
X176963519Y-63346985D01*
X177102900Y-63253853D01*
X177257772Y-63189703D01*
X177422184Y-63157000D01*
X177589816Y-63157000D01*
X177754228Y-63189703D01*
X177754228Y-63189703D01*
G37*
G36*
X175857000Y-64859000D02*
X174155000Y-64859000D01*
X174155000Y-63157000D01*
X175857000Y-63157000D01*
X175857000Y-64859000D01*
X175857000Y-64859000D01*
G37*
G36*
X203910565Y-61473389D02*
X204101834Y-61552615D01*
X204273976Y-61667637D01*
X204420363Y-61814024D01*
X204535385Y-61986166D01*
X204614611Y-62177435D01*
X204655000Y-62380484D01*
X204655000Y-62587516D01*
X204614611Y-62790565D01*
X204535385Y-62981834D01*
X204420363Y-63153976D01*
X204273976Y-63300363D01*
X204101834Y-63415385D01*
X203910565Y-63494611D01*
X203707516Y-63535000D01*
X203500484Y-63535000D01*
X203297435Y-63494611D01*
X203106166Y-63415385D01*
X202934024Y-63300363D01*
X202787637Y-63153976D01*
X202672615Y-62981834D01*
X202593389Y-62790565D01*
X202553000Y-62587516D01*
X202553000Y-62380484D01*
X202593389Y-62177435D01*
X202672615Y-61986166D01*
X202787637Y-61814024D01*
X202934024Y-61667637D01*
X203106166Y-61552615D01*
X203297435Y-61473389D01*
X203500484Y-61433000D01*
X203707516Y-61433000D01*
X203910565Y-61473389D01*
X203910565Y-61473389D01*
G37*
G36*
X197410565Y-61473389D02*
X197601834Y-61552615D01*
X197773976Y-61667637D01*
X197920363Y-61814024D01*
X198035385Y-61986166D01*
X198114611Y-62177435D01*
X198155000Y-62380484D01*
X198155000Y-62587516D01*
X198114611Y-62790565D01*
X198035385Y-62981834D01*
X197920363Y-63153976D01*
X197773976Y-63300363D01*
X197601834Y-63415385D01*
X197410565Y-63494611D01*
X197207516Y-63535000D01*
X197000484Y-63535000D01*
X196797435Y-63494611D01*
X196606166Y-63415385D01*
X196434024Y-63300363D01*
X196287637Y-63153976D01*
X196172615Y-62981834D01*
X196093389Y-62790565D01*
X196053000Y-62587516D01*
X196053000Y-62380484D01*
X196093389Y-62177435D01*
X196172615Y-61986166D01*
X196287637Y-61814024D01*
X196434024Y-61667637D01*
X196606166Y-61552615D01*
X196797435Y-61473389D01*
X197000484Y-61433000D01*
X197207516Y-61433000D01*
X197410565Y-61473389D01*
X197410565Y-61473389D01*
G37*
G36*
X208390442Y-61081518D02*
X208456627Y-61088037D01*
X208569853Y-61122384D01*
X208626467Y-61139557D01*
X208765087Y-61213652D01*
X208782991Y-61223222D01*
X208818729Y-61252552D01*
X208920186Y-61335814D01*
X208999943Y-61433000D01*
X209032778Y-61473009D01*
X209032779Y-61473011D01*
X209116443Y-61629533D01*
X209116443Y-61629534D01*
X209167963Y-61799373D01*
X209185359Y-61976000D01*
X209167963Y-62152627D01*
X209143724Y-62232532D01*
X209116443Y-62322467D01*
X209042348Y-62461087D01*
X209032778Y-62478991D01*
X209016169Y-62499229D01*
X208920186Y-62616186D01*
X208818729Y-62699448D01*
X208782991Y-62728778D01*
X208782989Y-62728779D01*
X208626467Y-62812443D01*
X208569853Y-62829616D01*
X208456627Y-62863963D01*
X208390443Y-62870481D01*
X208324260Y-62877000D01*
X208235740Y-62877000D01*
X208169557Y-62870481D01*
X208103373Y-62863963D01*
X207990147Y-62829616D01*
X207933533Y-62812443D01*
X207777011Y-62728779D01*
X207777009Y-62728778D01*
X207741271Y-62699448D01*
X207639814Y-62616186D01*
X207543831Y-62499229D01*
X207527222Y-62478991D01*
X207517652Y-62461087D01*
X207443557Y-62322467D01*
X207416276Y-62232532D01*
X207392037Y-62152627D01*
X207374641Y-61976000D01*
X207392037Y-61799373D01*
X207443557Y-61629534D01*
X207443557Y-61629533D01*
X207527221Y-61473011D01*
X207527222Y-61473009D01*
X207560057Y-61433000D01*
X207639814Y-61335814D01*
X207741271Y-61252552D01*
X207777009Y-61223222D01*
X207794913Y-61213652D01*
X207933533Y-61139557D01*
X207990147Y-61122384D01*
X208103373Y-61088037D01*
X208169558Y-61081518D01*
X208235740Y-61075000D01*
X208324260Y-61075000D01*
X208390442Y-61081518D01*
X208390442Y-61081518D01*
G37*
G36*
X220815025Y-61040590D02*
X220966012Y-61086392D01*
X221105165Y-61160770D01*
X221227133Y-61260867D01*
X221327230Y-61382835D01*
X221401608Y-61521988D01*
X221447410Y-61672975D01*
X221462875Y-61830000D01*
X221447410Y-61987025D01*
X221401608Y-62138012D01*
X221327230Y-62277165D01*
X221227133Y-62399133D01*
X221105165Y-62499230D01*
X220966012Y-62573608D01*
X220815025Y-62619410D01*
X220697346Y-62631000D01*
X218118654Y-62631000D01*
X218000975Y-62619410D01*
X217849988Y-62573608D01*
X217710835Y-62499230D01*
X217588867Y-62399133D01*
X217488770Y-62277165D01*
X217414392Y-62138012D01*
X217368590Y-61987025D01*
X217353125Y-61830000D01*
X217368590Y-61672975D01*
X217414392Y-61521988D01*
X217488770Y-61382835D01*
X217588867Y-61260867D01*
X217710835Y-61160770D01*
X217849988Y-61086392D01*
X218000975Y-61040590D01*
X218118654Y-61029000D01*
X220697346Y-61029000D01*
X220815025Y-61040590D01*
X220815025Y-61040590D01*
G37*
G36*
X98251981Y-60307468D02*
X98434150Y-60382925D01*
X98598103Y-60492475D01*
X98737525Y-60631897D01*
X98847075Y-60795850D01*
X98922532Y-60978019D01*
X98961000Y-61171410D01*
X98961000Y-61368590D01*
X98922532Y-61561981D01*
X98847075Y-61744150D01*
X98737525Y-61908103D01*
X98598103Y-62047525D01*
X98434150Y-62157075D01*
X98251981Y-62232532D01*
X98058590Y-62271000D01*
X97861410Y-62271000D01*
X97668019Y-62232532D01*
X97485850Y-62157075D01*
X97321897Y-62047525D01*
X97182475Y-61908103D01*
X97072925Y-61744150D01*
X96997468Y-61561981D01*
X96959000Y-61368590D01*
X96959000Y-61171410D01*
X96997468Y-60978019D01*
X97072925Y-60795850D01*
X97182475Y-60631897D01*
X97321897Y-60492475D01*
X97485850Y-60382925D01*
X97668019Y-60307468D01*
X97861410Y-60269000D01*
X98058590Y-60269000D01*
X98251981Y-60307468D01*
X98251981Y-60307468D01*
G37*
G36*
X104569644Y-57589272D02*
X104738067Y-57640363D01*
X104833734Y-57669383D01*
X104898198Y-57703840D01*
X105077120Y-57799475D01*
X105169147Y-57875000D01*
X105290450Y-57974550D01*
X105349450Y-58046443D01*
X105465525Y-58187880D01*
X105552253Y-58350138D01*
X105595617Y-58431266D01*
X105609277Y-58476297D01*
X105675728Y-58695357D01*
X105675728Y-58695359D01*
X105695619Y-58897309D01*
X105696000Y-58901183D01*
X105696000Y-59638818D01*
X105675728Y-59844644D01*
X105647108Y-59938991D01*
X105595617Y-60108734D01*
X105552832Y-60188778D01*
X105465525Y-60352120D01*
X105407354Y-60423000D01*
X105290450Y-60565450D01*
X105158877Y-60673427D01*
X105077119Y-60740525D01*
X104973614Y-60795849D01*
X104833733Y-60870617D01*
X104745702Y-60897321D01*
X104569643Y-60950728D01*
X104295000Y-60977778D01*
X104020356Y-60950728D01*
X103844297Y-60897321D01*
X103756266Y-60870617D01*
X103616385Y-60795849D01*
X103512880Y-60740525D01*
X103434407Y-60676123D01*
X103299550Y-60565450D01*
X103182646Y-60423000D01*
X103124475Y-60352119D01*
X102994384Y-60108734D01*
X102994383Y-60108733D01*
X102967679Y-60020702D01*
X102914272Y-59844643D01*
X102894000Y-59638817D01*
X102894000Y-58901182D01*
X102914272Y-58695356D01*
X102980723Y-58476297D01*
X102994383Y-58431266D01*
X103037747Y-58350138D01*
X103124475Y-58187880D01*
X103200035Y-58095811D01*
X103299550Y-57974550D01*
X103431123Y-57866573D01*
X103512881Y-57799475D01*
X103691803Y-57703840D01*
X103756267Y-57669383D01*
X103851934Y-57640363D01*
X104020357Y-57589272D01*
X104295000Y-57562222D01*
X104569644Y-57589272D01*
X104569644Y-57589272D01*
G37*
G36*
X121369644Y-57589272D02*
X121538067Y-57640363D01*
X121633734Y-57669383D01*
X121698198Y-57703840D01*
X121877120Y-57799475D01*
X121969147Y-57875000D01*
X122090450Y-57974550D01*
X122149450Y-58046443D01*
X122265525Y-58187880D01*
X122352253Y-58350138D01*
X122395617Y-58431266D01*
X122409277Y-58476297D01*
X122475728Y-58695357D01*
X122475728Y-58695359D01*
X122495619Y-58897309D01*
X122496000Y-58901183D01*
X122496000Y-59638818D01*
X122475728Y-59844644D01*
X122447108Y-59938991D01*
X122395617Y-60108734D01*
X122352832Y-60188778D01*
X122265525Y-60352120D01*
X122207354Y-60423000D01*
X122090450Y-60565450D01*
X121958877Y-60673427D01*
X121877119Y-60740525D01*
X121773614Y-60795849D01*
X121633733Y-60870617D01*
X121545702Y-60897321D01*
X121369643Y-60950728D01*
X121095000Y-60977778D01*
X120820356Y-60950728D01*
X120644297Y-60897321D01*
X120556266Y-60870617D01*
X120416385Y-60795849D01*
X120312880Y-60740525D01*
X120234407Y-60676123D01*
X120099550Y-60565450D01*
X119982646Y-60423000D01*
X119924475Y-60352119D01*
X119794384Y-60108734D01*
X119794383Y-60108733D01*
X119767679Y-60020702D01*
X119714272Y-59844643D01*
X119694000Y-59638817D01*
X119694000Y-58901182D01*
X119714272Y-58695356D01*
X119780723Y-58476297D01*
X119794383Y-58431266D01*
X119837747Y-58350138D01*
X119924475Y-58187880D01*
X120000035Y-58095811D01*
X120099550Y-57974550D01*
X120231123Y-57866573D01*
X120312881Y-57799475D01*
X120491803Y-57703840D01*
X120556267Y-57669383D01*
X120651934Y-57640363D01*
X120820357Y-57589272D01*
X121095000Y-57562222D01*
X121369644Y-57589272D01*
X121369644Y-57589272D01*
G37*
G36*
X129769644Y-57589272D02*
X129938067Y-57640363D01*
X130033734Y-57669383D01*
X130098198Y-57703840D01*
X130277120Y-57799475D01*
X130369147Y-57875000D01*
X130490450Y-57974550D01*
X130549450Y-58046443D01*
X130665525Y-58187880D01*
X130752253Y-58350138D01*
X130795617Y-58431266D01*
X130809277Y-58476297D01*
X130875728Y-58695357D01*
X130875728Y-58695359D01*
X130895619Y-58897309D01*
X130896000Y-58901183D01*
X130896000Y-59638818D01*
X130875728Y-59844644D01*
X130847108Y-59938991D01*
X130795617Y-60108734D01*
X130752832Y-60188778D01*
X130665525Y-60352120D01*
X130607354Y-60423000D01*
X130490450Y-60565450D01*
X130358877Y-60673427D01*
X130277119Y-60740525D01*
X130173614Y-60795849D01*
X130033733Y-60870617D01*
X129945702Y-60897321D01*
X129769643Y-60950728D01*
X129495000Y-60977778D01*
X129220356Y-60950728D01*
X129044297Y-60897321D01*
X128956266Y-60870617D01*
X128816385Y-60795849D01*
X128712880Y-60740525D01*
X128634407Y-60676123D01*
X128499550Y-60565450D01*
X128382646Y-60423000D01*
X128324475Y-60352119D01*
X128194384Y-60108734D01*
X128194383Y-60108733D01*
X128167679Y-60020702D01*
X128114272Y-59844643D01*
X128094000Y-59638817D01*
X128094000Y-58901182D01*
X128114272Y-58695356D01*
X128180723Y-58476297D01*
X128194383Y-58431266D01*
X128237747Y-58350138D01*
X128324475Y-58187880D01*
X128400035Y-58095811D01*
X128499550Y-57974550D01*
X128631123Y-57866573D01*
X128712881Y-57799475D01*
X128891803Y-57703840D01*
X128956267Y-57669383D01*
X129051934Y-57640363D01*
X129220357Y-57589272D01*
X129495000Y-57562222D01*
X129769644Y-57589272D01*
X129769644Y-57589272D01*
G37*
G36*
X133969644Y-57589272D02*
X134138067Y-57640363D01*
X134233734Y-57669383D01*
X134298198Y-57703840D01*
X134477120Y-57799475D01*
X134569147Y-57875000D01*
X134690450Y-57974550D01*
X134749450Y-58046443D01*
X134865525Y-58187880D01*
X134952253Y-58350138D01*
X134995617Y-58431266D01*
X135009277Y-58476297D01*
X135075728Y-58695357D01*
X135075728Y-58695359D01*
X135095619Y-58897309D01*
X135096000Y-58901183D01*
X135096000Y-59638818D01*
X135075728Y-59844644D01*
X135047108Y-59938991D01*
X134995617Y-60108734D01*
X134952832Y-60188778D01*
X134865525Y-60352120D01*
X134807354Y-60423000D01*
X134690450Y-60565450D01*
X134558877Y-60673427D01*
X134477119Y-60740525D01*
X134373614Y-60795849D01*
X134233733Y-60870617D01*
X134145702Y-60897321D01*
X133969643Y-60950728D01*
X133695000Y-60977778D01*
X133420356Y-60950728D01*
X133244297Y-60897321D01*
X133156266Y-60870617D01*
X133016385Y-60795849D01*
X132912880Y-60740525D01*
X132834407Y-60676123D01*
X132699550Y-60565450D01*
X132582646Y-60423000D01*
X132524475Y-60352119D01*
X132394384Y-60108734D01*
X132394383Y-60108733D01*
X132367679Y-60020702D01*
X132314272Y-59844643D01*
X132294000Y-59638817D01*
X132294000Y-58901182D01*
X132314272Y-58695356D01*
X132380723Y-58476297D01*
X132394383Y-58431266D01*
X132437747Y-58350138D01*
X132524475Y-58187880D01*
X132600035Y-58095811D01*
X132699550Y-57974550D01*
X132831123Y-57866573D01*
X132912881Y-57799475D01*
X133091803Y-57703840D01*
X133156267Y-57669383D01*
X133251934Y-57640363D01*
X133420357Y-57589272D01*
X133695000Y-57562222D01*
X133969644Y-57589272D01*
X133969644Y-57589272D01*
G37*
G36*
X138169644Y-57589272D02*
X138338067Y-57640363D01*
X138433734Y-57669383D01*
X138498198Y-57703840D01*
X138677120Y-57799475D01*
X138769147Y-57875000D01*
X138890450Y-57974550D01*
X138949450Y-58046443D01*
X139065525Y-58187880D01*
X139152253Y-58350138D01*
X139195617Y-58431266D01*
X139209277Y-58476297D01*
X139275728Y-58695357D01*
X139275728Y-58695359D01*
X139295619Y-58897309D01*
X139296000Y-58901183D01*
X139296000Y-59638818D01*
X139275728Y-59844644D01*
X139247108Y-59938991D01*
X139195617Y-60108734D01*
X139152832Y-60188778D01*
X139065525Y-60352120D01*
X139007354Y-60423000D01*
X138890450Y-60565450D01*
X138758877Y-60673427D01*
X138677119Y-60740525D01*
X138573614Y-60795849D01*
X138433733Y-60870617D01*
X138345702Y-60897321D01*
X138169643Y-60950728D01*
X137895000Y-60977778D01*
X137620356Y-60950728D01*
X137444297Y-60897321D01*
X137356266Y-60870617D01*
X137216385Y-60795849D01*
X137112880Y-60740525D01*
X137034407Y-60676123D01*
X136899550Y-60565450D01*
X136782646Y-60423000D01*
X136724475Y-60352119D01*
X136594384Y-60108734D01*
X136594383Y-60108733D01*
X136567679Y-60020702D01*
X136514272Y-59844643D01*
X136494000Y-59638817D01*
X136494000Y-58901182D01*
X136514272Y-58695356D01*
X136580723Y-58476297D01*
X136594383Y-58431266D01*
X136637747Y-58350138D01*
X136724475Y-58187880D01*
X136800035Y-58095811D01*
X136899550Y-57974550D01*
X137031123Y-57866573D01*
X137112881Y-57799475D01*
X137291803Y-57703840D01*
X137356267Y-57669383D01*
X137451934Y-57640363D01*
X137620357Y-57589272D01*
X137895000Y-57562222D01*
X138169644Y-57589272D01*
X138169644Y-57589272D01*
G37*
G36*
X142369644Y-57589272D02*
X142538067Y-57640363D01*
X142633734Y-57669383D01*
X142698198Y-57703840D01*
X142877120Y-57799475D01*
X142969147Y-57875000D01*
X143090450Y-57974550D01*
X143149450Y-58046443D01*
X143265525Y-58187880D01*
X143352253Y-58350138D01*
X143395617Y-58431266D01*
X143409277Y-58476297D01*
X143475728Y-58695357D01*
X143475728Y-58695359D01*
X143495619Y-58897309D01*
X143496000Y-58901183D01*
X143496000Y-59638818D01*
X143475728Y-59844644D01*
X143447108Y-59938991D01*
X143395617Y-60108734D01*
X143352832Y-60188778D01*
X143265525Y-60352120D01*
X143207354Y-60423000D01*
X143090450Y-60565450D01*
X142958877Y-60673427D01*
X142877119Y-60740525D01*
X142773614Y-60795849D01*
X142633733Y-60870617D01*
X142545702Y-60897321D01*
X142369643Y-60950728D01*
X142095000Y-60977778D01*
X141820356Y-60950728D01*
X141644297Y-60897321D01*
X141556266Y-60870617D01*
X141416385Y-60795849D01*
X141312880Y-60740525D01*
X141234407Y-60676123D01*
X141099550Y-60565450D01*
X140982646Y-60423000D01*
X140924475Y-60352119D01*
X140794384Y-60108734D01*
X140794383Y-60108733D01*
X140767679Y-60020702D01*
X140714272Y-59844643D01*
X140694000Y-59638817D01*
X140694000Y-58901182D01*
X140714272Y-58695356D01*
X140780723Y-58476297D01*
X140794383Y-58431266D01*
X140837747Y-58350138D01*
X140924475Y-58187880D01*
X141000035Y-58095811D01*
X141099550Y-57974550D01*
X141231123Y-57866573D01*
X141312881Y-57799475D01*
X141491803Y-57703840D01*
X141556267Y-57669383D01*
X141651934Y-57640363D01*
X141820357Y-57589272D01*
X142095000Y-57562222D01*
X142369644Y-57589272D01*
X142369644Y-57589272D01*
G37*
G36*
X146569644Y-57589272D02*
X146738067Y-57640363D01*
X146833734Y-57669383D01*
X146898198Y-57703840D01*
X147077120Y-57799475D01*
X147169147Y-57875000D01*
X147290450Y-57974550D01*
X147349450Y-58046443D01*
X147465525Y-58187880D01*
X147552253Y-58350138D01*
X147595617Y-58431266D01*
X147609277Y-58476297D01*
X147675728Y-58695357D01*
X147675728Y-58695359D01*
X147695619Y-58897309D01*
X147696000Y-58901183D01*
X147696000Y-59638818D01*
X147675728Y-59844644D01*
X147647108Y-59938991D01*
X147595617Y-60108734D01*
X147552832Y-60188778D01*
X147465525Y-60352120D01*
X147407354Y-60423000D01*
X147290450Y-60565450D01*
X147158877Y-60673427D01*
X147077119Y-60740525D01*
X146973614Y-60795849D01*
X146833733Y-60870617D01*
X146745702Y-60897321D01*
X146569643Y-60950728D01*
X146295000Y-60977778D01*
X146020356Y-60950728D01*
X145844297Y-60897321D01*
X145756266Y-60870617D01*
X145616385Y-60795849D01*
X145512880Y-60740525D01*
X145434407Y-60676123D01*
X145299550Y-60565450D01*
X145182646Y-60423000D01*
X145124475Y-60352119D01*
X144994384Y-60108734D01*
X144994383Y-60108733D01*
X144967679Y-60020702D01*
X144914272Y-59844643D01*
X144894000Y-59638817D01*
X144894000Y-58901182D01*
X144914272Y-58695356D01*
X144980723Y-58476297D01*
X144994383Y-58431266D01*
X145037747Y-58350138D01*
X145124475Y-58187880D01*
X145200035Y-58095811D01*
X145299550Y-57974550D01*
X145431123Y-57866573D01*
X145512881Y-57799475D01*
X145691803Y-57703840D01*
X145756267Y-57669383D01*
X145851934Y-57640363D01*
X146020357Y-57589272D01*
X146295000Y-57562222D01*
X146569644Y-57589272D01*
X146569644Y-57589272D01*
G37*
G36*
X150769644Y-57589272D02*
X150938067Y-57640363D01*
X151033734Y-57669383D01*
X151098198Y-57703840D01*
X151277120Y-57799475D01*
X151369147Y-57875000D01*
X151490450Y-57974550D01*
X151549450Y-58046443D01*
X151665525Y-58187880D01*
X151752253Y-58350138D01*
X151795617Y-58431266D01*
X151809277Y-58476297D01*
X151875728Y-58695357D01*
X151875728Y-58695359D01*
X151895619Y-58897309D01*
X151896000Y-58901183D01*
X151896000Y-59638818D01*
X151875728Y-59844644D01*
X151847108Y-59938991D01*
X151795617Y-60108734D01*
X151752832Y-60188778D01*
X151665525Y-60352120D01*
X151607354Y-60423000D01*
X151490450Y-60565450D01*
X151358877Y-60673427D01*
X151277119Y-60740525D01*
X151173614Y-60795849D01*
X151033733Y-60870617D01*
X150945702Y-60897321D01*
X150769643Y-60950728D01*
X150495000Y-60977778D01*
X150220356Y-60950728D01*
X150044297Y-60897321D01*
X149956266Y-60870617D01*
X149816385Y-60795849D01*
X149712880Y-60740525D01*
X149634407Y-60676123D01*
X149499550Y-60565450D01*
X149382646Y-60423000D01*
X149324475Y-60352119D01*
X149194384Y-60108734D01*
X149194383Y-60108733D01*
X149167679Y-60020702D01*
X149114272Y-59844643D01*
X149094000Y-59638817D01*
X149094000Y-58901182D01*
X149114272Y-58695356D01*
X149180723Y-58476297D01*
X149194383Y-58431266D01*
X149237747Y-58350138D01*
X149324475Y-58187880D01*
X149400035Y-58095811D01*
X149499550Y-57974550D01*
X149631123Y-57866573D01*
X149712881Y-57799475D01*
X149891803Y-57703840D01*
X149956267Y-57669383D01*
X150051934Y-57640363D01*
X150220357Y-57589272D01*
X150495000Y-57562222D01*
X150769644Y-57589272D01*
X150769644Y-57589272D01*
G37*
G36*
X108769644Y-57589272D02*
X108938067Y-57640363D01*
X109033734Y-57669383D01*
X109098198Y-57703840D01*
X109277120Y-57799475D01*
X109369147Y-57875000D01*
X109490450Y-57974550D01*
X109549450Y-58046443D01*
X109665525Y-58187880D01*
X109752253Y-58350138D01*
X109795617Y-58431266D01*
X109809277Y-58476297D01*
X109875728Y-58695357D01*
X109875728Y-58695359D01*
X109895619Y-58897309D01*
X109896000Y-58901183D01*
X109896000Y-59638818D01*
X109875728Y-59844644D01*
X109847108Y-59938991D01*
X109795617Y-60108734D01*
X109752832Y-60188778D01*
X109665525Y-60352120D01*
X109607354Y-60423000D01*
X109490450Y-60565450D01*
X109358877Y-60673427D01*
X109277119Y-60740525D01*
X109173614Y-60795849D01*
X109033733Y-60870617D01*
X108945702Y-60897321D01*
X108769643Y-60950728D01*
X108495000Y-60977778D01*
X108220356Y-60950728D01*
X108044297Y-60897321D01*
X107956266Y-60870617D01*
X107816385Y-60795849D01*
X107712880Y-60740525D01*
X107634407Y-60676123D01*
X107499550Y-60565450D01*
X107382646Y-60423000D01*
X107324475Y-60352119D01*
X107194384Y-60108734D01*
X107194383Y-60108733D01*
X107167679Y-60020702D01*
X107114272Y-59844643D01*
X107094000Y-59638817D01*
X107094000Y-58901182D01*
X107114272Y-58695356D01*
X107180723Y-58476297D01*
X107194383Y-58431266D01*
X107237747Y-58350138D01*
X107324475Y-58187880D01*
X107400035Y-58095811D01*
X107499550Y-57974550D01*
X107631123Y-57866573D01*
X107712881Y-57799475D01*
X107891803Y-57703840D01*
X107956267Y-57669383D01*
X108051934Y-57640363D01*
X108220357Y-57589272D01*
X108495000Y-57562222D01*
X108769644Y-57589272D01*
X108769644Y-57589272D01*
G37*
G36*
X112969644Y-57589272D02*
X113138067Y-57640363D01*
X113233734Y-57669383D01*
X113298198Y-57703840D01*
X113477120Y-57799475D01*
X113569147Y-57875000D01*
X113690450Y-57974550D01*
X113749450Y-58046443D01*
X113865525Y-58187880D01*
X113952253Y-58350138D01*
X113995617Y-58431266D01*
X114009277Y-58476297D01*
X114075728Y-58695357D01*
X114075728Y-58695359D01*
X114095619Y-58897309D01*
X114096000Y-58901183D01*
X114096000Y-59638818D01*
X114075728Y-59844644D01*
X114047108Y-59938991D01*
X113995617Y-60108734D01*
X113952832Y-60188778D01*
X113865525Y-60352120D01*
X113807354Y-60423000D01*
X113690450Y-60565450D01*
X113558877Y-60673427D01*
X113477119Y-60740525D01*
X113373614Y-60795849D01*
X113233733Y-60870617D01*
X113145702Y-60897321D01*
X112969643Y-60950728D01*
X112695000Y-60977778D01*
X112420356Y-60950728D01*
X112244297Y-60897321D01*
X112156266Y-60870617D01*
X112016385Y-60795849D01*
X111912880Y-60740525D01*
X111834407Y-60676123D01*
X111699550Y-60565450D01*
X111582646Y-60423000D01*
X111524475Y-60352119D01*
X111394384Y-60108734D01*
X111394383Y-60108733D01*
X111367679Y-60020702D01*
X111314272Y-59844643D01*
X111294000Y-59638817D01*
X111294000Y-58901182D01*
X111314272Y-58695356D01*
X111380723Y-58476297D01*
X111394383Y-58431266D01*
X111437747Y-58350138D01*
X111524475Y-58187880D01*
X111600035Y-58095811D01*
X111699550Y-57974550D01*
X111831123Y-57866573D01*
X111912881Y-57799475D01*
X112091803Y-57703840D01*
X112156267Y-57669383D01*
X112251934Y-57640363D01*
X112420357Y-57589272D01*
X112695000Y-57562222D01*
X112969644Y-57589272D01*
X112969644Y-57589272D01*
G37*
G36*
X117169644Y-57589272D02*
X117338067Y-57640363D01*
X117433734Y-57669383D01*
X117498198Y-57703840D01*
X117677120Y-57799475D01*
X117769147Y-57875000D01*
X117890450Y-57974550D01*
X117949450Y-58046443D01*
X118065525Y-58187880D01*
X118152253Y-58350138D01*
X118195617Y-58431266D01*
X118209277Y-58476297D01*
X118275728Y-58695357D01*
X118275728Y-58695359D01*
X118295619Y-58897309D01*
X118296000Y-58901183D01*
X118296000Y-59638818D01*
X118275728Y-59844644D01*
X118247108Y-59938991D01*
X118195617Y-60108734D01*
X118152832Y-60188778D01*
X118065525Y-60352120D01*
X118007354Y-60423000D01*
X117890450Y-60565450D01*
X117758877Y-60673427D01*
X117677119Y-60740525D01*
X117573614Y-60795849D01*
X117433733Y-60870617D01*
X117345702Y-60897321D01*
X117169643Y-60950728D01*
X116895000Y-60977778D01*
X116620356Y-60950728D01*
X116444297Y-60897321D01*
X116356266Y-60870617D01*
X116216385Y-60795849D01*
X116112880Y-60740525D01*
X116034407Y-60676123D01*
X115899550Y-60565450D01*
X115782646Y-60423000D01*
X115724475Y-60352119D01*
X115594384Y-60108734D01*
X115594383Y-60108733D01*
X115567679Y-60020702D01*
X115514272Y-59844643D01*
X115494000Y-59638817D01*
X115494000Y-58901182D01*
X115514272Y-58695356D01*
X115580723Y-58476297D01*
X115594383Y-58431266D01*
X115637747Y-58350138D01*
X115724475Y-58187880D01*
X115800035Y-58095811D01*
X115899550Y-57974550D01*
X116031123Y-57866573D01*
X116112881Y-57799475D01*
X116291803Y-57703840D01*
X116356267Y-57669383D01*
X116451934Y-57640363D01*
X116620357Y-57589272D01*
X116895000Y-57562222D01*
X117169644Y-57589272D01*
X117169644Y-57589272D01*
G37*
G36*
X125569644Y-57589272D02*
X125738067Y-57640363D01*
X125833734Y-57669383D01*
X125898198Y-57703840D01*
X126077120Y-57799475D01*
X126169147Y-57875000D01*
X126290450Y-57974550D01*
X126349450Y-58046443D01*
X126465525Y-58187880D01*
X126552253Y-58350138D01*
X126595617Y-58431266D01*
X126609277Y-58476297D01*
X126675728Y-58695357D01*
X126675728Y-58695359D01*
X126695619Y-58897309D01*
X126696000Y-58901183D01*
X126696000Y-59638818D01*
X126675728Y-59844644D01*
X126647108Y-59938991D01*
X126595617Y-60108734D01*
X126552832Y-60188778D01*
X126465525Y-60352120D01*
X126407354Y-60423000D01*
X126290450Y-60565450D01*
X126158877Y-60673427D01*
X126077119Y-60740525D01*
X125973614Y-60795849D01*
X125833733Y-60870617D01*
X125745702Y-60897321D01*
X125569643Y-60950728D01*
X125295000Y-60977778D01*
X125020356Y-60950728D01*
X124844297Y-60897321D01*
X124756266Y-60870617D01*
X124616385Y-60795849D01*
X124512880Y-60740525D01*
X124434407Y-60676123D01*
X124299550Y-60565450D01*
X124182646Y-60423000D01*
X124124475Y-60352119D01*
X123994384Y-60108734D01*
X123994383Y-60108733D01*
X123967679Y-60020702D01*
X123914272Y-59844643D01*
X123894000Y-59638817D01*
X123894000Y-58901182D01*
X123914272Y-58695356D01*
X123980723Y-58476297D01*
X123994383Y-58431266D01*
X124037747Y-58350138D01*
X124124475Y-58187880D01*
X124200035Y-58095811D01*
X124299550Y-57974550D01*
X124431123Y-57866573D01*
X124512881Y-57799475D01*
X124691803Y-57703840D01*
X124756267Y-57669383D01*
X124851934Y-57640363D01*
X125020357Y-57589272D01*
X125295000Y-57562222D01*
X125569644Y-57589272D01*
X125569644Y-57589272D01*
G37*
G36*
X189362000Y-60423000D02*
X183510000Y-60423000D01*
X183510000Y-59021000D01*
X189362000Y-59021000D01*
X189362000Y-60423000D01*
X189362000Y-60423000D01*
G37*
G36*
X208390443Y-58541519D02*
X208456627Y-58548037D01*
X208569853Y-58582384D01*
X208626467Y-58599557D01*
X208765087Y-58673652D01*
X208782991Y-58683222D01*
X208818729Y-58712552D01*
X208920186Y-58795814D01*
X209003448Y-58897271D01*
X209032778Y-58933009D01*
X209032779Y-58933011D01*
X209116443Y-59089533D01*
X209120815Y-59103947D01*
X209167963Y-59259373D01*
X209185359Y-59436000D01*
X209167963Y-59612627D01*
X209160017Y-59638820D01*
X209116443Y-59782467D01*
X209083208Y-59844644D01*
X209032778Y-59938991D01*
X209003448Y-59974729D01*
X208920186Y-60076186D01*
X208818729Y-60159448D01*
X208782991Y-60188778D01*
X208782989Y-60188779D01*
X208626467Y-60272443D01*
X208569853Y-60289616D01*
X208456627Y-60323963D01*
X208390442Y-60330482D01*
X208324260Y-60337000D01*
X208235740Y-60337000D01*
X208169558Y-60330482D01*
X208103373Y-60323963D01*
X207990147Y-60289616D01*
X207933533Y-60272443D01*
X207777011Y-60188779D01*
X207777009Y-60188778D01*
X207741271Y-60159448D01*
X207639814Y-60076186D01*
X207556552Y-59974729D01*
X207527222Y-59938991D01*
X207476792Y-59844644D01*
X207443557Y-59782467D01*
X207399983Y-59638820D01*
X207392037Y-59612627D01*
X207374641Y-59436000D01*
X207392037Y-59259373D01*
X207439185Y-59103947D01*
X207443557Y-59089533D01*
X207527221Y-58933011D01*
X207527222Y-58933009D01*
X207556552Y-58897271D01*
X207639814Y-58795814D01*
X207741271Y-58712552D01*
X207777009Y-58683222D01*
X207794913Y-58673652D01*
X207933533Y-58599557D01*
X207990147Y-58582384D01*
X208103373Y-58548037D01*
X208169557Y-58541519D01*
X208235740Y-58535000D01*
X208324260Y-58535000D01*
X208390443Y-58541519D01*
X208390443Y-58541519D01*
G37*
G36*
X95746160Y-56564368D02*
X95746162Y-56564369D01*
X95746163Y-56564369D01*
X95860514Y-56611735D01*
X96055726Y-56692594D01*
X96334327Y-56878749D01*
X96571251Y-57115673D01*
X96757406Y-57394274D01*
X96798704Y-57493976D01*
X96872662Y-57672526D01*
X96885632Y-57703840D01*
X96951000Y-58032465D01*
X96951000Y-58367535D01*
X96885632Y-58696160D01*
X96757406Y-59005726D01*
X96571251Y-59284327D01*
X96334327Y-59521251D01*
X96055726Y-59707406D01*
X95874512Y-59782467D01*
X95746163Y-59835631D01*
X95746162Y-59835631D01*
X95746160Y-59835632D01*
X95417535Y-59901000D01*
X95082465Y-59901000D01*
X94753840Y-59835632D01*
X94753838Y-59835631D01*
X94753837Y-59835631D01*
X94625488Y-59782467D01*
X94444274Y-59707406D01*
X94165673Y-59521251D01*
X93928749Y-59284327D01*
X93742594Y-59005726D01*
X93614368Y-58696160D01*
X93549000Y-58367535D01*
X93549000Y-58032465D01*
X93614368Y-57703840D01*
X93627339Y-57672526D01*
X93701296Y-57493976D01*
X93742594Y-57394274D01*
X93928749Y-57115673D01*
X94165673Y-56878749D01*
X94444274Y-56692594D01*
X94639486Y-56611735D01*
X94753837Y-56564369D01*
X94753838Y-56564369D01*
X94753840Y-56564368D01*
X95082465Y-56499000D01*
X95417535Y-56499000D01*
X95746160Y-56564368D01*
X95746160Y-56564368D01*
G37*
G36*
X194166499Y-57961445D02*
X194203993Y-57972819D01*
X194238557Y-57991294D01*
X194268847Y-58016153D01*
X194293706Y-58046443D01*
X194312181Y-58081007D01*
X194323555Y-58118501D01*
X194328000Y-58163638D01*
X194328000Y-58902362D01*
X194323555Y-58947499D01*
X194312181Y-58984993D01*
X194293706Y-59019557D01*
X194268847Y-59049847D01*
X194238557Y-59074706D01*
X194203993Y-59093181D01*
X194166499Y-59104555D01*
X194121362Y-59109000D01*
X193482638Y-59109000D01*
X193437501Y-59104555D01*
X193400007Y-59093181D01*
X193365443Y-59074706D01*
X193335153Y-59049847D01*
X193310294Y-59019557D01*
X193291819Y-58984993D01*
X193280445Y-58947499D01*
X193276000Y-58902362D01*
X193276000Y-58163638D01*
X193280445Y-58118501D01*
X193291819Y-58081007D01*
X193310294Y-58046443D01*
X193335153Y-58016153D01*
X193365443Y-57991294D01*
X193400007Y-57972819D01*
X193437501Y-57961445D01*
X193482638Y-57957000D01*
X194121362Y-57957000D01*
X194166499Y-57961445D01*
X194166499Y-57961445D01*
G37*
G36*
X177754228Y-56839703D02*
X177909100Y-56903853D01*
X178048481Y-56996985D01*
X178167015Y-57115519D01*
X178260147Y-57254900D01*
X178324297Y-57409772D01*
X178357000Y-57574184D01*
X178357000Y-57741816D01*
X178324297Y-57906228D01*
X178260147Y-58061100D01*
X178167015Y-58200481D01*
X178048481Y-58319015D01*
X177909100Y-58412147D01*
X177754228Y-58476297D01*
X177589816Y-58509000D01*
X177422184Y-58509000D01*
X177257772Y-58476297D01*
X177102900Y-58412147D01*
X176963519Y-58319015D01*
X176844985Y-58200481D01*
X176751853Y-58061100D01*
X176687703Y-57906228D01*
X176655000Y-57741816D01*
X176655000Y-57574184D01*
X176687703Y-57409772D01*
X176751853Y-57254900D01*
X176844985Y-57115519D01*
X176963519Y-56996985D01*
X177102900Y-56903853D01*
X177257772Y-56839703D01*
X177422184Y-56807000D01*
X177589816Y-56807000D01*
X177754228Y-56839703D01*
X177754228Y-56839703D01*
G37*
G36*
X175857000Y-58509000D02*
X174155000Y-58509000D01*
X174155000Y-56807000D01*
X175857000Y-56807000D01*
X175857000Y-58509000D01*
X175857000Y-58509000D01*
G37*
G36*
X182787000Y-58298000D02*
X181385000Y-58298000D01*
X181385000Y-52446000D01*
X182787000Y-52446000D01*
X182787000Y-58298000D01*
X182787000Y-58298000D01*
G37*
G36*
X191487000Y-58298000D02*
X190085000Y-58298000D01*
X190085000Y-52446000D01*
X191487000Y-52446000D01*
X191487000Y-58298000D01*
X191487000Y-58298000D01*
G37*
G36*
X158720000Y-58276000D02*
X158018000Y-58276000D01*
X158018000Y-56174000D01*
X158720000Y-56174000D01*
X158720000Y-58276000D01*
X158720000Y-58276000D01*
G37*
G36*
X161260000Y-58276000D02*
X160558000Y-58276000D01*
X160558000Y-56174000D01*
X161260000Y-56174000D01*
X161260000Y-58276000D01*
X161260000Y-58276000D01*
G37*
G36*
X156180000Y-58276000D02*
X155478000Y-58276000D01*
X155478000Y-56174000D01*
X156180000Y-56174000D01*
X156180000Y-58276000D01*
X156180000Y-58276000D01*
G37*
G36*
X157450000Y-58276000D02*
X156748000Y-58276000D01*
X156748000Y-56174000D01*
X157450000Y-56174000D01*
X157450000Y-58276000D01*
X157450000Y-58276000D01*
G37*
G36*
X159990000Y-58276000D02*
X159288000Y-58276000D01*
X159288000Y-56174000D01*
X159990000Y-56174000D01*
X159990000Y-58276000D01*
X159990000Y-58276000D01*
G37*
G36*
X170150000Y-58276000D02*
X169448000Y-58276000D01*
X169448000Y-56174000D01*
X170150000Y-56174000D01*
X170150000Y-58276000D01*
X170150000Y-58276000D01*
G37*
G36*
X162530000Y-58276000D02*
X161828000Y-58276000D01*
X161828000Y-56174000D01*
X162530000Y-56174000D01*
X162530000Y-58276000D01*
X162530000Y-58276000D01*
G37*
G36*
X163800000Y-58276000D02*
X163098000Y-58276000D01*
X163098000Y-56174000D01*
X163800000Y-56174000D01*
X163800000Y-58276000D01*
X163800000Y-58276000D01*
G37*
G36*
X165070000Y-58276000D02*
X164368000Y-58276000D01*
X164368000Y-56174000D01*
X165070000Y-56174000D01*
X165070000Y-58276000D01*
X165070000Y-58276000D01*
G37*
G36*
X166340000Y-58276000D02*
X165638000Y-58276000D01*
X165638000Y-56174000D01*
X166340000Y-56174000D01*
X166340000Y-58276000D01*
X166340000Y-58276000D01*
G37*
G36*
X167610000Y-58276000D02*
X166908000Y-58276000D01*
X166908000Y-56174000D01*
X167610000Y-56174000D01*
X167610000Y-58276000D01*
X167610000Y-58276000D01*
G37*
G36*
X168880000Y-58276000D02*
X168178000Y-58276000D01*
X168178000Y-56174000D01*
X168880000Y-56174000D01*
X168880000Y-58276000D01*
X168880000Y-58276000D01*
G37*
G36*
X222605946Y-55584189D02*
X222843620Y-55682636D01*
X222843623Y-55682638D01*
X223039305Y-55813389D01*
X223057530Y-55825567D01*
X223239433Y-56007470D01*
X223239435Y-56007473D01*
X223239436Y-56007474D01*
X223372756Y-56207000D01*
X223382364Y-56221380D01*
X223480811Y-56459054D01*
X223531000Y-56711370D01*
X223531000Y-56968630D01*
X223480811Y-57220946D01*
X223382364Y-57458620D01*
X223382362Y-57458623D01*
X223260927Y-57640363D01*
X223239433Y-57672530D01*
X223057530Y-57854433D01*
X222843620Y-57997364D01*
X222605946Y-58095811D01*
X222353630Y-58146000D01*
X222096370Y-58146000D01*
X221844054Y-58095811D01*
X221606380Y-57997364D01*
X221392470Y-57854433D01*
X221210567Y-57672530D01*
X221189074Y-57640363D01*
X221067638Y-57458623D01*
X221067636Y-57458620D01*
X220969189Y-57220946D01*
X220919000Y-56968630D01*
X220919000Y-56711370D01*
X220969189Y-56459054D01*
X221067636Y-56221380D01*
X221077244Y-56207000D01*
X221210564Y-56007474D01*
X221210565Y-56007473D01*
X221210567Y-56007470D01*
X221392470Y-55825567D01*
X221410696Y-55813389D01*
X221606377Y-55682638D01*
X221606380Y-55682636D01*
X221844054Y-55584189D01*
X222096370Y-55534000D01*
X222353630Y-55534000D01*
X222605946Y-55584189D01*
X222605946Y-55584189D01*
G37*
G36*
X203910565Y-55813389D02*
X204101834Y-55892615D01*
X204273976Y-56007637D01*
X204420363Y-56154024D01*
X204535385Y-56326166D01*
X204614611Y-56517435D01*
X204655000Y-56720484D01*
X204655000Y-56927516D01*
X204614611Y-57130565D01*
X204535385Y-57321834D01*
X204420363Y-57493976D01*
X204273976Y-57640363D01*
X204101834Y-57755385D01*
X203910565Y-57834611D01*
X203707516Y-57875000D01*
X203500484Y-57875000D01*
X203297435Y-57834611D01*
X203106166Y-57755385D01*
X202934024Y-57640363D01*
X202787637Y-57493976D01*
X202672615Y-57321834D01*
X202593389Y-57130565D01*
X202553000Y-56927516D01*
X202553000Y-56720484D01*
X202593389Y-56517435D01*
X202672615Y-56326166D01*
X202787637Y-56154024D01*
X202934024Y-56007637D01*
X203106166Y-55892615D01*
X203297435Y-55813389D01*
X203500484Y-55773000D01*
X203707516Y-55773000D01*
X203910565Y-55813389D01*
X203910565Y-55813389D01*
G37*
G36*
X197410565Y-55813389D02*
X197601834Y-55892615D01*
X197773976Y-56007637D01*
X197920363Y-56154024D01*
X198035385Y-56326166D01*
X198114611Y-56517435D01*
X198155000Y-56720484D01*
X198155000Y-56927516D01*
X198114611Y-57130565D01*
X198035385Y-57321834D01*
X197920363Y-57493976D01*
X197773976Y-57640363D01*
X197601834Y-57755385D01*
X197410565Y-57834611D01*
X197207516Y-57875000D01*
X197000484Y-57875000D01*
X196797435Y-57834611D01*
X196606166Y-57755385D01*
X196434024Y-57640363D01*
X196287637Y-57493976D01*
X196172615Y-57321834D01*
X196093389Y-57130565D01*
X196053000Y-56927516D01*
X196053000Y-56720484D01*
X196093389Y-56517435D01*
X196172615Y-56326166D01*
X196287637Y-56154024D01*
X196434024Y-56007637D01*
X196606166Y-55892615D01*
X196797435Y-55813389D01*
X197000484Y-55773000D01*
X197207516Y-55773000D01*
X197410565Y-55813389D01*
X197410565Y-55813389D01*
G37*
G36*
X208390442Y-56001518D02*
X208456627Y-56008037D01*
X208569853Y-56042384D01*
X208626467Y-56059557D01*
X208765087Y-56133652D01*
X208782991Y-56143222D01*
X208818729Y-56172552D01*
X208920186Y-56255814D01*
X208981894Y-56331007D01*
X209032778Y-56393009D01*
X209032779Y-56393011D01*
X209116443Y-56549533D01*
X209116443Y-56549534D01*
X209167963Y-56719373D01*
X209185359Y-56896000D01*
X209167963Y-57072627D01*
X209143776Y-57152362D01*
X209116443Y-57242467D01*
X209064855Y-57338980D01*
X209032778Y-57398991D01*
X209023930Y-57409772D01*
X208920186Y-57536186D01*
X208818729Y-57619448D01*
X208782991Y-57648778D01*
X208782989Y-57648779D01*
X208626467Y-57732443D01*
X208569853Y-57749616D01*
X208456627Y-57783963D01*
X208390442Y-57790482D01*
X208324260Y-57797000D01*
X208235740Y-57797000D01*
X208169558Y-57790482D01*
X208103373Y-57783963D01*
X207990147Y-57749616D01*
X207933533Y-57732443D01*
X207777011Y-57648779D01*
X207777009Y-57648778D01*
X207741271Y-57619448D01*
X207639814Y-57536186D01*
X207536070Y-57409772D01*
X207527222Y-57398991D01*
X207495145Y-57338980D01*
X207443557Y-57242467D01*
X207416224Y-57152362D01*
X207392037Y-57072627D01*
X207374641Y-56896000D01*
X207392037Y-56719373D01*
X207443557Y-56549534D01*
X207443557Y-56549533D01*
X207527221Y-56393011D01*
X207527222Y-56393009D01*
X207578106Y-56331007D01*
X207639814Y-56255814D01*
X207741271Y-56172552D01*
X207777009Y-56143222D01*
X207794913Y-56133652D01*
X207933533Y-56059557D01*
X207990147Y-56042384D01*
X208103373Y-56008037D01*
X208169558Y-56001518D01*
X208235740Y-55995000D01*
X208324260Y-55995000D01*
X208390442Y-56001518D01*
X208390442Y-56001518D01*
G37*
G36*
X194166499Y-56211445D02*
X194203993Y-56222819D01*
X194238557Y-56241294D01*
X194268847Y-56266153D01*
X194293706Y-56296443D01*
X194312181Y-56331007D01*
X194323555Y-56368501D01*
X194328000Y-56413638D01*
X194328000Y-57152362D01*
X194323555Y-57197499D01*
X194312181Y-57234993D01*
X194293706Y-57269557D01*
X194268847Y-57299847D01*
X194238557Y-57324706D01*
X194203993Y-57343181D01*
X194166499Y-57354555D01*
X194121362Y-57359000D01*
X193482638Y-57359000D01*
X193437501Y-57354555D01*
X193400007Y-57343181D01*
X193365443Y-57324706D01*
X193335153Y-57299847D01*
X193310294Y-57269557D01*
X193291819Y-57234993D01*
X193280445Y-57197499D01*
X193276000Y-57152362D01*
X193276000Y-56413638D01*
X193280445Y-56368501D01*
X193291819Y-56331007D01*
X193310294Y-56296443D01*
X193335153Y-56266153D01*
X193365443Y-56241294D01*
X193400007Y-56222819D01*
X193437501Y-56211445D01*
X193482638Y-56207000D01*
X194121362Y-56207000D01*
X194166499Y-56211445D01*
X194166499Y-56211445D01*
G37*
G36*
X200389443Y-55239519D02*
X200455627Y-55246037D01*
X200564226Y-55278980D01*
X200625467Y-55297557D01*
X200764087Y-55371652D01*
X200781991Y-55381222D01*
X200817729Y-55410552D01*
X200919186Y-55493814D01*
X200982530Y-55571000D01*
X201031778Y-55631009D01*
X201031779Y-55631011D01*
X201115443Y-55787533D01*
X201115443Y-55787534D01*
X201166963Y-55957373D01*
X201184359Y-56134000D01*
X201166963Y-56310627D01*
X201149407Y-56368501D01*
X201115443Y-56480467D01*
X201095683Y-56517435D01*
X201031778Y-56636991D01*
X201002448Y-56672729D01*
X200919186Y-56774186D01*
X200817729Y-56857448D01*
X200781991Y-56886778D01*
X200781989Y-56886779D01*
X200625467Y-56970443D01*
X200568853Y-56987616D01*
X200455627Y-57021963D01*
X200389442Y-57028482D01*
X200323260Y-57035000D01*
X200234740Y-57035000D01*
X200168558Y-57028482D01*
X200102373Y-57021963D01*
X199989147Y-56987616D01*
X199932533Y-56970443D01*
X199776011Y-56886779D01*
X199776009Y-56886778D01*
X199740271Y-56857448D01*
X199638814Y-56774186D01*
X199555552Y-56672729D01*
X199526222Y-56636991D01*
X199462317Y-56517435D01*
X199442557Y-56480467D01*
X199408593Y-56368501D01*
X199391037Y-56310627D01*
X199373641Y-56134000D01*
X199391037Y-55957373D01*
X199442557Y-55787534D01*
X199442557Y-55787533D01*
X199526221Y-55631011D01*
X199526222Y-55631009D01*
X199575470Y-55571000D01*
X199638814Y-55493814D01*
X199740271Y-55410552D01*
X199776009Y-55381222D01*
X199793913Y-55371652D01*
X199932533Y-55297557D01*
X199993774Y-55278980D01*
X200102373Y-55246037D01*
X200168557Y-55239519D01*
X200234740Y-55233000D01*
X200323260Y-55233000D01*
X200389443Y-55239519D01*
X200389443Y-55239519D01*
G37*
G36*
X155053591Y-54850085D02*
X155087569Y-54860393D01*
X155118887Y-54877133D01*
X155146339Y-54899661D01*
X155168867Y-54927113D01*
X155185607Y-54958431D01*
X155195915Y-54992409D01*
X155200000Y-55033890D01*
X155200000Y-55710110D01*
X155195915Y-55751591D01*
X155185607Y-55785569D01*
X155168867Y-55816887D01*
X155146339Y-55844339D01*
X155118887Y-55866867D01*
X155087569Y-55883607D01*
X155053591Y-55893915D01*
X155012110Y-55898000D01*
X154410890Y-55898000D01*
X154369409Y-55893915D01*
X154335431Y-55883607D01*
X154304113Y-55866867D01*
X154276661Y-55844339D01*
X154254133Y-55816887D01*
X154237393Y-55785569D01*
X154227085Y-55751591D01*
X154223000Y-55710110D01*
X154223000Y-55033890D01*
X154227085Y-54992409D01*
X154237393Y-54958431D01*
X154254133Y-54927113D01*
X154276661Y-54899661D01*
X154304113Y-54877133D01*
X154335431Y-54860393D01*
X154369409Y-54850085D01*
X154410890Y-54846000D01*
X155012110Y-54846000D01*
X155053591Y-54850085D01*
X155053591Y-54850085D01*
G37*
G36*
X137603591Y-54850085D02*
X137637569Y-54860393D01*
X137668887Y-54877133D01*
X137696339Y-54899661D01*
X137718867Y-54927113D01*
X137735607Y-54958431D01*
X137745915Y-54992409D01*
X137750000Y-55033890D01*
X137750000Y-55710110D01*
X137745915Y-55751591D01*
X137735607Y-55785569D01*
X137718867Y-55816887D01*
X137696339Y-55844339D01*
X137668887Y-55866867D01*
X137637569Y-55883607D01*
X137603591Y-55893915D01*
X137562110Y-55898000D01*
X136960890Y-55898000D01*
X136919409Y-55893915D01*
X136885431Y-55883607D01*
X136854113Y-55866867D01*
X136826661Y-55844339D01*
X136804133Y-55816887D01*
X136787393Y-55785569D01*
X136777085Y-55751591D01*
X136773000Y-55710110D01*
X136773000Y-55033890D01*
X136777085Y-54992409D01*
X136787393Y-54958431D01*
X136804133Y-54927113D01*
X136826661Y-54899661D01*
X136854113Y-54877133D01*
X136885431Y-54860393D01*
X136919409Y-54850085D01*
X136960890Y-54846000D01*
X137562110Y-54846000D01*
X137603591Y-54850085D01*
X137603591Y-54850085D01*
G37*
G36*
X135368591Y-54850085D02*
X135402569Y-54860393D01*
X135433887Y-54877133D01*
X135461339Y-54899661D01*
X135483867Y-54927113D01*
X135500607Y-54958431D01*
X135510915Y-54992409D01*
X135515000Y-55033890D01*
X135515000Y-55710110D01*
X135510915Y-55751591D01*
X135500607Y-55785569D01*
X135483867Y-55816887D01*
X135461339Y-55844339D01*
X135433887Y-55866867D01*
X135402569Y-55883607D01*
X135368591Y-55893915D01*
X135327110Y-55898000D01*
X134725890Y-55898000D01*
X134684409Y-55893915D01*
X134650431Y-55883607D01*
X134619113Y-55866867D01*
X134591661Y-55844339D01*
X134569133Y-55816887D01*
X134552393Y-55785569D01*
X134542085Y-55751591D01*
X134538000Y-55710110D01*
X134538000Y-55033890D01*
X134542085Y-54992409D01*
X134552393Y-54958431D01*
X134569133Y-54927113D01*
X134591661Y-54899661D01*
X134619113Y-54877133D01*
X134650431Y-54860393D01*
X134684409Y-54850085D01*
X134725890Y-54846000D01*
X135327110Y-54846000D01*
X135368591Y-54850085D01*
X135368591Y-54850085D01*
G37*
G36*
X153478591Y-54850085D02*
X153512569Y-54860393D01*
X153543887Y-54877133D01*
X153571339Y-54899661D01*
X153593867Y-54927113D01*
X153610607Y-54958431D01*
X153620915Y-54992409D01*
X153625000Y-55033890D01*
X153625000Y-55710110D01*
X153620915Y-55751591D01*
X153610607Y-55785569D01*
X153593867Y-55816887D01*
X153571339Y-55844339D01*
X153543887Y-55866867D01*
X153512569Y-55883607D01*
X153478591Y-55893915D01*
X153437110Y-55898000D01*
X152835890Y-55898000D01*
X152794409Y-55893915D01*
X152760431Y-55883607D01*
X152729113Y-55866867D01*
X152701661Y-55844339D01*
X152679133Y-55816887D01*
X152662393Y-55785569D01*
X152652085Y-55751591D01*
X152648000Y-55710110D01*
X152648000Y-55033890D01*
X152652085Y-54992409D01*
X152662393Y-54958431D01*
X152679133Y-54927113D01*
X152701661Y-54899661D01*
X152729113Y-54877133D01*
X152760431Y-54860393D01*
X152794409Y-54850085D01*
X152835890Y-54846000D01*
X153437110Y-54846000D01*
X153478591Y-54850085D01*
X153478591Y-54850085D01*
G37*
G36*
X133793591Y-54850085D02*
X133827569Y-54860393D01*
X133858887Y-54877133D01*
X133886339Y-54899661D01*
X133908867Y-54927113D01*
X133925607Y-54958431D01*
X133935915Y-54992409D01*
X133940000Y-55033890D01*
X133940000Y-55710110D01*
X133935915Y-55751591D01*
X133925607Y-55785569D01*
X133908867Y-55816887D01*
X133886339Y-55844339D01*
X133858887Y-55866867D01*
X133827569Y-55883607D01*
X133793591Y-55893915D01*
X133752110Y-55898000D01*
X133150890Y-55898000D01*
X133109409Y-55893915D01*
X133075431Y-55883607D01*
X133044113Y-55866867D01*
X133016661Y-55844339D01*
X132994133Y-55816887D01*
X132977393Y-55785569D01*
X132967085Y-55751591D01*
X132963000Y-55710110D01*
X132963000Y-55033890D01*
X132967085Y-54992409D01*
X132977393Y-54958431D01*
X132994133Y-54927113D01*
X133016661Y-54899661D01*
X133044113Y-54877133D01*
X133075431Y-54860393D01*
X133109409Y-54850085D01*
X133150890Y-54846000D01*
X133752110Y-54846000D01*
X133793591Y-54850085D01*
X133793591Y-54850085D01*
G37*
G36*
X139178591Y-54850085D02*
X139212569Y-54860393D01*
X139243887Y-54877133D01*
X139271339Y-54899661D01*
X139293867Y-54927113D01*
X139310607Y-54958431D01*
X139320915Y-54992409D01*
X139325000Y-55033890D01*
X139325000Y-55710110D01*
X139320915Y-55751591D01*
X139310607Y-55785569D01*
X139293867Y-55816887D01*
X139271339Y-55844339D01*
X139243887Y-55866867D01*
X139212569Y-55883607D01*
X139178591Y-55893915D01*
X139137110Y-55898000D01*
X138535890Y-55898000D01*
X138494409Y-55893915D01*
X138460431Y-55883607D01*
X138429113Y-55866867D01*
X138401661Y-55844339D01*
X138379133Y-55816887D01*
X138362393Y-55785569D01*
X138352085Y-55751591D01*
X138348000Y-55710110D01*
X138348000Y-55033890D01*
X138352085Y-54992409D01*
X138362393Y-54958431D01*
X138379133Y-54927113D01*
X138401661Y-54899661D01*
X138429113Y-54877133D01*
X138460431Y-54860393D01*
X138494409Y-54850085D01*
X138535890Y-54846000D01*
X139137110Y-54846000D01*
X139178591Y-54850085D01*
X139178591Y-54850085D01*
G37*
G36*
X145131000Y-55571000D02*
X144429000Y-55571000D01*
X144429000Y-53969000D01*
X145131000Y-53969000D01*
X145131000Y-55571000D01*
X145131000Y-55571000D01*
G37*
G36*
X146401000Y-55571000D02*
X145699000Y-55571000D01*
X145699000Y-53969000D01*
X146401000Y-53969000D01*
X146401000Y-55571000D01*
X146401000Y-55571000D01*
G37*
G36*
X147671000Y-55571000D02*
X146969000Y-55571000D01*
X146969000Y-53969000D01*
X147671000Y-53969000D01*
X147671000Y-55571000D01*
X147671000Y-55571000D01*
G37*
G36*
X148941000Y-55571000D02*
X148239000Y-55571000D01*
X148239000Y-53969000D01*
X148941000Y-53969000D01*
X148941000Y-55571000D01*
X148941000Y-55571000D01*
G37*
G36*
X150211000Y-55571000D02*
X149509000Y-55571000D01*
X149509000Y-53969000D01*
X150211000Y-53969000D01*
X150211000Y-55571000D01*
X150211000Y-55571000D01*
G37*
G36*
X143861000Y-55571000D02*
X143159000Y-55571000D01*
X143159000Y-53969000D01*
X143861000Y-53969000D01*
X143861000Y-55571000D01*
X143861000Y-55571000D01*
G37*
G36*
X151481000Y-55571000D02*
X150779000Y-55571000D01*
X150779000Y-53969000D01*
X151481000Y-53969000D01*
X151481000Y-55571000D01*
X151481000Y-55571000D01*
G37*
G36*
X194166499Y-54151445D02*
X194203993Y-54162819D01*
X194238557Y-54181294D01*
X194268847Y-54206153D01*
X194293706Y-54236443D01*
X194312181Y-54271007D01*
X194323555Y-54308501D01*
X194328000Y-54353638D01*
X194328000Y-55092362D01*
X194323555Y-55137499D01*
X194312181Y-55174993D01*
X194293706Y-55209557D01*
X194268847Y-55239847D01*
X194238557Y-55264706D01*
X194203993Y-55283181D01*
X194166499Y-55294555D01*
X194121362Y-55299000D01*
X193482638Y-55299000D01*
X193437501Y-55294555D01*
X193400007Y-55283181D01*
X193365443Y-55264706D01*
X193335153Y-55239847D01*
X193310294Y-55209557D01*
X193291819Y-55174993D01*
X193280445Y-55137499D01*
X193276000Y-55092362D01*
X193276000Y-54353638D01*
X193280445Y-54308501D01*
X193291819Y-54271007D01*
X193310294Y-54236443D01*
X193335153Y-54206153D01*
X193365443Y-54181294D01*
X193400007Y-54162819D01*
X193437501Y-54151445D01*
X193482638Y-54147000D01*
X194121362Y-54147000D01*
X194166499Y-54151445D01*
X194166499Y-54151445D01*
G37*
G36*
X95746160Y-51924368D02*
X95746162Y-51924369D01*
X95746163Y-51924369D01*
X95787318Y-51941416D01*
X96055726Y-52052594D01*
X96334327Y-52238749D01*
X96571251Y-52475673D01*
X96757406Y-52754274D01*
X96812119Y-52886363D01*
X96856694Y-52993976D01*
X96885632Y-53063840D01*
X96951000Y-53392465D01*
X96951000Y-53727535D01*
X96885632Y-54056160D01*
X96757406Y-54365726D01*
X96571251Y-54644327D01*
X96334327Y-54881251D01*
X96055726Y-55067406D01*
X95888565Y-55136646D01*
X95746163Y-55195631D01*
X95746162Y-55195631D01*
X95746160Y-55195632D01*
X95417535Y-55261000D01*
X95082465Y-55261000D01*
X94753840Y-55195632D01*
X94753838Y-55195631D01*
X94753837Y-55195631D01*
X94611435Y-55136646D01*
X94444274Y-55067406D01*
X94165673Y-54881251D01*
X93928749Y-54644327D01*
X93742594Y-54365726D01*
X93614368Y-54056160D01*
X93549000Y-53727535D01*
X93549000Y-53392465D01*
X93614368Y-53063840D01*
X93643307Y-52993976D01*
X93687881Y-52886363D01*
X93742594Y-52754274D01*
X93928749Y-52475673D01*
X94165673Y-52238749D01*
X94444274Y-52052594D01*
X94712682Y-51941416D01*
X94753837Y-51924369D01*
X94753838Y-51924369D01*
X94753840Y-51924368D01*
X95082465Y-51859000D01*
X95417535Y-51859000D01*
X95746160Y-51924368D01*
X95746160Y-51924368D01*
G37*
G36*
X209181000Y-55257000D02*
X207379000Y-55257000D01*
X207379000Y-53455000D01*
X209181000Y-53455000D01*
X209181000Y-55257000D01*
X209181000Y-55257000D01*
G37*
G36*
X220231031Y-51804207D02*
X220429145Y-51864305D01*
X220611729Y-51961897D01*
X220771765Y-52093235D01*
X220771766Y-52093237D01*
X220771768Y-52093238D01*
X220837648Y-52173514D01*
X220903103Y-52253271D01*
X221000695Y-52435854D01*
X221060793Y-52633968D01*
X221076000Y-52788370D01*
X221076000Y-53891630D01*
X221060793Y-54046032D01*
X221000695Y-54244146D01*
X220903103Y-54426729D01*
X220771765Y-54586765D01*
X220611729Y-54718103D01*
X220429146Y-54815695D01*
X220231032Y-54875793D01*
X220025000Y-54896085D01*
X219818969Y-54875793D01*
X219620855Y-54815695D01*
X219438272Y-54718103D01*
X219278236Y-54586765D01*
X219162713Y-54446000D01*
X219146899Y-54426731D01*
X219049306Y-54244148D01*
X218992281Y-54056163D01*
X218989208Y-54046032D01*
X218989208Y-54046031D01*
X218989207Y-54046028D01*
X218974000Y-53891631D01*
X218974000Y-52788370D01*
X218983393Y-52693000D01*
X218989207Y-52633969D01*
X219049305Y-52435855D01*
X219146897Y-52253271D01*
X219278235Y-52093235D01*
X219278237Y-52093234D01*
X219278238Y-52093232D01*
X219374257Y-52014432D01*
X219438271Y-51961897D01*
X219620854Y-51864305D01*
X219818968Y-51804207D01*
X220025000Y-51783915D01*
X220231031Y-51804207D01*
X220231031Y-51804207D01*
G37*
G36*
X201180000Y-54495000D02*
X199378000Y-54495000D01*
X199378000Y-52693000D01*
X201180000Y-52693000D01*
X201180000Y-54495000D01*
X201180000Y-54495000D01*
G37*
G36*
X214507510Y-52292041D02*
X214631032Y-52304207D01*
X214829146Y-52364305D01*
X215011729Y-52461897D01*
X215171765Y-52593235D01*
X215303103Y-52753271D01*
X215400695Y-52935854D01*
X215460793Y-53133968D01*
X215481085Y-53340000D01*
X215460793Y-53546032D01*
X215400695Y-53744146D01*
X215303103Y-53926729D01*
X215171765Y-54086765D01*
X215011729Y-54218103D01*
X214829146Y-54315695D01*
X214631032Y-54375793D01*
X214507510Y-54387959D01*
X214476631Y-54391000D01*
X213373369Y-54391000D01*
X213342490Y-54387959D01*
X213218968Y-54375793D01*
X213020854Y-54315695D01*
X212838271Y-54218103D01*
X212678235Y-54086765D01*
X212546897Y-53926729D01*
X212449305Y-53744146D01*
X212389207Y-53546032D01*
X212368915Y-53340000D01*
X212389207Y-53133968D01*
X212449305Y-52935854D01*
X212546897Y-52753271D01*
X212678235Y-52593235D01*
X212838271Y-52461897D01*
X213020854Y-52364305D01*
X213218968Y-52304207D01*
X213342490Y-52292041D01*
X213373369Y-52289000D01*
X214476631Y-52289000D01*
X214507510Y-52292041D01*
X214507510Y-52292041D01*
G37*
G36*
X194166499Y-52401445D02*
X194203993Y-52412819D01*
X194238557Y-52431294D01*
X194268847Y-52456153D01*
X194293706Y-52486443D01*
X194312181Y-52521007D01*
X194323555Y-52558501D01*
X194328000Y-52603638D01*
X194328000Y-53342362D01*
X194323555Y-53387499D01*
X194312181Y-53424993D01*
X194293706Y-53459557D01*
X194268847Y-53489847D01*
X194238557Y-53514706D01*
X194203993Y-53533181D01*
X194166499Y-53544555D01*
X194121362Y-53549000D01*
X193482638Y-53549000D01*
X193437501Y-53544555D01*
X193400007Y-53533181D01*
X193365443Y-53514706D01*
X193335153Y-53489847D01*
X193310294Y-53459557D01*
X193291819Y-53424993D01*
X193280445Y-53387499D01*
X193276000Y-53342362D01*
X193276000Y-52603638D01*
X193280445Y-52558501D01*
X193291819Y-52521007D01*
X193310294Y-52486443D01*
X193335153Y-52456153D01*
X193365443Y-52431294D01*
X193400007Y-52412819D01*
X193437501Y-52401445D01*
X193482638Y-52397000D01*
X194121362Y-52397000D01*
X194166499Y-52401445D01*
X194166499Y-52401445D01*
G37*
G36*
X197410565Y-51313389D02*
X197601834Y-51392615D01*
X197773976Y-51507637D01*
X197920363Y-51654024D01*
X198035385Y-51826166D01*
X198114611Y-52017435D01*
X198155000Y-52220484D01*
X198155000Y-52427516D01*
X198114611Y-52630565D01*
X198035385Y-52821834D01*
X197920363Y-52993976D01*
X197773976Y-53140363D01*
X197601834Y-53255385D01*
X197410565Y-53334611D01*
X197207516Y-53375000D01*
X197000484Y-53375000D01*
X196797435Y-53334611D01*
X196606166Y-53255385D01*
X196434024Y-53140363D01*
X196287637Y-52993976D01*
X196172615Y-52821834D01*
X196093389Y-52630565D01*
X196053000Y-52427516D01*
X196053000Y-52220484D01*
X196093389Y-52017435D01*
X196172615Y-51826166D01*
X196287637Y-51654024D01*
X196434024Y-51507637D01*
X196606166Y-51392615D01*
X196797435Y-51313389D01*
X197000484Y-51273000D01*
X197207516Y-51273000D01*
X197410565Y-51313389D01*
X197410565Y-51313389D01*
G37*
G36*
X203910565Y-51313389D02*
X204101834Y-51392615D01*
X204273976Y-51507637D01*
X204420363Y-51654024D01*
X204535385Y-51826166D01*
X204614611Y-52017435D01*
X204655000Y-52220484D01*
X204655000Y-52427516D01*
X204614611Y-52630565D01*
X204535385Y-52821834D01*
X204420363Y-52993976D01*
X204273976Y-53140363D01*
X204101834Y-53255385D01*
X203910565Y-53334611D01*
X203707516Y-53375000D01*
X203500484Y-53375000D01*
X203297435Y-53334611D01*
X203106166Y-53255385D01*
X202934024Y-53140363D01*
X202787637Y-52993976D01*
X202672615Y-52821834D01*
X202593389Y-52630565D01*
X202553000Y-52427516D01*
X202553000Y-52220484D01*
X202593389Y-52017435D01*
X202672615Y-51826166D01*
X202787637Y-51654024D01*
X202934024Y-51507637D01*
X203106166Y-51392615D01*
X203297435Y-51313389D01*
X203500484Y-51273000D01*
X203707516Y-51273000D01*
X203910565Y-51313389D01*
X203910565Y-51313389D01*
G37*
G36*
X156810565Y-51059389D02*
X157001834Y-51138615D01*
X157173976Y-51253637D01*
X157320363Y-51400024D01*
X157435385Y-51572166D01*
X157514611Y-51763435D01*
X157555000Y-51966484D01*
X157555000Y-52173516D01*
X157514611Y-52376565D01*
X157435385Y-52567834D01*
X157320363Y-52739976D01*
X157173976Y-52886363D01*
X157001834Y-53001385D01*
X156810565Y-53080611D01*
X156607516Y-53121000D01*
X156400484Y-53121000D01*
X156197435Y-53080611D01*
X156006166Y-53001385D01*
X155834024Y-52886363D01*
X155687637Y-52739976D01*
X155572615Y-52567834D01*
X155493389Y-52376565D01*
X155453000Y-52173516D01*
X155453000Y-51966484D01*
X155493389Y-51763435D01*
X155572615Y-51572166D01*
X155687637Y-51400024D01*
X155834024Y-51253637D01*
X156006166Y-51138615D01*
X156197435Y-51059389D01*
X156400484Y-51019000D01*
X156607516Y-51019000D01*
X156810565Y-51059389D01*
X156810565Y-51059389D01*
G37*
G36*
X170700565Y-51059389D02*
X170891834Y-51138615D01*
X171063976Y-51253637D01*
X171210363Y-51400024D01*
X171325385Y-51572166D01*
X171404611Y-51763435D01*
X171445000Y-51966484D01*
X171445000Y-52173516D01*
X171404611Y-52376565D01*
X171325385Y-52567834D01*
X171210363Y-52739976D01*
X171063976Y-52886363D01*
X170891834Y-53001385D01*
X170700565Y-53080611D01*
X170497516Y-53121000D01*
X170290484Y-53121000D01*
X170087435Y-53080611D01*
X169896166Y-53001385D01*
X169724024Y-52886363D01*
X169577637Y-52739976D01*
X169462615Y-52567834D01*
X169383389Y-52376565D01*
X169343000Y-52173516D01*
X169343000Y-51966484D01*
X169383389Y-51763435D01*
X169462615Y-51572166D01*
X169577637Y-51400024D01*
X169724024Y-51253637D01*
X169896166Y-51138615D01*
X170087435Y-51059389D01*
X170290484Y-51019000D01*
X170497516Y-51019000D01*
X170700565Y-51059389D01*
X170700565Y-51059389D01*
G37*
G36*
X174590565Y-51059389D02*
X174781834Y-51138615D01*
X174953976Y-51253637D01*
X175100363Y-51400024D01*
X175215385Y-51572166D01*
X175294611Y-51763435D01*
X175335000Y-51966484D01*
X175335000Y-52173516D01*
X175294611Y-52376565D01*
X175215385Y-52567834D01*
X175100363Y-52739976D01*
X174953976Y-52886363D01*
X174781834Y-53001385D01*
X174590565Y-53080611D01*
X174387516Y-53121000D01*
X174180484Y-53121000D01*
X173977435Y-53080611D01*
X173786166Y-53001385D01*
X173614024Y-52886363D01*
X173467637Y-52739976D01*
X173352615Y-52567834D01*
X173273389Y-52376565D01*
X173233000Y-52173516D01*
X173233000Y-51966484D01*
X173273389Y-51763435D01*
X173352615Y-51572166D01*
X173467637Y-51400024D01*
X173614024Y-51253637D01*
X173786166Y-51138615D01*
X173977435Y-51059389D01*
X174180484Y-51019000D01*
X174387516Y-51019000D01*
X174590565Y-51059389D01*
X174590565Y-51059389D01*
G37*
G36*
X179590565Y-51059389D02*
X179781834Y-51138615D01*
X179953976Y-51253637D01*
X180100363Y-51400024D01*
X180215385Y-51572166D01*
X180294611Y-51763435D01*
X180335000Y-51966484D01*
X180335000Y-52173516D01*
X180294611Y-52376565D01*
X180215385Y-52567834D01*
X180100363Y-52739976D01*
X179953976Y-52886363D01*
X179781834Y-53001385D01*
X179590565Y-53080611D01*
X179387516Y-53121000D01*
X179180484Y-53121000D01*
X178977435Y-53080611D01*
X178786166Y-53001385D01*
X178614024Y-52886363D01*
X178467637Y-52739976D01*
X178352615Y-52567834D01*
X178273389Y-52376565D01*
X178233000Y-52173516D01*
X178233000Y-51966484D01*
X178273389Y-51763435D01*
X178352615Y-51572166D01*
X178467637Y-51400024D01*
X178614024Y-51253637D01*
X178786166Y-51138615D01*
X178977435Y-51059389D01*
X179180484Y-51019000D01*
X179387516Y-51019000D01*
X179590565Y-51059389D01*
X179590565Y-51059389D01*
G37*
G36*
X165700565Y-51059389D02*
X165891834Y-51138615D01*
X166063976Y-51253637D01*
X166210363Y-51400024D01*
X166325385Y-51572166D01*
X166404611Y-51763435D01*
X166445000Y-51966484D01*
X166445000Y-52173516D01*
X166404611Y-52376565D01*
X166325385Y-52567834D01*
X166210363Y-52739976D01*
X166063976Y-52886363D01*
X165891834Y-53001385D01*
X165700565Y-53080611D01*
X165497516Y-53121000D01*
X165290484Y-53121000D01*
X165087435Y-53080611D01*
X164896166Y-53001385D01*
X164724024Y-52886363D01*
X164577637Y-52739976D01*
X164462615Y-52567834D01*
X164383389Y-52376565D01*
X164343000Y-52173516D01*
X164343000Y-51966484D01*
X164383389Y-51763435D01*
X164462615Y-51572166D01*
X164577637Y-51400024D01*
X164724024Y-51253637D01*
X164896166Y-51138615D01*
X165087435Y-51059389D01*
X165290484Y-51019000D01*
X165497516Y-51019000D01*
X165700565Y-51059389D01*
X165700565Y-51059389D01*
G37*
G36*
X161810565Y-51059389D02*
X162001834Y-51138615D01*
X162173976Y-51253637D01*
X162320363Y-51400024D01*
X162435385Y-51572166D01*
X162514611Y-51763435D01*
X162555000Y-51966484D01*
X162555000Y-52173516D01*
X162514611Y-52376565D01*
X162435385Y-52567834D01*
X162320363Y-52739976D01*
X162173976Y-52886363D01*
X162001834Y-53001385D01*
X161810565Y-53080611D01*
X161607516Y-53121000D01*
X161400484Y-53121000D01*
X161197435Y-53080611D01*
X161006166Y-53001385D01*
X160834024Y-52886363D01*
X160687637Y-52739976D01*
X160572615Y-52567834D01*
X160493389Y-52376565D01*
X160453000Y-52173516D01*
X160453000Y-51966484D01*
X160493389Y-51763435D01*
X160572615Y-51572166D01*
X160687637Y-51400024D01*
X160834024Y-51253637D01*
X161006166Y-51138615D01*
X161197435Y-51059389D01*
X161400484Y-51019000D01*
X161607516Y-51019000D01*
X161810565Y-51059389D01*
X161810565Y-51059389D01*
G37*
G36*
X133837643Y-50791781D02*
X133983415Y-50852162D01*
X134114611Y-50939824D01*
X134226176Y-51051389D01*
X134313838Y-51182585D01*
X134374219Y-51328357D01*
X134405000Y-51483107D01*
X134405000Y-51640893D01*
X134374219Y-51795643D01*
X134313838Y-51941415D01*
X134226176Y-52072611D01*
X134114611Y-52184176D01*
X133983415Y-52271838D01*
X133837643Y-52332219D01*
X133682893Y-52363000D01*
X133525107Y-52363000D01*
X133370357Y-52332219D01*
X133224585Y-52271838D01*
X133093389Y-52184176D01*
X132981824Y-52072611D01*
X132894162Y-51941415D01*
X132833781Y-51795643D01*
X132803000Y-51640893D01*
X132803000Y-51483107D01*
X132833781Y-51328357D01*
X132894162Y-51182585D01*
X132981824Y-51051389D01*
X133093389Y-50939824D01*
X133224585Y-50852162D01*
X133370357Y-50791781D01*
X133525107Y-50761000D01*
X133682893Y-50761000D01*
X133837643Y-50791781D01*
X133837643Y-50791781D01*
G37*
G36*
X138717643Y-50791781D02*
X138863415Y-50852162D01*
X138994611Y-50939824D01*
X139106176Y-51051389D01*
X139193838Y-51182585D01*
X139254219Y-51328357D01*
X139285000Y-51483107D01*
X139285000Y-51640893D01*
X139254219Y-51795643D01*
X139193838Y-51941415D01*
X139106176Y-52072611D01*
X138994611Y-52184176D01*
X138863415Y-52271838D01*
X138717643Y-52332219D01*
X138562893Y-52363000D01*
X138405107Y-52363000D01*
X138250357Y-52332219D01*
X138104585Y-52271838D01*
X137973389Y-52184176D01*
X137861824Y-52072611D01*
X137774162Y-51941415D01*
X137713781Y-51795643D01*
X137683000Y-51640893D01*
X137683000Y-51483107D01*
X137713781Y-51328357D01*
X137774162Y-51182585D01*
X137861824Y-51051389D01*
X137973389Y-50939824D01*
X138104585Y-50852162D01*
X138250357Y-50791781D01*
X138405107Y-50761000D01*
X138562893Y-50761000D01*
X138717643Y-50791781D01*
X138717643Y-50791781D01*
G37*
G36*
X189362000Y-51723000D02*
X183510000Y-51723000D01*
X183510000Y-50321000D01*
X189362000Y-50321000D01*
X189362000Y-51723000D01*
X189362000Y-51723000D01*
G37*
G36*
X98251981Y-49527468D02*
X98434150Y-49602925D01*
X98598103Y-49712475D01*
X98737525Y-49851897D01*
X98847075Y-50015850D01*
X98922532Y-50198019D01*
X98961000Y-50391410D01*
X98961000Y-50588590D01*
X98922532Y-50781981D01*
X98847075Y-50964150D01*
X98737525Y-51128103D01*
X98598103Y-51267525D01*
X98434150Y-51377075D01*
X98251981Y-51452532D01*
X98058590Y-51491000D01*
X97861410Y-51491000D01*
X97668019Y-51452532D01*
X97485850Y-51377075D01*
X97321897Y-51267525D01*
X97182475Y-51128103D01*
X97072925Y-50964150D01*
X96997468Y-50781981D01*
X96959000Y-50588590D01*
X96959000Y-50391410D01*
X96997468Y-50198019D01*
X97072925Y-50015850D01*
X97182475Y-49851897D01*
X97321897Y-49712475D01*
X97485850Y-49602925D01*
X97668019Y-49527468D01*
X97861410Y-49489000D01*
X98058590Y-49489000D01*
X98251981Y-49527468D01*
X98251981Y-49527468D01*
G37*
G36*
X222605946Y-48684189D02*
X222843620Y-48782636D01*
X223057530Y-48925567D01*
X223239433Y-49107470D01*
X223382364Y-49321380D01*
X223480811Y-49559054D01*
X223531000Y-49811370D01*
X223531000Y-50068630D01*
X223480811Y-50320946D01*
X223382364Y-50558620D01*
X223239433Y-50772530D01*
X223057530Y-50954433D01*
X223057527Y-50954435D01*
X223057526Y-50954436D01*
X222912426Y-51051389D01*
X222843620Y-51097364D01*
X222605946Y-51195811D01*
X222353630Y-51246000D01*
X222096370Y-51246000D01*
X221844054Y-51195811D01*
X221606380Y-51097364D01*
X221537574Y-51051389D01*
X221392474Y-50954436D01*
X221392473Y-50954435D01*
X221392470Y-50954433D01*
X221210567Y-50772530D01*
X221067636Y-50558620D01*
X220969189Y-50320946D01*
X220919000Y-50068630D01*
X220919000Y-49811370D01*
X220969189Y-49559054D01*
X221067636Y-49321380D01*
X221210567Y-49107470D01*
X221392470Y-48925567D01*
X221606380Y-48782636D01*
X221844054Y-48684189D01*
X222096370Y-48634000D01*
X222353630Y-48634000D01*
X222605946Y-48684189D01*
X222605946Y-48684189D01*
G37*
G36*
X151481000Y-49663000D02*
X150779000Y-49663000D01*
X150779000Y-48061000D01*
X151481000Y-48061000D01*
X151481000Y-49663000D01*
X151481000Y-49663000D01*
G37*
G36*
X148941000Y-49663000D02*
X148239000Y-49663000D01*
X148239000Y-48061000D01*
X148941000Y-48061000D01*
X148941000Y-49663000D01*
X148941000Y-49663000D01*
G37*
G36*
X150211000Y-49663000D02*
X149509000Y-49663000D01*
X149509000Y-48061000D01*
X150211000Y-48061000D01*
X150211000Y-49663000D01*
X150211000Y-49663000D01*
G37*
G36*
X146401000Y-49663000D02*
X145699000Y-49663000D01*
X145699000Y-48061000D01*
X146401000Y-48061000D01*
X146401000Y-49663000D01*
X146401000Y-49663000D01*
G37*
G36*
X145131000Y-49663000D02*
X144429000Y-49663000D01*
X144429000Y-48061000D01*
X145131000Y-48061000D01*
X145131000Y-49663000D01*
X145131000Y-49663000D01*
G37*
G36*
X143861000Y-49663000D02*
X143159000Y-49663000D01*
X143159000Y-48061000D01*
X143861000Y-48061000D01*
X143861000Y-49663000D01*
X143861000Y-49663000D01*
G37*
G36*
X147671000Y-49663000D02*
X146969000Y-49663000D01*
X146969000Y-48061000D01*
X147671000Y-48061000D01*
X147671000Y-49663000D01*
X147671000Y-49663000D01*
G37*
G36*
X98251981Y-45027468D02*
X98434150Y-45102925D01*
X98598103Y-45212475D01*
X98737525Y-45351897D01*
X98847075Y-45515850D01*
X98922532Y-45698019D01*
X98961000Y-45891410D01*
X98961000Y-46088590D01*
X98922532Y-46281981D01*
X98847075Y-46464150D01*
X98737525Y-46628103D01*
X98598103Y-46767525D01*
X98428589Y-46880791D01*
X98418717Y-46886068D01*
X98399775Y-46901614D01*
X98384230Y-46920556D01*
X98372680Y-46942168D01*
X98365567Y-46965617D01*
X98363166Y-46990003D01*
X98365568Y-47014390D01*
X98372682Y-47037838D01*
X98384234Y-47059449D01*
X98399780Y-47078391D01*
X98418722Y-47093936D01*
X98428594Y-47099212D01*
X98598103Y-47212475D01*
X98737525Y-47351897D01*
X98847075Y-47515850D01*
X98922532Y-47698019D01*
X98961000Y-47891410D01*
X98961000Y-48088590D01*
X98922532Y-48281981D01*
X98847075Y-48464150D01*
X98737525Y-48628103D01*
X98598103Y-48767525D01*
X98434150Y-48877075D01*
X98317087Y-48925564D01*
X98251981Y-48952532D01*
X98058590Y-48991000D01*
X97861410Y-48991000D01*
X97668019Y-48952532D01*
X97602913Y-48925564D01*
X97485850Y-48877075D01*
X97321897Y-48767525D01*
X97182475Y-48628103D01*
X97072925Y-48464150D01*
X96997468Y-48281981D01*
X96959000Y-48088590D01*
X96959000Y-47891410D01*
X96997468Y-47698019D01*
X97072925Y-47515850D01*
X97182475Y-47351897D01*
X97321897Y-47212475D01*
X97491411Y-47099209D01*
X97501283Y-47093932D01*
X97520225Y-47078386D01*
X97535770Y-47059444D01*
X97547320Y-47037832D01*
X97554433Y-47014383D01*
X97556834Y-46989997D01*
X97554432Y-46965610D01*
X97547318Y-46942162D01*
X97535766Y-46920551D01*
X97520220Y-46901609D01*
X97501278Y-46886064D01*
X97491406Y-46880788D01*
X97321897Y-46767525D01*
X97182475Y-46628103D01*
X97072925Y-46464150D01*
X96997468Y-46281981D01*
X96959000Y-46088590D01*
X96959000Y-45891410D01*
X96997468Y-45698019D01*
X97072925Y-45515850D01*
X97182475Y-45351897D01*
X97321897Y-45212475D01*
X97485850Y-45102925D01*
X97668019Y-45027468D01*
X97861410Y-44989000D01*
X98058590Y-44989000D01*
X98251981Y-45027468D01*
X98251981Y-45027468D01*
G37*
G36*
X135698591Y-47230085D02*
X135732569Y-47240393D01*
X135763887Y-47257133D01*
X135791339Y-47279661D01*
X135813867Y-47307113D01*
X135830607Y-47338431D01*
X135840915Y-47372409D01*
X135845000Y-47413890D01*
X135845000Y-48090110D01*
X135840915Y-48131591D01*
X135830607Y-48165569D01*
X135813867Y-48196887D01*
X135791339Y-48224339D01*
X135763887Y-48246867D01*
X135732569Y-48263607D01*
X135698591Y-48273915D01*
X135657110Y-48278000D01*
X135055890Y-48278000D01*
X135014409Y-48273915D01*
X134980431Y-48263607D01*
X134949113Y-48246867D01*
X134921661Y-48224339D01*
X134899133Y-48196887D01*
X134882393Y-48165569D01*
X134872085Y-48131591D01*
X134868000Y-48090110D01*
X134868000Y-47413890D01*
X134872085Y-47372409D01*
X134882393Y-47338431D01*
X134899133Y-47307113D01*
X134921661Y-47279661D01*
X134949113Y-47257133D01*
X134980431Y-47240393D01*
X135014409Y-47230085D01*
X135055890Y-47226000D01*
X135657110Y-47226000D01*
X135698591Y-47230085D01*
X135698591Y-47230085D01*
G37*
G36*
X137273591Y-47230085D02*
X137307569Y-47240393D01*
X137338887Y-47257133D01*
X137366339Y-47279661D01*
X137388867Y-47307113D01*
X137405607Y-47338431D01*
X137415915Y-47372409D01*
X137420000Y-47413890D01*
X137420000Y-48090110D01*
X137415915Y-48131591D01*
X137405607Y-48165569D01*
X137388867Y-48196887D01*
X137366339Y-48224339D01*
X137338887Y-48246867D01*
X137307569Y-48263607D01*
X137273591Y-48273915D01*
X137232110Y-48278000D01*
X136630890Y-48278000D01*
X136589409Y-48273915D01*
X136555431Y-48263607D01*
X136524113Y-48246867D01*
X136496661Y-48224339D01*
X136474133Y-48196887D01*
X136457393Y-48165569D01*
X136447085Y-48131591D01*
X136443000Y-48090110D01*
X136443000Y-47413890D01*
X136447085Y-47372409D01*
X136457393Y-47338431D01*
X136474133Y-47307113D01*
X136496661Y-47279661D01*
X136524113Y-47257133D01*
X136555431Y-47240393D01*
X136589409Y-47230085D01*
X136630890Y-47226000D01*
X137232110Y-47226000D01*
X137273591Y-47230085D01*
X137273591Y-47230085D01*
G37*
G36*
X208390443Y-46349519D02*
X208456627Y-46356037D01*
X208569853Y-46390384D01*
X208626467Y-46407557D01*
X208732343Y-46464150D01*
X208782991Y-46491222D01*
X208818729Y-46520552D01*
X208920186Y-46603814D01*
X209003448Y-46705271D01*
X209032778Y-46741009D01*
X209032779Y-46741011D01*
X209116443Y-46897533D01*
X209116443Y-46897534D01*
X209167963Y-47067373D01*
X209185359Y-47244000D01*
X209167963Y-47420627D01*
X209152910Y-47470250D01*
X209116443Y-47590467D01*
X209058954Y-47698019D01*
X209032778Y-47746991D01*
X209003448Y-47782729D01*
X208920186Y-47884186D01*
X208818729Y-47967448D01*
X208782991Y-47996778D01*
X208782989Y-47996779D01*
X208626467Y-48080443D01*
X208569853Y-48097616D01*
X208456627Y-48131963D01*
X208390443Y-48138481D01*
X208324260Y-48145000D01*
X208235740Y-48145000D01*
X208169558Y-48138482D01*
X208103373Y-48131963D01*
X207990147Y-48097616D01*
X207933533Y-48080443D01*
X207777011Y-47996779D01*
X207777009Y-47996778D01*
X207741271Y-47967448D01*
X207639814Y-47884186D01*
X207556552Y-47782729D01*
X207527222Y-47746991D01*
X207501046Y-47698019D01*
X207443557Y-47590467D01*
X207407090Y-47470250D01*
X207392037Y-47420627D01*
X207374641Y-47244000D01*
X207392037Y-47067373D01*
X207443557Y-46897534D01*
X207443557Y-46897533D01*
X207527221Y-46741011D01*
X207527222Y-46741009D01*
X207556552Y-46705271D01*
X207639814Y-46603814D01*
X207741271Y-46520552D01*
X207777009Y-46491222D01*
X207827657Y-46464150D01*
X207933533Y-46407557D01*
X207990147Y-46390384D01*
X208103373Y-46356037D01*
X208169557Y-46349519D01*
X208235740Y-46343000D01*
X208324260Y-46343000D01*
X208390443Y-46349519D01*
X208390443Y-46349519D01*
G37*
G36*
X168200565Y-46059389D02*
X168391834Y-46138615D01*
X168563976Y-46253637D01*
X168710363Y-46400024D01*
X168825385Y-46572166D01*
X168904611Y-46763435D01*
X168945000Y-46966484D01*
X168945000Y-47173516D01*
X168904611Y-47376565D01*
X168825385Y-47567834D01*
X168710363Y-47739976D01*
X168563976Y-47886363D01*
X168391834Y-48001385D01*
X168200565Y-48080611D01*
X167997516Y-48121000D01*
X167790484Y-48121000D01*
X167587435Y-48080611D01*
X167396166Y-48001385D01*
X167224024Y-47886363D01*
X167077637Y-47739976D01*
X166962615Y-47567834D01*
X166883389Y-47376565D01*
X166843000Y-47173516D01*
X166843000Y-46966484D01*
X166883389Y-46763435D01*
X166962615Y-46572166D01*
X167077637Y-46400024D01*
X167224024Y-46253637D01*
X167396166Y-46138615D01*
X167587435Y-46059389D01*
X167790484Y-46019000D01*
X167997516Y-46019000D01*
X168200565Y-46059389D01*
X168200565Y-46059389D01*
G37*
G36*
X177090565Y-46059389D02*
X177281834Y-46138615D01*
X177453976Y-46253637D01*
X177600363Y-46400024D01*
X177715385Y-46572166D01*
X177794611Y-46763435D01*
X177835000Y-46966484D01*
X177835000Y-47173516D01*
X177794611Y-47376565D01*
X177715385Y-47567834D01*
X177600363Y-47739976D01*
X177453976Y-47886363D01*
X177281834Y-48001385D01*
X177090565Y-48080611D01*
X176887516Y-48121000D01*
X176680484Y-48121000D01*
X176477435Y-48080611D01*
X176286166Y-48001385D01*
X176114024Y-47886363D01*
X175967637Y-47739976D01*
X175852615Y-47567834D01*
X175773389Y-47376565D01*
X175733000Y-47173516D01*
X175733000Y-46966484D01*
X175773389Y-46763435D01*
X175852615Y-46572166D01*
X175967637Y-46400024D01*
X176114024Y-46253637D01*
X176286166Y-46138615D01*
X176477435Y-46059389D01*
X176680484Y-46019000D01*
X176887516Y-46019000D01*
X177090565Y-46059389D01*
X177090565Y-46059389D01*
G37*
G36*
X159310565Y-46059389D02*
X159501834Y-46138615D01*
X159673976Y-46253637D01*
X159820363Y-46400024D01*
X159935385Y-46572166D01*
X160014611Y-46763435D01*
X160055000Y-46966484D01*
X160055000Y-47173516D01*
X160014611Y-47376565D01*
X159935385Y-47567834D01*
X159820363Y-47739976D01*
X159673976Y-47886363D01*
X159501834Y-48001385D01*
X159310565Y-48080611D01*
X159107516Y-48121000D01*
X158900484Y-48121000D01*
X158697435Y-48080611D01*
X158506166Y-48001385D01*
X158334024Y-47886363D01*
X158187637Y-47739976D01*
X158072615Y-47567834D01*
X157993389Y-47376565D01*
X157953000Y-47173516D01*
X157953000Y-46966484D01*
X157993389Y-46763435D01*
X158072615Y-46572166D01*
X158187637Y-46400024D01*
X158334024Y-46253637D01*
X158506166Y-46138615D01*
X158697435Y-46059389D01*
X158900484Y-46019000D01*
X159107516Y-46019000D01*
X159310565Y-46059389D01*
X159310565Y-46059389D01*
G37*
G36*
X208390442Y-43809518D02*
X208456627Y-43816037D01*
X208569853Y-43850384D01*
X208626467Y-43867557D01*
X208732063Y-43924000D01*
X208782991Y-43951222D01*
X208799979Y-43965164D01*
X208920186Y-44063814D01*
X209000369Y-44161519D01*
X209032778Y-44201009D01*
X209032779Y-44201011D01*
X209116443Y-44357533D01*
X209122371Y-44377075D01*
X209167963Y-44527373D01*
X209185359Y-44704000D01*
X209167963Y-44880627D01*
X209139032Y-44976000D01*
X209116443Y-45050467D01*
X209058718Y-45158461D01*
X209032778Y-45206991D01*
X209017746Y-45225307D01*
X208920186Y-45344186D01*
X208818729Y-45427448D01*
X208782991Y-45456778D01*
X208782989Y-45456779D01*
X208626467Y-45540443D01*
X208578478Y-45555000D01*
X208456627Y-45591963D01*
X208390443Y-45598481D01*
X208324260Y-45605000D01*
X208235740Y-45605000D01*
X208169557Y-45598481D01*
X208103373Y-45591963D01*
X207981522Y-45555000D01*
X207933533Y-45540443D01*
X207777011Y-45456779D01*
X207777009Y-45456778D01*
X207741271Y-45427448D01*
X207639814Y-45344186D01*
X207542254Y-45225307D01*
X207527222Y-45206991D01*
X207501282Y-45158461D01*
X207443557Y-45050467D01*
X207420968Y-44976000D01*
X207392037Y-44880627D01*
X207374641Y-44704000D01*
X207392037Y-44527373D01*
X207437629Y-44377075D01*
X207443557Y-44357533D01*
X207527221Y-44201011D01*
X207527222Y-44201009D01*
X207559631Y-44161519D01*
X207639814Y-44063814D01*
X207760021Y-43965164D01*
X207777009Y-43951222D01*
X207827937Y-43924000D01*
X207933533Y-43867557D01*
X207990147Y-43850384D01*
X208103373Y-43816037D01*
X208169558Y-43809518D01*
X208235740Y-43803000D01*
X208324260Y-43803000D01*
X208390442Y-43809518D01*
X208390442Y-43809518D01*
G37*
G36*
X144382442Y-43809518D02*
X144448627Y-43816037D01*
X144561853Y-43850384D01*
X144618467Y-43867557D01*
X144724063Y-43924000D01*
X144774991Y-43951222D01*
X144791979Y-43965164D01*
X144912186Y-44063814D01*
X144992369Y-44161519D01*
X145024778Y-44201009D01*
X145024779Y-44201011D01*
X145108443Y-44357533D01*
X145114371Y-44377075D01*
X145159963Y-44527373D01*
X145177359Y-44704000D01*
X145159963Y-44880627D01*
X145131032Y-44976000D01*
X145108443Y-45050467D01*
X145050718Y-45158461D01*
X145024778Y-45206991D01*
X145009746Y-45225307D01*
X144912186Y-45344186D01*
X144810729Y-45427448D01*
X144774991Y-45456778D01*
X144774989Y-45456779D01*
X144618467Y-45540443D01*
X144570478Y-45555000D01*
X144448627Y-45591963D01*
X144382443Y-45598481D01*
X144316260Y-45605000D01*
X144227740Y-45605000D01*
X144161557Y-45598481D01*
X144095373Y-45591963D01*
X143973522Y-45555000D01*
X143925533Y-45540443D01*
X143769011Y-45456779D01*
X143769009Y-45456778D01*
X143733271Y-45427448D01*
X143631814Y-45344186D01*
X143534254Y-45225307D01*
X143519222Y-45206991D01*
X143493282Y-45158461D01*
X143435557Y-45050467D01*
X143412968Y-44976000D01*
X143384037Y-44880627D01*
X143366641Y-44704000D01*
X143384037Y-44527373D01*
X143429629Y-44377075D01*
X143435557Y-44357533D01*
X143519221Y-44201011D01*
X143519222Y-44201009D01*
X143551631Y-44161519D01*
X143631814Y-44063814D01*
X143752021Y-43965164D01*
X143769009Y-43951222D01*
X143819937Y-43924000D01*
X143925533Y-43867557D01*
X143982147Y-43850384D01*
X144095373Y-43816037D01*
X144161558Y-43809518D01*
X144227740Y-43803000D01*
X144316260Y-43803000D01*
X144382442Y-43809518D01*
X144382442Y-43809518D01*
G37*
G36*
X141842442Y-43809518D02*
X141908627Y-43816037D01*
X142021853Y-43850384D01*
X142078467Y-43867557D01*
X142184063Y-43924000D01*
X142234991Y-43951222D01*
X142251979Y-43965164D01*
X142372186Y-44063814D01*
X142452369Y-44161519D01*
X142484778Y-44201009D01*
X142484779Y-44201011D01*
X142568443Y-44357533D01*
X142574371Y-44377075D01*
X142619963Y-44527373D01*
X142637359Y-44704000D01*
X142619963Y-44880627D01*
X142591032Y-44976000D01*
X142568443Y-45050467D01*
X142510718Y-45158461D01*
X142484778Y-45206991D01*
X142469746Y-45225307D01*
X142372186Y-45344186D01*
X142270729Y-45427448D01*
X142234991Y-45456778D01*
X142234989Y-45456779D01*
X142078467Y-45540443D01*
X142030478Y-45555000D01*
X141908627Y-45591963D01*
X141842443Y-45598481D01*
X141776260Y-45605000D01*
X141687740Y-45605000D01*
X141621557Y-45598481D01*
X141555373Y-45591963D01*
X141433522Y-45555000D01*
X141385533Y-45540443D01*
X141229011Y-45456779D01*
X141229009Y-45456778D01*
X141193271Y-45427448D01*
X141091814Y-45344186D01*
X140994254Y-45225307D01*
X140979222Y-45206991D01*
X140953282Y-45158461D01*
X140895557Y-45050467D01*
X140872968Y-44976000D01*
X140844037Y-44880627D01*
X140826641Y-44704000D01*
X140844037Y-44527373D01*
X140889629Y-44377075D01*
X140895557Y-44357533D01*
X140979221Y-44201011D01*
X140979222Y-44201009D01*
X141011631Y-44161519D01*
X141091814Y-44063814D01*
X141212021Y-43965164D01*
X141229009Y-43951222D01*
X141279937Y-43924000D01*
X141385533Y-43867557D01*
X141442147Y-43850384D01*
X141555373Y-43816037D01*
X141621558Y-43809518D01*
X141687740Y-43803000D01*
X141776260Y-43803000D01*
X141842442Y-43809518D01*
X141842442Y-43809518D01*
G37*
G36*
X140093000Y-45605000D02*
X138291000Y-45605000D01*
X138291000Y-43803000D01*
X140093000Y-43803000D01*
X140093000Y-45605000D01*
X140093000Y-45605000D01*
G37*
G36*
X198971000Y-45555000D02*
X197269000Y-45555000D01*
X197269000Y-43853000D01*
X198971000Y-43853000D01*
X198971000Y-45555000D01*
X198971000Y-45555000D01*
G37*
G36*
X201868228Y-43885703D02*
X202023100Y-43949853D01*
X202162481Y-44042985D01*
X202281015Y-44161519D01*
X202374147Y-44300900D01*
X202438297Y-44455772D01*
X202471000Y-44620184D01*
X202471000Y-44787816D01*
X202438297Y-44952228D01*
X202374147Y-45107100D01*
X202281015Y-45246481D01*
X202162481Y-45365015D01*
X202023100Y-45458147D01*
X201868228Y-45522297D01*
X201703816Y-45555000D01*
X201536184Y-45555000D01*
X201371772Y-45522297D01*
X201216900Y-45458147D01*
X201077519Y-45365015D01*
X200958985Y-45246481D01*
X200865853Y-45107100D01*
X200801703Y-44952228D01*
X200769000Y-44787816D01*
X200769000Y-44620184D01*
X200801703Y-44455772D01*
X200865853Y-44300900D01*
X200958985Y-44161519D01*
X201077519Y-44042985D01*
X201216900Y-43949853D01*
X201371772Y-43885703D01*
X201536184Y-43853000D01*
X201703816Y-43853000D01*
X201868228Y-43885703D01*
X201868228Y-43885703D01*
G37*
G36*
X192216228Y-43885703D02*
X192371100Y-43949853D01*
X192510481Y-44042985D01*
X192629015Y-44161519D01*
X192722147Y-44300900D01*
X192786297Y-44455772D01*
X192819000Y-44620184D01*
X192819000Y-44787816D01*
X192786297Y-44952228D01*
X192722147Y-45107100D01*
X192629015Y-45246481D01*
X192510481Y-45365015D01*
X192371100Y-45458147D01*
X192216228Y-45522297D01*
X192051816Y-45555000D01*
X191884184Y-45555000D01*
X191719772Y-45522297D01*
X191564900Y-45458147D01*
X191425519Y-45365015D01*
X191306985Y-45246481D01*
X191213853Y-45107100D01*
X191149703Y-44952228D01*
X191117000Y-44787816D01*
X191117000Y-44620184D01*
X191149703Y-44455772D01*
X191213853Y-44300900D01*
X191306985Y-44161519D01*
X191425519Y-44042985D01*
X191564900Y-43949853D01*
X191719772Y-43885703D01*
X191884184Y-43853000D01*
X192051816Y-43853000D01*
X192216228Y-43885703D01*
X192216228Y-43885703D01*
G37*
G36*
X189319000Y-45555000D02*
X187617000Y-45555000D01*
X187617000Y-43853000D01*
X189319000Y-43853000D01*
X189319000Y-45555000D01*
X189319000Y-45555000D01*
G37*
G36*
X222605946Y-42884189D02*
X222843620Y-42982636D01*
X222843623Y-42982638D01*
X222893327Y-43015849D01*
X223057530Y-43125567D01*
X223239433Y-43307470D01*
X223382364Y-43521380D01*
X223410203Y-43588590D01*
X223480811Y-43759054D01*
X223531000Y-44011370D01*
X223531000Y-44268630D01*
X223509921Y-44374599D01*
X223480811Y-44520946D01*
X223382364Y-44758620D01*
X223382362Y-44758623D01*
X223240251Y-44971307D01*
X223239433Y-44972530D01*
X223057530Y-45154433D01*
X223057527Y-45154435D01*
X223057526Y-45154436D01*
X222944437Y-45230000D01*
X222843620Y-45297364D01*
X222605946Y-45395811D01*
X222353630Y-45446000D01*
X222096370Y-45446000D01*
X221844054Y-45395811D01*
X221606380Y-45297364D01*
X221505563Y-45230000D01*
X221392474Y-45154436D01*
X221392473Y-45154435D01*
X221392470Y-45154433D01*
X221210567Y-44972530D01*
X221209750Y-44971307D01*
X221067638Y-44758623D01*
X221067636Y-44758620D01*
X220969189Y-44520946D01*
X220940079Y-44374599D01*
X220919000Y-44268630D01*
X220919000Y-44011370D01*
X220969189Y-43759054D01*
X221039797Y-43588590D01*
X221067636Y-43521380D01*
X221210567Y-43307470D01*
X221392470Y-43125567D01*
X221556674Y-43015849D01*
X221606377Y-42982638D01*
X221606380Y-42982636D01*
X221844054Y-42884189D01*
X222096370Y-42834000D01*
X222353630Y-42834000D01*
X222605946Y-42884189D01*
X222605946Y-42884189D01*
G37*
G36*
X184517591Y-44182085D02*
X184551569Y-44192393D01*
X184582887Y-44209133D01*
X184610339Y-44231661D01*
X184632867Y-44259113D01*
X184649607Y-44290431D01*
X184659915Y-44324409D01*
X184664000Y-44365890D01*
X184664000Y-45042110D01*
X184659915Y-45083591D01*
X184649607Y-45117569D01*
X184632867Y-45148887D01*
X184610339Y-45176339D01*
X184582887Y-45198867D01*
X184551569Y-45215607D01*
X184517591Y-45225915D01*
X184476110Y-45230000D01*
X183874890Y-45230000D01*
X183833409Y-45225915D01*
X183799431Y-45215607D01*
X183768113Y-45198867D01*
X183740661Y-45176339D01*
X183718133Y-45148887D01*
X183701393Y-45117569D01*
X183691085Y-45083591D01*
X183687000Y-45042110D01*
X183687000Y-44365890D01*
X183691085Y-44324409D01*
X183701393Y-44290431D01*
X183718133Y-44259113D01*
X183740661Y-44231661D01*
X183768113Y-44209133D01*
X183799431Y-44192393D01*
X183833409Y-44182085D01*
X183874890Y-44178000D01*
X184476110Y-44178000D01*
X184517591Y-44182085D01*
X184517591Y-44182085D01*
G37*
G36*
X182942591Y-44182085D02*
X182976569Y-44192393D01*
X183007887Y-44209133D01*
X183035339Y-44231661D01*
X183057867Y-44259113D01*
X183074607Y-44290431D01*
X183084915Y-44324409D01*
X183089000Y-44365890D01*
X183089000Y-45042110D01*
X183084915Y-45083591D01*
X183074607Y-45117569D01*
X183057867Y-45148887D01*
X183035339Y-45176339D01*
X183007887Y-45198867D01*
X182976569Y-45215607D01*
X182942591Y-45225915D01*
X182901110Y-45230000D01*
X182299890Y-45230000D01*
X182258409Y-45225915D01*
X182224431Y-45215607D01*
X182193113Y-45198867D01*
X182165661Y-45176339D01*
X182143133Y-45148887D01*
X182126393Y-45117569D01*
X182116085Y-45083591D01*
X182112000Y-45042110D01*
X182112000Y-44365890D01*
X182116085Y-44324409D01*
X182126393Y-44290431D01*
X182143133Y-44259113D01*
X182165661Y-44231661D01*
X182193113Y-44209133D01*
X182224431Y-44192393D01*
X182258409Y-44182085D01*
X182299890Y-44178000D01*
X182901110Y-44178000D01*
X182942591Y-44182085D01*
X182942591Y-44182085D01*
G37*
G36*
X160133591Y-43928085D02*
X160167569Y-43938393D01*
X160198887Y-43955133D01*
X160226339Y-43977661D01*
X160248867Y-44005113D01*
X160265607Y-44036431D01*
X160275915Y-44070409D01*
X160280000Y-44111890D01*
X160280000Y-44788110D01*
X160275915Y-44829591D01*
X160265607Y-44863569D01*
X160248867Y-44894887D01*
X160226339Y-44922339D01*
X160198887Y-44944867D01*
X160167569Y-44961607D01*
X160133591Y-44971915D01*
X160092110Y-44976000D01*
X159490890Y-44976000D01*
X159449409Y-44971915D01*
X159415431Y-44961607D01*
X159384113Y-44944867D01*
X159356661Y-44922339D01*
X159334133Y-44894887D01*
X159317393Y-44863569D01*
X159307085Y-44829591D01*
X159303000Y-44788110D01*
X159303000Y-44111890D01*
X159307085Y-44070409D01*
X159317393Y-44036431D01*
X159334133Y-44005113D01*
X159356661Y-43977661D01*
X159384113Y-43955133D01*
X159415431Y-43938393D01*
X159449409Y-43928085D01*
X159490890Y-43924000D01*
X160092110Y-43924000D01*
X160133591Y-43928085D01*
X160133591Y-43928085D01*
G37*
G36*
X167448591Y-43928085D02*
X167482569Y-43938393D01*
X167513887Y-43955133D01*
X167541339Y-43977661D01*
X167563867Y-44005113D01*
X167580607Y-44036431D01*
X167590915Y-44070409D01*
X167595000Y-44111890D01*
X167595000Y-44788110D01*
X167590915Y-44829591D01*
X167580607Y-44863569D01*
X167563867Y-44894887D01*
X167541339Y-44922339D01*
X167513887Y-44944867D01*
X167482569Y-44961607D01*
X167448591Y-44971915D01*
X167407110Y-44976000D01*
X166805890Y-44976000D01*
X166764409Y-44971915D01*
X166730431Y-44961607D01*
X166699113Y-44944867D01*
X166671661Y-44922339D01*
X166649133Y-44894887D01*
X166632393Y-44863569D01*
X166622085Y-44829591D01*
X166618000Y-44788110D01*
X166618000Y-44111890D01*
X166622085Y-44070409D01*
X166632393Y-44036431D01*
X166649133Y-44005113D01*
X166671661Y-43977661D01*
X166699113Y-43955133D01*
X166730431Y-43938393D01*
X166764409Y-43928085D01*
X166805890Y-43924000D01*
X167407110Y-43924000D01*
X167448591Y-43928085D01*
X167448591Y-43928085D01*
G37*
G36*
X169023591Y-43928085D02*
X169057569Y-43938393D01*
X169088887Y-43955133D01*
X169116339Y-43977661D01*
X169138867Y-44005113D01*
X169155607Y-44036431D01*
X169165915Y-44070409D01*
X169170000Y-44111890D01*
X169170000Y-44788110D01*
X169165915Y-44829591D01*
X169155607Y-44863569D01*
X169138867Y-44894887D01*
X169116339Y-44922339D01*
X169088887Y-44944867D01*
X169057569Y-44961607D01*
X169023591Y-44971915D01*
X168982110Y-44976000D01*
X168380890Y-44976000D01*
X168339409Y-44971915D01*
X168305431Y-44961607D01*
X168274113Y-44944867D01*
X168246661Y-44922339D01*
X168224133Y-44894887D01*
X168207393Y-44863569D01*
X168197085Y-44829591D01*
X168193000Y-44788110D01*
X168193000Y-44111890D01*
X168197085Y-44070409D01*
X168207393Y-44036431D01*
X168224133Y-44005113D01*
X168246661Y-43977661D01*
X168274113Y-43955133D01*
X168305431Y-43938393D01*
X168339409Y-43928085D01*
X168380890Y-43924000D01*
X168982110Y-43924000D01*
X169023591Y-43928085D01*
X169023591Y-43928085D01*
G37*
G36*
X158558591Y-43928085D02*
X158592569Y-43938393D01*
X158623887Y-43955133D01*
X158651339Y-43977661D01*
X158673867Y-44005113D01*
X158690607Y-44036431D01*
X158700915Y-44070409D01*
X158705000Y-44111890D01*
X158705000Y-44788110D01*
X158700915Y-44829591D01*
X158690607Y-44863569D01*
X158673867Y-44894887D01*
X158651339Y-44922339D01*
X158623887Y-44944867D01*
X158592569Y-44961607D01*
X158558591Y-44971915D01*
X158517110Y-44976000D01*
X157915890Y-44976000D01*
X157874409Y-44971915D01*
X157840431Y-44961607D01*
X157809113Y-44944867D01*
X157781661Y-44922339D01*
X157759133Y-44894887D01*
X157742393Y-44863569D01*
X157732085Y-44829591D01*
X157728000Y-44788110D01*
X157728000Y-44111890D01*
X157732085Y-44070409D01*
X157742393Y-44036431D01*
X157759133Y-44005113D01*
X157781661Y-43977661D01*
X157809113Y-43955133D01*
X157840431Y-43938393D01*
X157874409Y-43928085D01*
X157915890Y-43924000D01*
X158517110Y-43924000D01*
X158558591Y-43928085D01*
X158558591Y-43928085D01*
G37*
G36*
X176338591Y-43928085D02*
X176372569Y-43938393D01*
X176403887Y-43955133D01*
X176431339Y-43977661D01*
X176453867Y-44005113D01*
X176470607Y-44036431D01*
X176480915Y-44070409D01*
X176485000Y-44111890D01*
X176485000Y-44788110D01*
X176480915Y-44829591D01*
X176470607Y-44863569D01*
X176453867Y-44894887D01*
X176431339Y-44922339D01*
X176403887Y-44944867D01*
X176372569Y-44961607D01*
X176338591Y-44971915D01*
X176297110Y-44976000D01*
X175695890Y-44976000D01*
X175654409Y-44971915D01*
X175620431Y-44961607D01*
X175589113Y-44944867D01*
X175561661Y-44922339D01*
X175539133Y-44894887D01*
X175522393Y-44863569D01*
X175512085Y-44829591D01*
X175508000Y-44788110D01*
X175508000Y-44111890D01*
X175512085Y-44070409D01*
X175522393Y-44036431D01*
X175539133Y-44005113D01*
X175561661Y-43977661D01*
X175589113Y-43955133D01*
X175620431Y-43938393D01*
X175654409Y-43928085D01*
X175695890Y-43924000D01*
X176297110Y-43924000D01*
X176338591Y-43928085D01*
X176338591Y-43928085D01*
G37*
G36*
X177913591Y-43928085D02*
X177947569Y-43938393D01*
X177978887Y-43955133D01*
X178006339Y-43977661D01*
X178028867Y-44005113D01*
X178045607Y-44036431D01*
X178055915Y-44070409D01*
X178060000Y-44111890D01*
X178060000Y-44788110D01*
X178055915Y-44829591D01*
X178045607Y-44863569D01*
X178028867Y-44894887D01*
X178006339Y-44922339D01*
X177978887Y-44944867D01*
X177947569Y-44961607D01*
X177913591Y-44971915D01*
X177872110Y-44976000D01*
X177270890Y-44976000D01*
X177229409Y-44971915D01*
X177195431Y-44961607D01*
X177164113Y-44944867D01*
X177136661Y-44922339D01*
X177114133Y-44894887D01*
X177097393Y-44863569D01*
X177087085Y-44829591D01*
X177083000Y-44788110D01*
X177083000Y-44111890D01*
X177087085Y-44070409D01*
X177097393Y-44036431D01*
X177114133Y-44005113D01*
X177136661Y-43977661D01*
X177164113Y-43955133D01*
X177195431Y-43938393D01*
X177229409Y-43928085D01*
X177270890Y-43924000D01*
X177872110Y-43924000D01*
X177913591Y-43928085D01*
X177913591Y-43928085D01*
G37*
G36*
X98251981Y-42527468D02*
X98434150Y-42602925D01*
X98598103Y-42712475D01*
X98737525Y-42851897D01*
X98847075Y-43015850D01*
X98922532Y-43198019D01*
X98961000Y-43391410D01*
X98961000Y-43588590D01*
X98922532Y-43781981D01*
X98847075Y-43964150D01*
X98737525Y-44128103D01*
X98598103Y-44267525D01*
X98434150Y-44377075D01*
X98251981Y-44452532D01*
X98058590Y-44491000D01*
X97861410Y-44491000D01*
X97668019Y-44452532D01*
X97485850Y-44377075D01*
X97321897Y-44267525D01*
X97182475Y-44128103D01*
X97072925Y-43964150D01*
X96997468Y-43781981D01*
X96959000Y-43588590D01*
X96959000Y-43391410D01*
X96997468Y-43198019D01*
X97072925Y-43015850D01*
X97182475Y-42851897D01*
X97321897Y-42712475D01*
X97485850Y-42602925D01*
X97668019Y-42527468D01*
X97861410Y-42489000D01*
X98058590Y-42489000D01*
X98251981Y-42527468D01*
X98251981Y-42527468D01*
G37*
G36*
X209181000Y-43065000D02*
X207379000Y-43065000D01*
X207379000Y-41263000D01*
X209181000Y-41263000D01*
X209181000Y-43065000D01*
X209181000Y-43065000D01*
G37*
G36*
X220231031Y-39104207D02*
X220429145Y-39164305D01*
X220611729Y-39261897D01*
X220771765Y-39393235D01*
X220771766Y-39393237D01*
X220771768Y-39393238D01*
X220850568Y-39489257D01*
X220903103Y-39553271D01*
X221000695Y-39735854D01*
X221060793Y-39933968D01*
X221076000Y-40088370D01*
X221076000Y-41191630D01*
X221060793Y-41346032D01*
X221000695Y-41544146D01*
X220903103Y-41726729D01*
X220771765Y-41886765D01*
X220611729Y-42018103D01*
X220429146Y-42115695D01*
X220231032Y-42175793D01*
X220025000Y-42196085D01*
X219818969Y-42175793D01*
X219620855Y-42115695D01*
X219438272Y-42018103D01*
X219278236Y-41886765D01*
X219146899Y-41726731D01*
X219049306Y-41544148D01*
X218989207Y-41346028D01*
X218974000Y-41191631D01*
X218974000Y-40088370D01*
X218989207Y-39933973D01*
X218989207Y-39933969D01*
X219049305Y-39735855D01*
X219146897Y-39553271D01*
X219278235Y-39393235D01*
X219278237Y-39393234D01*
X219278238Y-39393232D01*
X219438269Y-39261899D01*
X219438271Y-39261897D01*
X219620854Y-39164305D01*
X219818968Y-39104207D01*
X220025000Y-39083915D01*
X220231031Y-39104207D01*
X220231031Y-39104207D01*
G37*
G36*
X95746160Y-38784368D02*
X95746162Y-38784369D01*
X95746163Y-38784369D01*
X95860514Y-38831735D01*
X96055726Y-38912594D01*
X96334327Y-39098749D01*
X96571251Y-39335673D01*
X96757406Y-39614274D01*
X96885632Y-39923840D01*
X96951000Y-40252465D01*
X96951000Y-40587535D01*
X96885632Y-40916160D01*
X96757406Y-41225726D01*
X96571251Y-41504327D01*
X96334327Y-41741251D01*
X96055726Y-41927406D01*
X95860514Y-42008265D01*
X95746163Y-42055631D01*
X95746162Y-42055631D01*
X95746160Y-42055632D01*
X95417535Y-42121000D01*
X95082465Y-42121000D01*
X94753840Y-42055632D01*
X94753838Y-42055631D01*
X94753837Y-42055631D01*
X94639486Y-42008265D01*
X94444274Y-41927406D01*
X94165673Y-41741251D01*
X93928749Y-41504327D01*
X93742594Y-41225726D01*
X93614368Y-40916160D01*
X93549000Y-40587535D01*
X93549000Y-40252465D01*
X93614368Y-39923840D01*
X93742594Y-39614274D01*
X93928749Y-39335673D01*
X94165673Y-39098749D01*
X94444274Y-38912594D01*
X94639486Y-38831735D01*
X94753837Y-38784369D01*
X94753838Y-38784369D01*
X94753840Y-38784368D01*
X95082465Y-38719000D01*
X95417535Y-38719000D01*
X95746160Y-38784368D01*
X95746160Y-38784368D01*
G37*
G36*
X214507510Y-39592041D02*
X214631032Y-39604207D01*
X214829146Y-39664305D01*
X215011729Y-39761897D01*
X215171765Y-39893235D01*
X215303103Y-40053271D01*
X215400695Y-40235854D01*
X215460793Y-40433968D01*
X215481085Y-40640000D01*
X215460793Y-40846032D01*
X215400695Y-41044146D01*
X215303103Y-41226729D01*
X215171765Y-41386765D01*
X215011729Y-41518103D01*
X214829146Y-41615695D01*
X214631032Y-41675793D01*
X214507510Y-41687959D01*
X214476631Y-41691000D01*
X213373369Y-41691000D01*
X213342490Y-41687959D01*
X213218968Y-41675793D01*
X213020854Y-41615695D01*
X212838271Y-41518103D01*
X212678235Y-41386765D01*
X212546897Y-41226729D01*
X212449305Y-41044146D01*
X212389207Y-40846032D01*
X212368915Y-40640000D01*
X212389207Y-40433968D01*
X212449305Y-40235854D01*
X212546897Y-40053271D01*
X212678235Y-39893235D01*
X212838271Y-39761897D01*
X213020854Y-39664305D01*
X213218968Y-39604207D01*
X213342490Y-39592041D01*
X213373369Y-39589000D01*
X214476631Y-39589000D01*
X214507510Y-39592041D01*
X214507510Y-39592041D01*
G37*
G36*
X205481000Y-39291000D02*
X203399000Y-39291000D01*
X203399000Y-29289000D01*
X205481000Y-29289000D01*
X205481000Y-39291000D01*
X205481000Y-39291000D01*
G37*
G36*
X209441000Y-39291000D02*
X207359000Y-39291000D01*
X207359000Y-29289000D01*
X209441000Y-29289000D01*
X209441000Y-39291000D01*
X209441000Y-39291000D01*
G37*
G36*
X201521000Y-39291000D02*
X199439000Y-39291000D01*
X199439000Y-29289000D01*
X201521000Y-29289000D01*
X201521000Y-39291000D01*
X201521000Y-39291000D01*
G37*
G36*
X197561000Y-39291000D02*
X195479000Y-39291000D01*
X195479000Y-29289000D01*
X197561000Y-29289000D01*
X197561000Y-39291000D01*
X197561000Y-39291000D01*
G37*
G36*
X193601000Y-39291000D02*
X191519000Y-39291000D01*
X191519000Y-29289000D01*
X193601000Y-29289000D01*
X193601000Y-39291000D01*
X193601000Y-39291000D01*
G37*
G36*
X189641000Y-39291000D02*
X187559000Y-39291000D01*
X187559000Y-29289000D01*
X189641000Y-29289000D01*
X189641000Y-39291000D01*
X189641000Y-39291000D01*
G37*
G36*
X185681000Y-39291000D02*
X183599000Y-39291000D01*
X183599000Y-29289000D01*
X185681000Y-29289000D01*
X185681000Y-39291000D01*
X185681000Y-39291000D01*
G37*
G36*
X181721000Y-39291000D02*
X179639000Y-39291000D01*
X179639000Y-29289000D01*
X181721000Y-29289000D01*
X181721000Y-39291000D01*
X181721000Y-39291000D01*
G37*
G36*
X102521000Y-39291000D02*
X100439000Y-39291000D01*
X100439000Y-29289000D01*
X102521000Y-29289000D01*
X102521000Y-39291000D01*
X102521000Y-39291000D01*
G37*
G36*
X106481000Y-39291000D02*
X104399000Y-39291000D01*
X104399000Y-29289000D01*
X106481000Y-29289000D01*
X106481000Y-39291000D01*
X106481000Y-39291000D01*
G37*
G36*
X110441000Y-39291000D02*
X108359000Y-39291000D01*
X108359000Y-29289000D01*
X110441000Y-29289000D01*
X110441000Y-39291000D01*
X110441000Y-39291000D01*
G37*
G36*
X114401000Y-39291000D02*
X112319000Y-39291000D01*
X112319000Y-29289000D01*
X114401000Y-29289000D01*
X114401000Y-39291000D01*
X114401000Y-39291000D01*
G37*
G36*
X118361000Y-39291000D02*
X116279000Y-39291000D01*
X116279000Y-29289000D01*
X118361000Y-29289000D01*
X118361000Y-39291000D01*
X118361000Y-39291000D01*
G37*
G36*
X122321000Y-39291000D02*
X120239000Y-39291000D01*
X120239000Y-29289000D01*
X122321000Y-29289000D01*
X122321000Y-39291000D01*
X122321000Y-39291000D01*
G37*
G36*
X126281000Y-39291000D02*
X124199000Y-39291000D01*
X124199000Y-29289000D01*
X126281000Y-29289000D01*
X126281000Y-39291000D01*
X126281000Y-39291000D01*
G37*
G36*
X130241000Y-39291000D02*
X128159000Y-39291000D01*
X128159000Y-29289000D01*
X130241000Y-29289000D01*
X130241000Y-39291000D01*
X130241000Y-39291000D01*
G37*
G36*
X134201000Y-39291000D02*
X132119000Y-39291000D01*
X132119000Y-29289000D01*
X134201000Y-29289000D01*
X134201000Y-39291000D01*
X134201000Y-39291000D01*
G37*
G36*
X138161000Y-39291000D02*
X136079000Y-39291000D01*
X136079000Y-29289000D01*
X138161000Y-29289000D01*
X138161000Y-39291000D01*
X138161000Y-39291000D01*
G37*
G36*
X142121000Y-39291000D02*
X140039000Y-39291000D01*
X140039000Y-29289000D01*
X142121000Y-29289000D01*
X142121000Y-39291000D01*
X142121000Y-39291000D01*
G37*
G36*
X146081000Y-39291000D02*
X143999000Y-39291000D01*
X143999000Y-29289000D01*
X146081000Y-29289000D01*
X146081000Y-39291000D01*
X146081000Y-39291000D01*
G37*
G36*
X150041000Y-39291000D02*
X147959000Y-39291000D01*
X147959000Y-29289000D01*
X150041000Y-29289000D01*
X150041000Y-39291000D01*
X150041000Y-39291000D01*
G37*
G36*
X154001000Y-39291000D02*
X151919000Y-39291000D01*
X151919000Y-29289000D01*
X154001000Y-29289000D01*
X154001000Y-39291000D01*
X154001000Y-39291000D01*
G37*
G36*
X157961000Y-39291000D02*
X155879000Y-39291000D01*
X155879000Y-29289000D01*
X157961000Y-29289000D01*
X157961000Y-39291000D01*
X157961000Y-39291000D01*
G37*
G36*
X161921000Y-39291000D02*
X159839000Y-39291000D01*
X159839000Y-29289000D01*
X161921000Y-29289000D01*
X161921000Y-39291000D01*
X161921000Y-39291000D01*
G37*
G36*
X165881000Y-39291000D02*
X163799000Y-39291000D01*
X163799000Y-29289000D01*
X165881000Y-29289000D01*
X165881000Y-39291000D01*
X165881000Y-39291000D01*
G37*
G36*
X169841000Y-39291000D02*
X167759000Y-39291000D01*
X167759000Y-29289000D01*
X169841000Y-29289000D01*
X169841000Y-39291000D01*
X169841000Y-39291000D01*
G37*
G36*
X173801000Y-39291000D02*
X171719000Y-39291000D01*
X171719000Y-29289000D01*
X173801000Y-29289000D01*
X173801000Y-39291000D01*
X173801000Y-39291000D01*
G37*
G36*
X177761000Y-39291000D02*
X175679000Y-39291000D01*
X175679000Y-29289000D01*
X177761000Y-29289000D01*
X177761000Y-39291000D01*
X177761000Y-39291000D01*
G37*
G36*
X222605946Y-35984189D02*
X222843620Y-36082636D01*
X223057530Y-36225567D01*
X223239433Y-36407470D01*
X223382364Y-36621380D01*
X223480811Y-36859054D01*
X223531000Y-37111370D01*
X223531000Y-37368630D01*
X223480811Y-37620946D01*
X223382364Y-37858620D01*
X223239433Y-38072530D01*
X223057530Y-38254433D01*
X222843620Y-38397364D01*
X222605946Y-38495811D01*
X222353630Y-38546000D01*
X222096370Y-38546000D01*
X221844054Y-38495811D01*
X221606380Y-38397364D01*
X221392470Y-38254433D01*
X221210567Y-38072530D01*
X221067636Y-37858620D01*
X220969189Y-37620946D01*
X220919000Y-37368630D01*
X220919000Y-37111370D01*
X220969189Y-36859054D01*
X221067636Y-36621380D01*
X221210567Y-36407470D01*
X221392470Y-36225567D01*
X221606380Y-36082636D01*
X221844054Y-35984189D01*
X222096370Y-35934000D01*
X222353630Y-35934000D01*
X222605946Y-35984189D01*
X222605946Y-35984189D01*
G37*
M02*
